<?xml version="1.0" standalone="no"?>
<!DOCTYPE svg PUBLIC "-//W3C//DTD SVG 1.1//EN" "http://www.w3.org/Graphics/SVG/1.1/DTD/svg11.dtd" >
<svg xmlns="http://www.w3.org/2000/svg" xmlns:xlink="http://www.w3.org/1999/xlink" version="1.1">
<metadata>
Created by FontForge 20170731 at Mon Dec 10 18:53:39 2018
 By Aleksey,,,
Copyright (c) 2018 by GUNMAD &#38; Or Type. All rights reserved.
</metadata>
<defs>
<font id="." horiz-adv-x="0" >
  <font-face 
    font-family="."
    font-weight="300"
    font-stretch="normal"
    units-per-em="2048"
    panose-1="2 2 0 3 7 4 4 0 6 3"
    ascent="1638"
    descent="-410"
    x-height="973"
    cap-height="1356"
    bbox="-1346 -496 2480 1861"
    underline-thickness="85"
    underline-position="-351"
    unicode-range="U+000D-FB02"
  />
<missing-glyph horiz-adv-x="1214" 
 />
    <glyph glyph-name="uniFB01" unicode="fi" horiz-adv-x="1227" 
d="M1163 62l-8 -62h-426l-8 62l107 21l31 104v597l-78 87h-387v-675l33 -113l109 -21l-8 -62h-432l-7 62l106 21l34 113v675h-181v76h181q0 153 61 281t170.5 203t248.5 75q82 0 148.5 -27.5t110 -71.5t60.5 -94l-115 -142h-39q-24 104 -89 160t-154 56
q-134 0 -185.5 -105.5t-51.5 -279.5v-55h521l150 72l43 -38l-84 -100v-694l31 -104z" />
    <glyph glyph-name="uniFB02" unicode="fl" horiz-adv-x="1221" 
d="M1164 62l-7 -62h-428l-8 62l107 21l31 113v989q-4 37 -25 76t-57 67l-21 14v2q-61 38 -144 38q-88 0 -135.5 -45t-65 -126.5t-17.5 -208.5v-29h274v-76h-274v-701l33 -113l109 -21l-8 -62h-432l-7 62l106 21l34 113v701h-181v76h181q0 146 58 268t163 193.5t238 71.5
q129 0 231 -75l148 69l43 -38l-86 -102v-1164l32 -113z" />
    <glyph glyph-name="T_h.liga" unicode="Th" horiz-adv-x="2290" 
d="M2242 62l-8 -62h-430l-8 62l108 20l33 113v441q0 111 -35 178t-139 67q-157 0 -268 -200v-485l31 -113l109 -21l-8 -62h-428l-8 62l108 21l31 113v1024l-101 60h-411v-1085l31 -113l142 -20l-8 -62h-529l-8 62l142 20l33 113v1085h-266l-193 -104l-43 -127l-43 11v296
h1098l114 7l250 137l43 -38l-86 -102v-556q142 196 342 196q128 0 196.5 -78.5t68.5 -236.5v-490l33 -113z" />
    <glyph glyph-name="f_b.liga" unicode="fb" horiz-adv-x="1893" 
d="M1576 936.5q104 -63.5 163 -175.5t59 -253q0 -148 -59 -270.5t-160.5 -193.5t-224.5 -71q-92 0 -180.5 42t-165.5 121l-116 -136h-38v1185q-4 45 -33 90.5t-85.5 76t-136.5 30.5q-84 0 -128.5 -45t-60.5 -126t-16 -209v-29h274v-76h-274v-701l33 -113l109 -21l-8 -62
h-432l-7 62l106 21l34 113v701h-181v76h181q0 146 56.5 268t158.5 193.5t231 71.5q135 0 239 -75l148 69l43 -38l-85 -102v-564q56 96 139 150t184 54q129 0 233 -63.5zM1504 104.5q63 44.5 97 125.5t34 188q0 131 -44.5 235t-123 163t-177.5 59q-72 0 -123.5 -32.5
t-82.5 -77.5t-62 -107v-284q64 -160 145 -237t189 -77q85 0 148 44.5z" />
    <glyph glyph-name="f_f.liga" unicode="ff" horiz-adv-x="1309" 
d="M1400.5 1478.5q58.5 -27.5 78.5 -77.5l-116 -146h-31q-17 52 -53 82.5t-83 30.5q-75 0 -114.5 -49t-53 -127.5t-13.5 -189.5v-29h274v-76h-274v-701l33 -113l109 -21l-8 -62h-432l-8 62l107 21l34 113v701h-456v-701l33 -113l109 -21l-8 -62h-432l-7 62l106 21l34 113
v701h-181v76h181q0 144 56 266.5t153.5 194.5t214.5 72q69 0 127 -27.5t78 -77.5l-115 -146h-32q-17 52 -53 82.5t-83 30.5q-74 0 -114 -49t-53.5 -128t-13.5 -189v-29h456q0 144 56 266.5t153 194.5t214 72q69 0 127.5 -27.5z" />
    <glyph glyph-name="f_f_b.liga" unicode="ffb" horiz-adv-x="2514" 
d="M2199 936.5q103 -63.5 161.5 -175.5t58.5 -253q0 -148 -59 -270.5t-160.5 -193.5t-224.5 -71q-93 0 -181.5 42t-164.5 121l-116 -136h-38v1185q-4 45 -32 90.5t-81.5 76t-128.5 30.5q-88 0 -135.5 -45t-65 -126.5t-17.5 -208.5v-29h274v-76h-274v-701l33 -113l109 -21
l-8 -62h-432l-8 62l107 21l34 113v701h-456v-701l33 -113l109 -21l-8 -62h-432l-7 62l106 21l34 113v701h-181v76h181q0 144 56 266.5t153.5 194.5t214.5 72q69 0 127 -27.5t78 -77.5l-115 -146h-32q-17 52 -53 82.5t-83 30.5q-74 0 -114 -49t-53.5 -128t-13.5 -189v-29h456
q0 146 58 268t163 193.5t238 71.5q129 0 227 -73l147 70l43 -39l-86 -101v-567q57 96 141 150t187 54q128 0 231 -63.5zM2125 104.5q63 44.5 97 125.5t34 188q0 131 -44.5 235t-123 163t-177.5 59q-72 0 -123.5 -32.5t-83.5 -78t-62 -106.5v-284q65 -161 146.5 -237.5
t188.5 -76.5q85 0 148 44.5z" />
    <glyph glyph-name="f_f_h.liga" unicode="ffh" horiz-adv-x="2436" 
d="M2388 62l-7 -62h-430l-8 62l107 20l33 113v441q0 111 -35 178t-138 67q-90 0 -155 -56.5t-114 -145.5v-483l32 -113l109 -21l-8 -62h-429l-8 62l108 21l31 113v989q-4 45 -32.5 90.5t-82 76t-128.5 30.5q-88 0 -135.5 -45t-65 -126.5t-17.5 -208.5v-29h274v-76h-274v-701
l33 -113l109 -21l-8 -62h-432l-8 62l107 21l34 113v701h-456v-701l33 -113l109 -21l-8 -62h-432l-7 62l106 21l34 113v701h-181v76h181q0 144 56 266.5t153.5 194.5t214.5 72q69 0 127 -27.5t78 -77.5l-115 -146h-32q-17 52 -53 82.5t-83 30.5q-74 0 -114 -49t-53.5 -128
t-13.5 -189v-29h456q0 146 58 268t163 193.5t238 71.5q68 0 126 -20.5t103 -54.5l146 69l43 -38l-86 -102v-556q74 102 159.5 149t183.5 47q128 0 196 -78.5t68 -236.5v-490l34 -113z" />
    <glyph glyph-name="f_f_i.liga" unicode="ffi" horiz-adv-x="1848" 
d="M1784 62l-8 -62h-426l-8 62l107 21l31 104v597l-78 87h-387v-675l33 -113l109 -21l-8 -62h-432l-7 62l106 21l34 113v675h-456v-675l33 -113l109 -21l-8 -62h-432l-7 62l106 21l34 113v675h-181v76h181q0 151 56 279.5t153.5 204t214.5 75.5q69 0 127 -27.5t78 -77.5
l-115 -146h-32q-17 52 -53 82.5t-83 30.5q-74 0 -114 -49t-53.5 -128t-13.5 -189v-55h456q0 153 61 281t170.5 203t248.5 75q82 0 148.5 -27.5t110 -71.5t60.5 -94l-115 -142h-39q-24 104 -89 160t-154 56q-134 0 -185.5 -105.5t-51.5 -279.5v-55h521l150 72l43 -38
l-84 -100v-694l31 -104z" />
    <glyph glyph-name="f_f_iacute.liga" unicode="ff&#xed;" horiz-adv-x="1822" 
d="M1052 1278.5q-37 -100.5 -37 -276.5v-55h521l150 72l43 -38l-84 -100v-694l31 -104l108 -21l-8 -62h-426l-8 62l107 21l31 104v574l-82 110h-383v-675l33 -113l109 -21l-8 -62h-432l-7 62l106 21l34 113v675h-456v-675l33 -113l109 -21l-8 -62h-432l-7 62l106 21l34 113
v675h-181v76h181q0 151 56 279.5t153.5 204t214.5 75.5q69 0 127 -27.5t78 -77.5l-115 -146h-32q-17 52 -53 82.5t-83 30.5q-74 0 -114 -49t-53.5 -128t-13.5 -189v-55h456q0 151 56 279.5t153.5 204t214.5 75.5q91 0 160 -50t112 -142l164 100h101l19 -29v-77l-424 -146
q-25 100 -77.5 158.5t-132.5 58.5q-107 0 -144 -100.5z" />
    <glyph glyph-name="f_f_icircumflex.liga" unicode="ff&#xee;" horiz-adv-x="1834" 
d="M1237 1105l126 128q-22 56 -68 95.5t-105 39.5q-103 0 -139 -100.5t-36 -265.5v-55h521l150 72l43 -38l-84 -100v-694l31 -104l108 -21l-8 -62h-426l-8 62l107 21l31 104v574l-82 110h-383v-675l33 -113l109 -21l-8 -62h-432l-7 62l106 21l34 113v675h-456v-675l33 -113
l109 -21l-8 -62h-432l-7 62l106 21l34 113v675h-181v76h181q0 151 56 279.5t153.5 204t214.5 75.5q69 0 127 -27.5t78 -77.5l-115 -146h-32q-17 52 -53 82.5t-83 30.5q-74 0 -114 -49t-53.5 -128t-13.5 -189v-55h456q0 151 56.5 279.5t153 204t210.5 75.5q76 0 135.5 -35
t97.5 -96l34 34l300 -304l-23 -21l-277 173l-277 -173z" />
    <glyph glyph-name="f_f_idieresis.liga" unicode="ff&#xef;" horiz-adv-x="1847" 
d="M1676 83l108 -21l-8 -62h-426l-8 62l107 21l31 104v574l-82 110h-383v-675l33 -113l109 -21l-8 -62h-432l-7 62l106 21l34 113v675h-456v-675l33 -113l109 -21l-8 -62h-432l-7 62l106 21l34 113v675h-181v76h181q0 151 56 279.5t153.5 204t214.5 75.5q69 0 127 -27.5
t78 -77.5l-115 -146h-32q-17 52 -53 82.5t-83 30.5q-74 0 -114 -49t-53.5 -128t-13.5 -189v-55h456q0 156 44.5 283.5t125.5 201.5t185 74q79 0 140 -32t96 -87t40 -123q2 -29 1 -37l-102 -100h-45q-14 139 -58 202t-129 63q-133 0 -133 -295v-150h521l150 72l43 -38
l-84 -100v-694zM1850 1260v-33l-102 -100h-31l-103 100v33l103 103h31z" />
    <glyph glyph-name="f_f_igrave.liga" unicode="ff&#xec;" horiz-adv-x="1834" 
d="M1047.5 1267.5q-32.5 -100.5 -32.5 -265.5v-55h521l150 72l43 -38l-84 -100v-694l31 -104l108 -21l-8 -62h-426l-8 62l107 21l31 104v574l-82 110h-383v-675l33 -113l109 -21l-8 -62h-432l-7 62l106 21l34 113v675h-456v-675l33 -113l109 -21l-8 -62h-432l-7 62l106 21
l34 113v675h-181v76h181q0 151 56 279.5t153.5 204t214.5 75.5q69 0 127 -27.5t78 -77.5l-115 -146h-32q-17 52 -53 82.5t-83 30.5q-74 0 -114 -49t-53.5 -128t-13.5 -189v-55h456q0 150 54.5 278.5t146 204.5t196.5 76q78 0 131 -39.5t84 -98.5l338 -205l-16 -33l-524 182
q-14 27 -34.5 41.5t-52.5 14.5q-93 0 -125.5 -100.5z" />
    <glyph glyph-name="f_f_j.liga" unicode="ffj" horiz-adv-x="1831" 
d="M1729 979l-84 -99v-878q0 -153 -60 -256t-133.5 -155t-152.5 -87l-25 35q81 65 143.5 169.5t62.5 281.5v771l-95 136h-370v-701l33 -113l109 -21l-8 -62h-432l-8 62l107 21l34 113v701h-456v-701l33 -113l109 -21l-8 -62h-432l-7 62l106 21l34 113v701h-181v76h181
q0 144 56 266.5t153.5 194.5t214.5 72q69 0 127 -27.5t78 -77.5l-115 -146h-32q-17 52 -53 82.5t-83 30.5q-74 0 -114 -49t-53.5 -128t-13.5 -189v-29h456q0 145 62.5 267t172.5 194t245 72q85 0 151 -33.5t107.5 -85.5t56.5 -107l-113 -140h-37q-25 118 -85.5 180
t-157.5 62q-128 0 -182.5 -105.5t-54.5 -274.5v-29h574l97 45z" />
    <glyph glyph-name="f_f_k.liga" unicode="ffk" horiz-adv-x="2380" 
d="M2351 62l-8 -62h-413l-7 62l92 18l23 74l-222 427l-176 -113v-272l31 -113l109 -21l-7 -62h-428l-8 62l107 21l31 113v989q-4 45 -32.5 90.5t-82.5 76t-132 30.5q-87 0 -133.5 -45t-63 -126.5t-16.5 -208.5v-29h274v-76h-274v-701l33 -113l109 -21l-8 -62h-432l-8 62
l107 21l34 113v701h-456v-701l33 -113l109 -21l-8 -62h-432l-7 62l106 21l34 113v701h-181v76h181q0 144 56 266.5t153.5 194.5t214.5 72q69 0 127 -27.5t78 -77.5l-115 -146h-32q-17 52 -53 82.5t-83 30.5q-74 0 -114 -49t-53.5 -128t-13.5 -189v-29h456q0 146 57.5 268
t161 193.5t235.5 71.5t233 -74l147 68l42 -38l-86 -102v-797l407 328l5 91l32 26l208 -177l-34 -35l-59 17l-35 -6l-220 -142l265 -512l68 -70z" />
    <glyph glyph-name="f_f_l.liga" unicode="ffl" horiz-adv-x="1842" 
d="M1785 62l-7 -62h-428l-8 62l107 21l31 113v989q-4 37 -25 76t-57 67l-21 14v2q-61 38 -144 38q-88 0 -135.5 -45t-65 -126.5t-17.5 -208.5v-29h274v-76h-274v-701l33 -113l109 -21l-8 -62h-432l-7 62l106 21l34 113v701h-456v-701l33 -113l109 -21l-8 -62h-432l-7 62
l106 21l34 113v701h-181v76h181q0 144 56 266.5t153.5 194.5t214.5 72q73 0 135.5 -27.5t83.5 -77.5l-115 -146h-32q-19 52 -58.5 82.5t-91.5 30.5q-74 0 -114 -49t-53.5 -128t-13.5 -189v-29h456q0 146 58 268t163 193.5t238 71.5q129 0 231 -75l148 69l43 -38l-86 -102
v-1164l32 -113z" />
    <glyph glyph-name="f_f_t.liga" unicode="fft" horiz-adv-x="1946" 
d="M1866 115l24 -59q-43 -38 -98.5 -60.5t-112.5 -22.5q-59 0 -105 28t-71 79.5t-25 118.5v698h-463v-701l33 -113l109 -21l-8 -62h-432l-8 62l107 21l34 113v701h-456v-701l33 -113l109 -21l-8 -62h-432l-7 62l106 21l34 113v701h-181v76h181q0 144 56 266.5t153.5 194.5
t214.5 72q69 0 127 -27.5t78 -77.5l-115 -146h-32q-17 52 -53 82.5t-83 30.5q-74 0 -114 -49t-53.5 -128t-13.5 -189v-29h456q0 144 56 266.5t153 194.5t214 72q73 0 135.5 -27.5t84.5 -77.5l-98 -155h-32q-26 59 -69 91t-98 32q-75 0 -114.5 -49t-53 -128t-13.5 -190v-29
h274l176 63l117 336h61v-399h259l-28 -76h-231v-629q0 -72 11.5 -112t36 -57t65.5 -17q50 0 110 33z" />
    <glyph glyph-name="f_f_y.liga" unicode="ffy" horiz-adv-x="2399" 
d="M2380 919l-74 -20l-84 -90l-430 -1099q-39 -103 -114 -154.5t-168 -51.5q-51 0 -95 14t-88 40l68 160l57 8q12 -33 41 -60.5t81 -27.5q55 0 95 41.5t78 137.5l70 178l-338 828l-84 74h-380v-701l33 -113l109 -21l-8 -62h-432l-8 62l107 21l34 113v701h-456v-701l33 -113
l109 -21l-8 -62h-432l-7 62l106 21l34 113v701h-181v76h181q0 144 56 266.5t153.5 194.5t214.5 72q69 0 127 -27.5t78 -77.5l-115 -146h-32q-17 52 -53 82.5t-83 30.5q-74 0 -114 -49t-53.5 -128t-13.5 -189v-29h456q0 144 56 266.5t153 194.5t214 72q69 0 127.5 -27.5
t78.5 -77.5l-116 -146h-31q-17 52 -53 82.5t-83 30.5q-75 0 -114.5 -49t-53 -127.5t-13.5 -189.5v-29h761l11 -62l-98 -18l-29 -91l241 -602l238 606l-24 91l-122 16l10 60h373z" />
    <glyph glyph-name="f_f_yacute.liga" unicode="ff&#xfd;" horiz-adv-x="2399" 
d="M2380 919l-74 -20l-84 -90l-430 -1099q-39 -103 -114 -154.5t-168 -51.5q-51 0 -95 14t-88 40l68 160l57 8q12 -33 41 -60.5t81 -27.5q55 0 95 41.5t78 137.5l70 178l-338 828l-84 74h-380v-701l33 -113l109 -21l-8 -62h-432l-8 62l107 21l34 113v701h-456v-701l33 -113
l109 -21l-8 -62h-432l-7 62l106 21l34 113v701h-181v76h181q0 144 56 266.5t153.5 194.5t214.5 72q69 0 127 -27.5t78 -77.5l-115 -146h-32q-17 52 -53 82.5t-83 30.5q-74 0 -114 -49t-53.5 -128t-13.5 -189v-29h456q0 144 56 266.5t153 194.5t214 72q69 0 127.5 -27.5
t78.5 -77.5l-116 -146h-31q-17 52 -53 82.5t-83 30.5q-75 0 -114.5 -49t-53 -127.5t-13.5 -189.5v-29h761l11 -62l-98 -18l-29 -91l241 -602l238 606l-24 91l-122 16l10 60h373zM1624 1134l419 254h101l20 -29v-79l-525 -179z" />
    <glyph glyph-name="f_f_ycircumflex.liga" unicode="ff&#x177;" horiz-adv-x="2399" 
d="M2380 919l-74 -20l-84 -90l-430 -1099q-39 -103 -114 -154.5t-168 -51.5q-51 0 -95 14t-88 40l68 160l57 8q12 -33 41 -60.5t81 -27.5q55 0 95 41.5t78 137.5l70 178l-338 828l-84 74h-380v-701l33 -113l109 -21l-8 -62h-432l-8 62l107 21l34 113v701h-456v-701l33 -113
l109 -21l-8 -62h-432l-7 62l106 21l34 113v701h-181v76h181q0 144 56 266.5t153.5 194.5t214.5 72q69 0 127 -27.5t78 -77.5l-115 -146h-32q-17 52 -53 82.5t-83 30.5q-74 0 -114 -49t-53.5 -128t-13.5 -189v-29h456q0 144 56 266.5t153 194.5t214 72q69 0 127.5 -27.5
t78.5 -77.5l-116 -146h-31q-17 52 -53 82.5t-83 30.5q-75 0 -114.5 -49t-53 -127.5t-13.5 -189.5v-29h761l11 -62l-98 -18l-29 -91l241 -602l238 606l-24 91l-122 16l10 60h373zM1558 1106l300 304l300 -304l-23 -22l-277 166l-278 -166z" />
    <glyph glyph-name="f_f_ydieresis.liga" unicode="ff&#xff;" horiz-adv-x="2399" 
d="M2380 919l-74 -20l-84 -90l-430 -1099q-39 -103 -114 -154.5t-168 -51.5q-51 0 -95 14t-88 40l68 160l57 8q12 -33 41 -60.5t81 -27.5q55 0 95 41.5t78 137.5l70 178l-338 828l-84 74h-380v-701l33 -113l109 -21l-8 -62h-432l-8 62l107 21l34 113v701h-456v-701l33 -113
l109 -21l-8 -62h-432l-7 62l106 21l34 113v701h-181v76h181q0 144 56 266.5t153.5 194.5t214.5 72q69 0 127 -27.5t78 -77.5l-115 -146h-32q-17 52 -53 82.5t-83 30.5q-74 0 -114 -49t-53.5 -128t-13.5 -189v-29h456q0 144 56 266.5t153 194.5t214 72q69 0 127.5 -27.5
t78.5 -77.5l-116 -146h-31q-17 52 -53 82.5t-83 30.5q-75 0 -114.5 -49t-53 -127.5t-13.5 -189.5v-29h761l11 -62l-98 -18l-29 -91l241 -602l238 606l-24 91l-122 16l10 60h373zM1562 1222v33l102 104h31l102 -104v-33l-102 -100h-31zM1929 1222v33l103 104h31l102 -104v-33
l-102 -100h-31z" />
    <glyph glyph-name="f_f_ygrave.liga" unicode="ff&#x1ef3;" horiz-adv-x="2399" 
d="M2380 919l-74 -20l-84 -90l-430 -1099q-39 -103 -114 -154.5t-168 -51.5q-51 0 -95 14t-88 40l68 160l57 8q12 -33 41 -60.5t81 -27.5q55 0 95 41.5t78 137.5l70 178l-338 828l-84 74h-380v-701l33 -113l109 -21l-8 -62h-432l-8 62l107 21l34 113v701h-456v-701l33 -113
l109 -21l-8 -62h-432l-7 62l106 21l34 113v701h-181v76h181q0 144 56 266.5t153.5 194.5t214.5 72q69 0 127 -27.5t78 -77.5l-115 -146h-32q-17 52 -53 82.5t-83 30.5q-74 0 -114 -49t-53.5 -128t-13.5 -189v-29h456q0 144 56 266.5t153 194.5t214 72q69 0 127.5 -27.5
t78.5 -77.5l-116 -146h-31q-17 52 -53 82.5t-83 30.5q-75 0 -114.5 -49t-53 -127.5t-13.5 -189.5v-29h761l11 -62l-98 -18l-29 -91l241 -602l238 606l-24 91l-122 16l10 60h373zM2083 1132l-475 162v78l20 29h101l370 -237z" />
    <glyph glyph-name="f_h.liga" unicode="fh" horiz-adv-x="1814" 
d="M1766 62l-7 -62h-431l-7 62l107 20l33 113v441q0 72 -11.5 124.5t-48.5 86.5t-109 34q-89 0 -156.5 -55.5t-116.5 -140.5v-489l31 -113l109 -21l-8 -62h-428l-7 62l106 21l31 113v989q-4 45 -32.5 90.5t-84.5 76t-136 30.5q-84 0 -129 -45t-61 -126t-16 -209v-29h274v-76
h-274v-701l33 -113l109 -21l-8 -62h-432l-7 62l106 21l34 113v701h-181v76h181q0 146 56.5 268t158.5 193.5t232 71.5q135 0 239 -75l147 69l42 -38l-85 -102v-556q143 196 343 196q128 0 196 -78.5t68 -236.5v-490l33 -113z" />
    <glyph glyph-name="f_iacute.liga" unicode="f&#xed;" horiz-adv-x="1202" 
d="M431 1278.5q-37 -100.5 -37 -276.5v-55h521l150 72l43 -38l-84 -100v-694l31 -104l108 -21l-8 -62h-426l-8 62l107 21l31 104v574l-82 110h-383v-675l33 -113l109 -21l-8 -62h-432l-7 62l106 21l34 113v675h-181v76h181q0 151 56 279.5t153.5 204t214.5 75.5
q91 0 160 -50t112 -142l164 100h101l19 -29v-77l-424 -146q-25 100 -77.5 158.5t-132.5 58.5q-107 0 -144 -100.5z" />
    <glyph glyph-name="f_icircumflex.liga" unicode="f&#xee;" horiz-adv-x="1214" 
d="M616 1105l126 128q-22 56 -68 95.5t-105 39.5q-103 0 -139 -100.5t-36 -265.5v-55h521l150 72l43 -38l-84 -100v-694l31 -104l108 -21l-8 -62h-426l-8 62l107 21l31 104v574l-82 110h-383v-675l33 -113l109 -21l-8 -62h-432l-7 62l106 21l34 113v675h-181v76h181
q0 151 56.5 279.5t153 204t210.5 75.5q76 0 135.5 -35t97.5 -96l34 34l300 -304l-23 -21l-277 173l-277 -173z" />
    <glyph glyph-name="f_idieresis.liga" unicode="f&#xef;" horiz-adv-x="1226" 
d="M1055 83l108 -21l-8 -62h-426l-8 62l107 21l31 104v574l-82 110h-383v-675l33 -113l109 -21l-8 -62h-432l-7 62l106 21l34 113v675h-181v76h181q0 156 44.5 283.5t125.5 201.5t185 74q79 0 140 -32t96 -87t40 -123q2 -29 1 -37l-102 -100h-45q-14 139 -58 202t-129 63
q-133 0 -133 -295v-150h521l150 72l43 -38l-84 -100v-694zM1229 1260v-33l-102 -100h-31l-103 100v33l103 103h31z" />
    <glyph glyph-name="f_igrave.liga" unicode="f&#xec;" horiz-adv-x="1213" 
d="M426.5 1267.5q-32.5 -100.5 -32.5 -265.5v-55h521l150 72l43 -38l-84 -100v-694l31 -104l108 -21l-8 -62h-426l-8 62l107 21l31 104v574l-82 110h-383v-675l33 -113l109 -21l-8 -62h-432l-7 62l106 21l34 113v675h-181v76h181q0 150 54.5 278.5t146 204.5t196.5 76
q78 0 131 -39.5t84 -98.5l338 -205l-16 -33l-524 182q-14 27 -34.5 41.5t-52.5 14.5q-93 0 -125.5 -100.5z" />
    <glyph glyph-name="f_j.liga" unicode="fj" horiz-adv-x="1210" 
d="M1108 979l-84 -99v-878q0 -153 -60 -256t-133.5 -155t-152.5 -87l-25 35q81 65 143.5 169.5t62.5 281.5v771l-95 136h-370v-701l33 -113l109 -21l-8 -62h-432l-7 62l106 21l34 113v701h-181v76h181q0 145 61.5 267t170 194t241.5 72q86 0 154 -33.5t110.5 -85.5
t57.5 -107l-113 -140h-38q-26 115 -88.5 178.5t-161.5 63.5q-124 0 -176.5 -105.5t-52.5 -274.5v-29h575l96 45z" />
    <glyph glyph-name="f_k.liga" unicode="fk" horiz-adv-x="1774" 
d="M1744 62l-7 -62h-414l-6 62l92 18l23 74l-222 427l-176 -113v-272l31 -113l109 -21l-8 -62h-431l-8 62l110 21l32 113v989q-4 45 -33.5 90.5t-86 76t-137.5 30.5q-87 0 -133.5 -45t-63 -126.5t-16.5 -208.5v-29h274v-76h-274v-701l33 -113l109 -21l-8 -62h-432l-8 62
l107 21l34 113v701h-181v76h181q0 146 57.5 268t161 193.5t235.5 71.5q122 0 225 -65l164 77l43 -39l-86 -102v-814l407 328l5 91l32 26l208 -177l-34 -35l-59 17l-35 -6l-220 -143l264 -511l69 -70z" />
    <glyph glyph-name="f_t.liga" unicode="ft" horiz-adv-x="1344" 
d="M1261 115l24 -59q-43 -38 -98.5 -60.5t-112.5 -22.5q-59 0 -105 28t-71 79.5t-25 118.5v698h-479v-701l33 -113l109 -21l-8 -62h-432l-7 62l106 21l34 113v701h-181v76h181q0 144 54.5 266.5t148 194.5t205.5 72q73 0 135.5 -27.5t83.5 -77.5l-98 -155h-32
q-26 59 -68.5 91t-98.5 32q-96 0 -130.5 -98.5t-34.5 -268.5v-29h255l211 44l129 355h49v-399h261l-27 -76h-234v-629q0 -72 11.5 -112t36 -57t65.5 -17q50 0 110 33z" />
    <glyph glyph-name="f_y.liga" unicode="fy" horiz-adv-x="1778" 
d="M1759 919l-74 -20l-84 -90l-430 -1099q-39 -103 -114 -154.5t-168 -51.5q-51 0 -95 14t-88 40l68 160l57 8q12 -33 41 -60.5t81 -27.5q55 0 95 41.5t78 137.5l70 178l-338 828l-84 74h-380v-701l33 -113l109 -21l-8 -62h-432l-7 62l106 21l34 113v701h-181v76h181
q0 144 56 266.5t153.5 194.5t214.5 72q73 0 135.5 -27.5t83.5 -77.5l-114 -146h-33q-19 52 -58.5 82.5t-91.5 30.5q-74 0 -114 -49t-53.5 -128t-13.5 -189v-29h761l11 -62l-98 -18l-29 -91l241 -602l238 606l-24 91l-122 16l10 60h373z" />
    <glyph glyph-name="f_yacute.liga" unicode="f&#xfd;" horiz-adv-x="1778" 
d="M1759 919l-74 -20l-84 -90l-430 -1099q-39 -103 -114 -154.5t-168 -51.5q-51 0 -95 14t-88 40l68 160l57 8q12 -33 41 -60.5t81 -27.5q55 0 95 41.5t78 137.5l70 178l-338 828l-84 74h-380v-701l33 -113l109 -21l-8 -62h-432l-7 62l106 21l34 113v701h-181v76h181
q0 144 56 266.5t153.5 194.5t214.5 72q73 0 135.5 -27.5t83.5 -77.5l-114 -146h-33q-19 52 -58.5 82.5t-91.5 30.5q-74 0 -114 -49t-53.5 -128t-13.5 -189v-29h761l11 -62l-98 -18l-29 -91l241 -602l238 606l-24 91l-122 16l10 60h373zM1003 1134l419 254h101l20 -29v-79
l-525 -179z" />
    <glyph glyph-name="f_ycircumflex.liga" unicode="f&#x177;" horiz-adv-x="1778" 
d="M1759 919l-74 -20l-84 -90l-430 -1099q-39 -103 -114 -154.5t-168 -51.5q-51 0 -95 14t-88 40l68 160l57 8q12 -33 41 -60.5t81 -27.5q55 0 95 41.5t78 137.5l70 178l-338 828l-84 74h-380v-701l33 -113l109 -21l-8 -62h-432l-7 62l106 21l34 113v701h-181v76h181
q0 144 56 266.5t153.5 194.5t214.5 72q73 0 135.5 -27.5t83.5 -77.5l-114 -146h-33q-19 52 -58.5 82.5t-91.5 30.5q-74 0 -114 -49t-53.5 -128t-13.5 -189v-29h761l11 -62l-98 -18l-29 -91l241 -602l238 606l-24 91l-122 16l10 60h373zM937 1106l300 304l300 -304l-23 -22
l-277 166l-278 -166z" />
    <glyph glyph-name="f_ydieresis.liga" unicode="f&#xff;" horiz-adv-x="1778" 
d="M1759 919l-74 -20l-84 -90l-430 -1099q-39 -103 -114 -154.5t-168 -51.5q-51 0 -95 14t-88 40l68 160l57 8q12 -33 41 -60.5t81 -27.5q55 0 95 41.5t78 137.5l70 178l-338 828l-84 74h-380v-701l33 -113l109 -21l-8 -62h-432l-7 62l106 21l34 113v701h-181v76h181
q0 144 56 266.5t153.5 194.5t214.5 72q73 0 135.5 -27.5t83.5 -77.5l-114 -146h-33q-19 52 -58.5 82.5t-91.5 30.5q-74 0 -114 -49t-53.5 -128t-13.5 -189v-29h761l11 -62l-98 -18l-29 -91l241 -602l238 606l-24 91l-122 16l10 60h373zM935 1234v33l102 104h31l102 -104v-33
l-102 -100h-31zM1302 1234v33l103 104h31l102 -104v-33l-102 -100h-31z" />
    <glyph glyph-name="f_ygrave.liga" unicode="f&#x1ef3;" horiz-adv-x="1778" 
d="M1759 919l-74 -20l-84 -90l-430 -1099q-39 -103 -114 -154.5t-168 -51.5q-51 0 -95 14t-88 40l68 160l57 8q12 -33 41 -60.5t81 -27.5q55 0 95 41.5t78 137.5l70 178l-338 828l-84 74h-380v-701l33 -113l109 -21l-8 -62h-432l-7 62l106 21l34 113v701h-181v76h181
q0 144 56 266.5t153.5 194.5t214.5 72q73 0 135.5 -27.5t83.5 -77.5l-114 -146h-33q-19 52 -58.5 82.5t-91.5 30.5q-74 0 -114 -49t-53.5 -128t-13.5 -189v-29h761l11 -62l-98 -18l-29 -91l241 -602l238 606l-24 91l-122 16l10 60h373zM1493 1126l-473 165v79l20 29h101
l368 -241z" />
    <glyph glyph-name=".notdef" horiz-adv-x="1214" 
 />
    <glyph glyph-name="glyph1" 
 />
    <glyph glyph-name="uni000D" unicode="&#xd;" horiz-adv-x="446" 
 />
    <glyph glyph-name="space" unicode=" " horiz-adv-x="446" 
 />
    <glyph glyph-name="exclam" unicode="!" horiz-adv-x="640" 
d="M195 1191v59l96 106h62l94 -106v-59l-105 -784h-43zM179 127v36l125 127h33l124 -127v-36l-124 -127h-33z" />
    <glyph glyph-name="quotedbl" unicode="&#x22;" horiz-adv-x="1036" 
d="M190 1193v47l107 116h33l101 -112v-53l-104 -432h-35zM605 1193v47l106 116h34l101 -112v-53l-105 -432h-34z" />
    <glyph glyph-name="numbersign" unicode="#" horiz-adv-x="1349" 
d="M1002 880l-97 -406h237l-19 -81h-237l-94 -393h-91l94 393h-382l-94 -393h-91l94 393h-227l22 81h224l97 406h-230l19 82h231l101 422h91l-101 -422h383l101 422h90l-101 -422h231l-19 -82h-232zM912 880h-383l-97 -406h383z" />
    <glyph glyph-name="dollar" unicode="$" horiz-adv-x="1307" 
d="M949 697q93 -49 158.5 -130.5t65.5 -200.5q0 -118 -58.5 -207t-165 -137.5t-245.5 -48.5v-224h-76v228q-91 11 -171 44t-135 80l-114 -120l-51 25v432l46 11l55 -163q81 -100 172 -154.5t198 -68.5v561q-149 56 -234.5 99.5t-146.5 121.5t-61 198q0 100 55 177.5
t154.5 120.5t227.5 43h5v173h76v-181q135 -25 260 -121l113 119l51 -25v-436l-47 -12l-64 181q-59 81 -142 135t-171 72v-483q152 -60 245 -109zM386.5 986.5q35.5 -45.5 94.5 -79.5t147 -71v462h-5q-129 0 -200.5 -54t-71.5 -152q0 -60 35.5 -105.5zM847.5 90
q66.5 32 105.5 86.5t39 117.5q0 77 -37.5 132.5t-99 93.5t-151.5 74v-536q77 0 143.5 32z" />
    <glyph glyph-name="percent" unicode="%" horiz-adv-x="1615" 
d="M263.5 796q-68.5 45 -104 118t-35.5 154q0 82 35.5 155t104 118t161.5 45t158.5 -45t98.5 -117.5t33 -155.5q0 -82 -33 -154.5t-98.5 -117.5t-158.5 -45t-161.5 45zM376 41l774 1315l70 -41l-774 -1315zM561 886q37 76 37 182q0 99 -37 179t-136 80q-70 0 -111 -42
t-57 -101t-16 -116q0 -103 41.5 -180.5t142.5 -77.5q99 0 136 76zM1038.5 19.5q-68.5 45.5 -104.5 118.5t-36 154q0 82 36 154.5t104.5 117.5t161.5 45t158.5 -44.5t98.5 -117t33 -155.5q0 -82 -33 -155t-98.5 -118t-158.5 -45t-161.5 45.5zM1336 109.5q37 76.5 37 182.5
q0 99 -37 179t-136 80q-70 0 -111.5 -42.5t-57.5 -101t-16 -115.5q0 -103 42 -181t143 -78q99 0 136 76.5z" />
    <glyph glyph-name="ampersand" unicode="&#x26;" horiz-adv-x="1599" 
d="M1408 841l-361 -488l225 -263l127 -28l-11 -62h-276l-176 210q-101 -118 -203.5 -178t-221.5 -60q-105 0 -194 46t-141 127t-52 182q0 92 47 167t125 134.5t190 118.5q-73 91 -120.5 176t-47.5 163q0 84 45.5 152t128.5 107t190 39q97 0 171.5 -31.5t115 -88t40.5 -128.5
q0 -74 -42.5 -136.5t-112 -113.5t-171.5 -108l325 -380l245 330l-26 111l-107 21l8 62h358l8 -62zM589 1298.5q-47 -24.5 -75 -69t-28 -102.5q0 -66 36 -135t112 -157l8 -9q138 71 200 136.5t62 150.5q0 62 -29 109.5t-77.5 74t-105.5 26.5q-56 0 -103 -24.5zM749 142.5
q75 41.5 146 116.5l-364 433q-105 -69 -158 -144t-53 -174q0 -80 35.5 -142t97.5 -96.5t138 -34.5q83 0 158 41.5z" />
    <glyph glyph-name="quotesingle" unicode="'" horiz-adv-x="621" 
d="M190 1193v47l107 116h33l101 -112v-53l-104 -432h-35z" />
    <glyph glyph-name="parenleft" unicode="(" horiz-adv-x="587" 
d="M210.5 0.5q-100.5 243.5 -100.5 521.5q0 184 54.5 360t144.5 321t196 245l29 -28q-83 -89 -148 -234.5t-101 -319t-36 -343.5q0 -178 34 -349.5t98.5 -317.5t152.5 -249l-29 -27q-194 177 -294.5 420.5z" />
    <glyph glyph-name="parenright" unicode=")" horiz-adv-x="587" 
d="M57 -393q88 103 152.5 249t98.5 317.5t34 349.5q0 170 -36 343.5t-101 319t-148 234.5l29 28q106 -100 196 -245t144.5 -321t54.5 -360q0 -278 -100.5 -521.5t-294.5 -420.5z" />
    <glyph glyph-name="asterisk" unicode="*" horiz-adv-x="993" 
d="M258 1296q26 34 68 58q23 13 45.5 20.5t38.5 9.5l50 -241l-18 -10zM534 1143l50 241q16 -2 38.5 -9.5t45.5 -20.5q42 -24 68 -58l-184 -163zM160 1009q-5 24 -5 49t5 49t12 39l233 -78v-20l-233 -78q-7 15 -12 39zM589 1048v20l234 78q16 -41 16 -88t-16 -88z
M371.5 741.5q-22.5 7.5 -45.5 20.5q-42 24 -68 58l184 163l18 -10l-50 -241q-16 2 -38.5 9.5zM534 973l18 10l184 -163q-26 -34 -68 -58q-23 -13 -45.5 -20.5t-38.5 -9.5z" />
    <glyph glyph-name="plus" unicode="+" horiz-adv-x="1133" 
d="M1004 493h-381v-376h-113v376h-381v104h381v376h113v-376h381v-104z" />
    <glyph glyph-name="comma" unicode="," horiz-adv-x="634" 
d="M200 -173q55 27 85.5 63.5t30.5 77.5q0 22 -5 36l-138 113v39l119 121h35q47 -20 83 -70t36 -115q0 -108 -58.5 -189t-171.5 -123z" />
    <glyph glyph-name="hyphen" unicode="-" horiz-adv-x="907" 
d="M171 617h566v-93h-566v93z" />
    <glyph glyph-name="period" unicode="." horiz-adv-x="643" 
d="M181 127v36l124 127h33l125 -127v-36l-125 -127h-33z" />
    <glyph glyph-name="slash" unicode="/" horiz-adv-x="856" 
d="M27 -147l724 1628l78 -36l-725 -1628z" />
    <glyph glyph-name="zero" unicode="0" horiz-adv-x="1336" 
d="M371.5 71.5q-123.5 98.5 -187 260.5t-63.5 347t63.5 346.5t187 260t296.5 98.5t296.5 -98.5t187 -260t63.5 -346.5t-63.5 -347t-187 -260.5t-296.5 -98.5t-296.5 98.5zM874.5 153.5q75.5 98.5 104 239t28.5 286.5t-28.5 286.5t-104 238.5t-206.5 98t-206.5 -98
t-104 -238.5t-28.5 -286.5t28.5 -286.5t104 -239t206.5 -98.5t206.5 98.5z" />
    <glyph glyph-name="one" unicode="1" horiz-adv-x="720" 
d="M92 62l142 20l42 110v845l-35 112h-175v61q120 34 184.5 67t128.5 79h72v-1164l43 -110l142 -20l-8 -62h-529z" />
    <glyph glyph-name="two" unicode="2" horiz-adv-x="1177" 
d="M80 39q29 112 90.5 199.5t133 150.5t184.5 146q116 86 182.5 147t111.5 143.5t45 188.5q0 88 -32.5 153t-94 100t-145.5 35q-77 0 -138.5 -29.5t-96.5 -80t-35 -111.5q0 -39 14 -74l-39 -21l-172 106q66 141 191 216.5t292 75.5q118 0 222.5 -36t172.5 -118.5t68 -213.5
q0 -130 -66.5 -230t-160.5 -169.5t-246 -159.5q-103 -61 -165 -102.5t-111.5 -91.5t-69.5 -107h619l161 187h51l-76 -343h-890v39z" />
    <glyph glyph-name="three" unicode="3" horiz-adv-x="1187" 
d="M880.5 834q97.5 -51 153 -147t55.5 -226q0 -145 -65 -255.5t-178 -171.5t-254 -61q-113 0 -212.5 40.5t-175 104t-123.5 135.5l56 39q75 -100 187 -157t229 -57q102 0 180.5 44t122.5 124t44 186q0 105 -39 184t-114.5 122t-181.5 43q-182 0 -340 -116l-36 64l592 471
h-681l18 203h38l127 -47h689v-93l-546 -426q106 48 233 48q124 0 221.5 -51z" />
    <glyph glyph-name="four" unicode="4" horiz-adv-x="1197" 
d="M897 506v-311l33 -112l142 -21l-7 -62h-510l-8 62l144 21l31 112v311h-636l-37 58l482 792h251l-603 -774h543v292l132 216h43v-508h238v-76h-238z" />
    <glyph glyph-name="five" unicode="5" horiz-adv-x="1205" 
d="M289.5 55.5q-125.5 82.5 -202.5 197.5l56 39q80 -105 183 -160.5t218 -55.5q107 0 189.5 46.5t128.5 130t46 191.5q0 97 -38 169.5t-109.5 112t-169.5 39.5q-111 0 -207.5 -48.5t-161.5 -124.5h-48l-31 38l146 726h564l126 45h59l-35 -202h-668l-107 -522q31 45 92 96
t153 88.5t203 37.5q122 0 217 -50t149 -145t54 -225q0 -146 -66 -261t-182.5 -180t-261.5 -65q-171 0 -296.5 82.5z" />
    <glyph glyph-name="six" unicode="6" horiz-adv-x="1261" 
d="M917.5 879q108.5 -69 173 -187.5t64.5 -259.5q0 -138 -62 -242.5t-167.5 -160.5t-232.5 -56q-156 0 -287 86t-208.5 246.5t-77.5 373.5q0 198 68.5 358.5t197 253.5t300.5 93q154 0 255.5 -70.5t152.5 -167.5l-145 -89l-34 22q5 23 5 45q0 52 -30.5 92t-86.5 62t-129 22
q-118 0 -207.5 -57.5t-138.5 -164t-49 -251.5q0 -87 23 -180q47 142 148 221.5t234 79.5q125 0 233.5 -69zM860.5 99q56.5 31 91 91.5t34.5 144.5q0 99 -45.5 218t-128.5 202.5t-191 83.5q-69 0 -125.5 -37t-89 -106t-32.5 -161q0 -113 49.5 -221.5t133.5 -177t182 -68.5
q65 0 121.5 31z" />
    <glyph glyph-name="seven" unicode="7" horiz-adv-x="1036" 
d="M386 469q106 234 232 402t269 329h-662l-99 -258h-46l41 461h59l164 -47h644v-108q-161 -221 -269.5 -411t-173.5 -400t-65 -437h-200q0 235 106 469z" />
    <glyph glyph-name="eight" unicode="8" horiz-adv-x="1241" 
d="M980 676q80 -56 123.5 -130t43.5 -172q0 -120 -68 -210.5t-191 -140.5t-284 -50q-155 0 -270 45.5t-176.5 127.5t-61.5 191q0 134 95.5 228.5t279.5 159.5q-146 66 -213 151.5t-67 193.5q0 91 53 162t149.5 111.5t222.5 40.5q118 0 214 -34.5t152 -101.5t56 -159
q0 -111 -78.5 -187.5t-182.5 -116.5q123 -53 203 -109zM415 989q35 -47 103.5 -86.5t181.5 -85.5q104 47 164 106.5t60 150.5q0 71 -38.5 122.5t-102.5 77.5t-141 26t-136.5 -25.5t-92.5 -71.5t-33 -106q0 -61 35 -108zM800 87.5q78 32.5 120 93t42 144.5q0 95 -65 166.5
t-151.5 116t-198.5 87.5q-90 -35 -155 -74.5t-108.5 -104t-43.5 -157.5q0 -96 48 -164.5t133 -104t195 -35.5q106 0 184 32.5z" />
    <glyph glyph-name="nine" unicode="9" horiz-adv-x="1261" 
d="M854 1297q131 -86 208.5 -246.5t77.5 -373.5q0 -198 -68.5 -358.5t-197 -253.5t-300.5 -93q-154 0 -255.5 70.5t-152.5 167.5l145 89l34 -22q-5 -23 -5 -45q0 -52 30.5 -92t86.5 -62t129 -22q118 0 207.5 57.5t138.5 164t49 251.5q0 87 -23 180q-47 -142 -148 -221.5
t-234 -79.5q-125 0 -233.5 69t-173 187.5t-64.5 259.5q0 138 62 242.5t167.5 160.5t232.5 56q156 0 287 -86zM764.5 554q56.5 37 89 106t32.5 161q0 113 -49.5 221.5t-133.5 177t-182 68.5q-65 0 -121.5 -31t-91 -91.5t-34.5 -144.5q0 -99 45.5 -218t128.5 -202.5t191 -83.5
q69 0 125.5 37z" />
    <glyph glyph-name="colon" unicode=":" horiz-adv-x="628" 
d="M173 806v36l124 127h33l125 -127v-36l-125 -127h-33zM173 127v36l124 127h33l125 -127v-36l-125 -127h-33z" />
    <glyph glyph-name="semicolon" unicode=";" horiz-adv-x="629" 
d="M177 808v36l124 127h33l125 -127v-36l-125 -127h-33zM196 -173q55 27 85.5 63.5t30.5 77.5q0 22 -5 36l-138 113v39l119 121h35q47 -20 83 -70t36 -115q0 -108 -58.5 -189t-171.5 -123z" />
    <glyph glyph-name="less" unicode="&#x3c;" horiz-adv-x="1234" 
d="M1075 934l-798 -366l798 -366v-126l-961 447v89l961 448v-126z" />
    <glyph glyph-name="equal" unicode="=" horiz-adv-x="1399" 
d="M261 421h876v-104h-876v104zM261 767h876v-104h-876v104z" />
    <glyph glyph-name="greater" unicode="&#x3e;" horiz-adv-x="1234" 
d="M1118 613v-89l-961 -448v126l798 366l-798 366v126z" />
    <glyph glyph-name="question" unicode="?" horiz-adv-x="929" 
d="M358 504q-13 41 -13 79q0 50 18.5 88.5t46 66.5t74.5 66q53 44 85 77.5t54.5 83.5t22.5 118q0 104 -53 161.5t-145 57.5q-62 0 -107 -24t-68 -63t-23 -83q0 -49 27 -83.5t74 -49.5v-42l-83 -95q-70 19 -120 76t-50 143q0 84 48.5 153.5t132 109.5t183.5 40
q104 0 187.5 -41t131 -114.5t47.5 -166.5q0 -73 -29 -128.5t-70 -93.5t-109 -88q-60 -44 -95 -75.5t-59 -74.5t-24 -97q0 -36 11 -94h-53q-29 52 -42 93zM298 127v36l124 127h33l125 -127v-36l-125 -127h-33z" />
    <glyph glyph-name="at" unicode="@" horiz-adv-x="2133" 
d="M548 -263q-206 130 -303.5 330.5t-97.5 413.5q0 231 110.5 438.5t323 336t502.5 128.5q255 0 461.5 -102.5t326 -292.5t119.5 -444q0 -148 -43 -277.5t-137.5 -212t-241.5 -82.5q-113 0 -193 50.5t-91 149.5q-53 -95 -143 -147.5t-192 -52.5q-120 0 -220 70.5t-158 191.5
t-58 267q0 141 55 254.5t152 178.5t217 65q133 0 238.5 -82.5t172.5 -240.5h19l-73 274l31 50l264 -65l-11 -63l-78 -5l-63 -70v-553q0 -93 44.5 -142.5t119.5 -49.5q87 0 154 64.5t104 176.5t37 249q0 237 -112.5 409.5t-298.5 262t-402 89.5q-244 0 -436 -108t-299 -294
t-107 -410q0 -203 90 -387.5t275 -301t454 -116.5q158 0 272.5 35t176.5 78l41 -62q-30 -26 -95.5 -56t-167 -52.5t-227.5 -22.5q-306 0 -512 130zM1172 149q59 51 100 122v391q-52 120 -135.5 179.5t-184.5 59.5q-84 0 -144.5 -41.5t-92 -118.5t-31.5 -181
q0 -127 44.5 -232.5t122 -167.5t172.5 -62q90 0 149 51z" />
    <glyph glyph-name="A" unicode="A" horiz-adv-x="1467" 
d="M1425 62l-8 -62h-527l-6 60l136 27l32 70l-115 300h-504l-117 -303l45 -70l159 -24l-5 -60h-466l-7 62l95 20l91 70l460 1179l89 58l486 -1257l75 -58zM907 533l-222 577l-222 -577h444z" />
    <glyph glyph-name="B" unicode="B" horiz-adv-x="1335" 
d="M86 62l141 20l34 113v965l-34 115l-141 19l7 62h562q231 0 344.5 -68.5t113.5 -207.5q0 -113 -91 -178t-246 -75q136 -12 238.5 -65.5t159 -140.5t56.5 -197q0 -215 -149.5 -319.5t-456.5 -104.5h-531zM601 862q161 0 239 56t78 170q0 91 -67.5 141.5t-190.5 50.5h-78
l-125 -52v-366h144zM800 108q96 27 161.5 103t65.5 215q0 171 -112 265.5t-318 94.5h-140v-659l125 -51q122 5 218 32z" />
    <glyph glyph-name="C" unicode="C" horiz-adv-x="1444" 
d="M457.5 67q-156.5 94 -247.5 257t-91 361q0 197 84.5 356.5t233 251t332.5 91.5q85 0 167.5 -21t149.5 -57l137 95h57l16 -459h-64q-70 170 -186.5 263t-261.5 93q-114 0 -221 -59t-176 -180.5t-69 -299.5q0 -185 73 -332.5t202.5 -231.5t290.5 -84q122 0 224 50.5
t179 149.5l50 -36q-95 -145 -233.5 -223.5t-301.5 -78.5q-188 0 -344.5 94z" />
    <glyph glyph-name="D" unicode="D" horiz-adv-x="1513" 
d="M84 62l141 20l34 113v967l-34 113l-128 19l8 62h611q199 0 351.5 -82.5t237 -233t84.5 -347.5q0 -217 -79.5 -372.5t-230.5 -238t-361 -82.5h-627zM737 76q140 0 241.5 73t155 210t53.5 326q0 150 -63 288t-167 222.5t-220 84.5h-197l-85 -126v-942l122 -136h160z" />
    <glyph glyph-name="E" unicode="E" horiz-adv-x="1456" 
d="M84 62l141 20l34 113v970l-34 110l-126 19l8 62h1189v-395l-43 -11l-43 165l-193 165h-562v-416h296l94 39l45 146l56 -8v-426l-56 -8l-45 142l-88 39h-302v-712h551l193 165l40 168l45 -12v-397h-1193z" />
    <glyph glyph-name="F" unicode="F" horiz-adv-x="1372" 
d="M85 62l142 20l31 113v967l-31 113l-128 19l8 62h1189v-294l-43 -11l-41 128l-236 101h-521v-414l297 -1l94 44l45 144l56 -8v-428l-56 -8l-45 142l-88 39h-303v-595l33 -113l140 -20l-6 -62h-529z" />
    <glyph glyph-name="G" unicode="G" horiz-adv-x="1550" 
d="M457 67q-157 94 -248 257t-91 361q0 195 84.5 355t233.5 252t332 92q85 0 168 -21t149 -57l137 95h57l16 -459h-62q-70 169 -187 262.5t-262 93.5q-114 0 -221.5 -59t-176.5 -180.5t-69 -299.5q0 -185 73 -332.5t202.5 -231.5t290.5 -84q86 0 152.5 23t131.5 74v325
l-33 111l-129 21l9 63h466l8 -63l-128 -21l-29 -111v-254q-92 -147 -229 -226.5t-300 -79.5q-188 0 -345 94z" />
    <glyph glyph-name="H" unicode="H" horiz-adv-x="1560" 
d="M86 62l142 20l31 113v967l-31 113l-142 19l8 62h530l8 -62l-142 -19l-33 -113v-290h645v290l-33 113l-142 19l8 62h529l8 -62l-142 -19l-32 -115v-965l32 -113l144 -20l-8 -62h-508l-8 62l119 20l33 113v601h-647v-601l33 -113l120 -20l-9 -62h-505z" />
    <glyph glyph-name="I" unicode="I" horiz-adv-x="717" 
d="M87 62l142 20l31 113v967l-31 111l-142 21l8 62h529l8 -62l-142 -21l-33 -111v-967l33 -113l142 -20l-8 -62h-529z" />
    <glyph glyph-name="J" unicode="J" horiz-adv-x="677" 
d="M-16 -461q60 46 113.5 105t98 167.5t44.5 260.5v1094l-31 109l-140 19l8 62h523l8 -62l-140 -19l-31 -109v-1081q0 -184 -74.5 -304t-162.5 -177t-189 -100z" />
    <glyph glyph-name="K" unicode="K" horiz-adv-x="1520" 
d="M1461 62l-8 -62h-556l-8 62l142 20l25 93l-326 691l-273 -212v-459l33 -113l142 -20l-8 -62h-529l-8 62l142 20l31 113v961l-31 119l-142 19l8 62h529l8 -62l-142 -19l-33 -119v-395l580 445l-20 69l-144 19l10 62h519l8 -62l-120 -28l-84 -38l-321 -245l387 -812l80 -87
z" />
    <glyph glyph-name="L" unicode="L" horiz-adv-x="1369" 
d="M93 62l136 21l31 112v967l-31 113l-142 19l8 62h529l8 -62l-142 -19l-33 -107v-974l48 -118h568l149 328l64 -5l-51 -399h-1134z" />
    <glyph glyph-name="M" unicode="M" horiz-adv-x="1775" 
d="M1546 82l143 -20l-8 -62h-516l-8 62l129 20l31 113v987l-452 -931l-45 -26l-470 849v-879l27 -113l127 -20l-8 -62h-399l-8 62l138 20l33 110v972l-33 111l-138 19l8 62h329l470 -853l417 853h368l8 -62l-143 -19l-32 -113v-967z" />
    <glyph glyph-name="N" unicode="N" horiz-adv-x="1502" 
d="M1434 1294l-138 -19l-33 -111v-1164h-41l-872 1065v-870l25 -113l127 -20l-8 -62h-397l-9 62l137 20l36 110v972l-36 111l-137 19l9 62h285l791 -964v770l-27 113l-126 19l9 62h397z" />
    <glyph glyph-name="O" unicode="O" horiz-adv-x="1572" 
d="M465.5 62.5q-157.5 89.5 -252 251t-94.5 369.5q0 192 82 352.5t229.5 254.5t334.5 94q183 0 340.5 -89.5t252 -251.5t94.5 -370q0 -192 -82 -352t-229.5 -254t-334.5 -94q-183 0 -340.5 89.5zM1086 142.5q85 58.5 131 167t46 254.5q0 193 -76 355.5t-208 257.5t-294 95
q-115 0 -200 -59t-131 -168t-46 -255q0 -193 76.5 -354.5t209 -256.5t293.5 -95q114 0 199 58.5z" />
    <glyph glyph-name="P" unicode="P" horiz-adv-x="1348" 
d="M1144 1267.5q118 -88.5 118 -261.5q0 -113 -53 -192.5t-153.5 -120.5t-241.5 -41h-357v-457l34 -113l181 -20l-8 -62h-571l-7 62l141 20l34 113v967l-34 113l-141 19l7 62h701q232 0 350 -88.5zM917 762q71 34 109 97.5t38 150.5q0 84 -38 144.5t-109 93t-170 32.5h-163
l-127 -50v-502h290q99 0 170 34z" />
    <glyph glyph-name="Q" unicode="Q" horiz-adv-x="1574" 
d="M1247.5 -164.5q91.5 37.5 144.5 100.5l40 -26q-44 -59 -111.5 -111.5t-150 -85t-167.5 -32.5q-55 0 -105.5 11t-110.5 32q-59 20 -107 30t-101 10q-112 0 -189 -72l-127 92v43l335 178q-137 43 -245.5 138t-171 234t-62.5 306q0 192 82 352.5t229.5 254.5t334.5 94
q183 0 340.5 -89.5t252 -251.5t94.5 -370q0 -192 -82 -352t-229.5 -254t-334.5 -94q-56 0 -110 9l-207 -109l16 -10q59 26 128 26q51 0 94.5 -11t105.5 -33q65 -23 114 -35t108 -12q101 0 192.5 37.5zM384.5 435.5q76.5 -161.5 209 -256.5t293.5 -95q114 0 199 58.5t131 167
t46 254.5q0 193 -76 355.5t-208 257.5t-294 95q-115 0 -200 -59t-131 -168t-46 -255q0 -193 76.5 -354.5z" />
    <glyph glyph-name="R" unicode="R" horiz-adv-x="1494" 
d="M1447 62l-3 -62h-387l-354 652h-246v-457l32 -113l142 -20l-8 -62h-530l-7 62l141 20l34 113v967l-34 113l-141 19l7 62h710q148 0 254 -41.5t162 -119.5t56 -186q0 -117 -64 -196.5t-171 -119t-237 -41.5l162 -99l270 -460zM457 728h306q93 0 164 34.5t110 97.5t39 146
t-38 145t-110 95.5t-171 33.5h-169l-131 -54v-498z" />
    <glyph glyph-name="S" unicode="S" horiz-adv-x="1307" 
d="M495 7.5q-103 34.5 -173 94.5l-114 -121l-51 25v432l46 11l55 -164q90 -114 200.5 -170.5t229.5 -56.5q90 0 159.5 32t107 88t37.5 128q0 83 -50 140.5t-123 93.5t-201 85q-144 55 -231 100t-148 121t-61 191q0 107 53 185.5t144.5 120t202.5 41.5q105 0 197 -32.5
t181 -96.5l113 119l51 -25v-436l-47 -12l-64 181q-78 105 -184.5 160.5t-220.5 55.5q-77 0 -136 -24.5t-92 -70t-33 -105.5q0 -73 47.5 -124.5t118 -86.5t193.5 -82q153 -59 246 -108.5t159 -133t66 -207.5q0 -113 -57 -200t-161 -135t-241 -48q-116 0 -219 34.5z" />
    <glyph glyph-name="T" unicode="T" horiz-adv-x="1448" 
d="M446 62l142 20l33 113v1085h-266l-193 -104l-43 -127l-43 11v296h1296v-296l-42 -11l-43 127l-193 104h-276v-1085l31 -113l142 -20l-8 -62h-529z" />
    <glyph glyph-name="U" unicode="U" horiz-adv-x="1492" 
d="M472.5 34.5q-118.5 61.5 -183 183.5t-64.5 300v644l-31 112l-128 20l8 62h499v-62l-119 -20l-32 -112v-496q0 -181 24 -301.5t105.5 -198t244.5 -77.5q209 0 300 107.5t91 321.5v646l-33 110l-132 20l7 62h389l8 -62l-134 -20l-28 -112v-687q0 -244 -129 -373t-383 -129
q-161 0 -279.5 61.5z" />
    <glyph glyph-name="V" unicode="V" horiz-adv-x="1455" 
d="M1414 1302l-85 -22l-105 -89l-448 -1191h-52l-518 1210l-81 70l-84 22l3 54h489l10 -62l-94 -17l-27 -90l380 -877l332 883l-25 84l-94 17l10 62h385z" />
    <glyph glyph-name="W" unicode="W" horiz-adv-x="2232" 
d="M2191 1302l-86 -22l-105 -89l-447 -1191h-55l-383 903l-337 -903h-54l-518 1210l-81 70l-84 22l3 54h489l10 -62l-94 -17l-27 -88l378 -884l266 713l-84 192l-83 70l-84 22l4 54h492l10 -62l-94 -17l-29 -86l377 -887l336 889l-25 84l-94 17l10 62h385z" />
    <glyph glyph-name="X" unicode="X" horiz-adv-x="1436" 
d="M1383 54l-4 -54h-512l-9 62l95 18l25 77l-290 411h-33l-275 -368l73 -120l93 -18l-9 -62h-472l-3 54l82 22l77 58l407 539l-401 563l-60 44l-84 22l4 54h518l10 -62l-96 -17l-36 -75l251 -357h32l264 367l-47 65l-90 17l10 62h402l4 -54l-84 -22l-85 -62l-338 -466
l437 -618l61 -58z" />
    <glyph glyph-name="Y" unicode="Y" horiz-adv-x="1320" 
d="M400 62l143 20l33 112v456l-370 564l-81 66l-84 22l3 54h510l10 -62l-93 -17l-28 -92l271 -412h17l262 412l-30 92l-94 17l10 62h396l5 -54l-84 -22l-101 -91l-323 -518v-477l33 -112l142 -20l-7 -62h-532z" />
    <glyph glyph-name="Z" unicode="Z" horiz-adv-x="1299" 
d="M1175 1218l-899 -1142h613l190 167l43 166l45 -12v-397h-1037v191l855 1089h-534l-193 -165l-43 -167l-45 11v397h1005v-138z" />
    <glyph glyph-name="bracketleft" unicode="[" horiz-adv-x="657" 
d="M210 1438h393v-77h-300v-1512h300v-77h-393v1666z" />
    <glyph glyph-name="backslash" unicode="\" horiz-adv-x="922" 
d="M99 1445l78 36l724 -1628l-77 -36z" />
    <glyph glyph-name="bracketright" unicode="]" horiz-adv-x="657" 
d="M52 -228v77h300v1512h-300v77h393v-1666h-393z" />
    <glyph glyph-name="asciicircum" unicode="^" horiz-adv-x="965" 
d="M706 792l-223 435l-223 -435h-127l296 572h109l294 -572h-126z" />
    <glyph glyph-name="underscore" unicode="_" horiz-adv-x="1575" 
d="M242 -142h1092v-97h-1092v97z" />
    <glyph glyph-name="grave" unicode="`" horiz-adv-x="716" 
d="M88 1280v79l20 29h100l420 -254l-16 -33z" />
    <glyph glyph-name="a" unicode="a" horiz-adv-x="1246" 
d="M311.5 44q-99.5 71 -157 193t-57.5 266q0 141 54.5 254.5t151 178t218.5 64.5q142 0 244 -86.5t169 -236.5h18l-74 274l31 50l265 -69l-12 -62l-78 -6l-63 -70v-549q0 -90 39 -138.5t112 -48.5l-10 -69q-31 -8 -68 -8q-87 0 -149.5 51t-76.5 137q-49 -90 -140.5 -143
t-195.5 -53q-121 0 -220.5 71zM757.5 150q62.5 52 98.5 121v394q-50 108 -132 172t-185 64q-83 0 -144 -43t-94 -122t-33 -185q0 -126 44 -229.5t120.5 -163.5t171.5 -60q91 0 153.5 52z" />
    <glyph glyph-name="b" unicode="b" horiz-adv-x="1214" 
d="M493.5 15q-88.5 42 -165.5 121l-114 -136h-40v1241l-155 95v43l115 5l249 116l42 -38l-85 -102v-563q135 203 340 203q117 0 218 -61t161 -174t60 -260q0 -145 -59 -267t-161 -193.5t-224 -71.5q-93 0 -181.5 42zM824.5 104.5q62.5 44.5 96.5 126t34 191.5
q0 128 -44.5 231.5t-122 162.5t-174.5 59q-103 0 -165 -61t-109 -156v-284q65 -160 147.5 -237t189.5 -77q85 0 147.5 44.5z" />
    <glyph glyph-name="c" unicode="c" horiz-adv-x="1096" 
d="M326.5 40q-109.5 67 -171.5 185t-62 265q0 145 61.5 261t170 182.5t243.5 66.5q101 0 193 -36.5t161 -103.5t102 -153l-174 -115l-40 23q8 28 8 63q0 68 -33 121.5t-93.5 83.5t-141.5 30q-90 0 -156.5 -42t-103 -119.5t-36.5 -179.5q0 -119 44 -227t130.5 -176t207.5 -68
q79 0 140 25.5t104.5 64.5t88.5 95l64 -46q-82 -126 -202.5 -196.5t-257.5 -70.5t-246.5 67z" />
    <glyph glyph-name="d" unicode="d" horiz-adv-x="1231" 
d="M320.5 43.5q-104.5 70.5 -165.5 191t-61 262.5q0 140 58 255t158 181.5t221 66.5q96 0 167.5 -32t136.5 -81h33v354l-156 94v42l115 7l250 116l42 -39l-86 -101v-1115q0 -86 38.5 -135.5t111.5 -56.5l-10 -68q-25 -4 -55 -4q-97 0 -161 49.5t-77 136.5
q-55 -86 -142.5 -140t-189.5 -54q-123 0 -227.5 70.5zM755 145q70 47 113 126v359q-65 133 -147.5 208t-196.5 75q-80 0 -140.5 -40.5t-93.5 -115t-33 -173.5q0 -133 46 -244.5t125 -176.5t175 -65q82 0 152 47z" />
    <glyph glyph-name="e" unicode="e" horiz-adv-x="1120" 
d="M1035 240q-82 -126 -202.5 -196.5t-257.5 -70.5t-246.5 67.5t-171.5 186t-62 267.5q0 146 60 261.5t166.5 180t242.5 64.5q133 0 235 -60t160 -170t62 -256h-762q11 -111 58 -205t128 -151t192 -57q80 0 141 25.5t104.5 64.5t88.5 95zM386.5 874.5
q-61.5 -38.5 -95.5 -111.5t-35 -174h577q-22 153 -101 238.5t-200 85.5q-84 0 -145.5 -38.5z" />
    <glyph glyph-name="f" unicode="f" horiz-adv-x="689" 
d="M89 62l106 21l34 113v701h-181v76h181q0 144 56 266.5t153.5 194.5t214.5 72q69 0 127 -27.5t78 -77.5l-115 -146h-32q-17 52 -53 82.5t-83 30.5q-74 0 -114 -49t-53.5 -128t-13.5 -189v-29h274v-76h-274v-701l33 -113l109 -21l-8 -62h-432z" />
    <glyph glyph-name="g" unicode="g" horiz-adv-x="1223" 
d="M348 -464.5q-84 31.5 -134 76t-89 100.5v60l183 31q24 -96 95.5 -152.5t171.5 -56.5q136 0 208 101t72 274v181q-51 -82 -139 -129.5t-188 -47.5q-117 0 -216 70.5t-157 192t-58 268.5q0 140 54.5 253.5t150.5 178t214 64.5q144 0 245.5 -85t172.5 -238h17l-101 274
l29 45l294 -64l-12 -62l-140 -9v-877q0 -233 -121 -356.5t-348 -123.5q-120 0 -204 31.5zM757.5 150q63.5 52 97.5 121v394q-50 108 -132 172t-183 64q-84 0 -145.5 -43t-94 -121t-32.5 -183q0 -128 43.5 -232t120 -164t171.5 -60q91 0 154.5 52z" />
    <glyph glyph-name="h" unicode="h" horiz-adv-x="1154" 
d="M1107 62l-8 -62h-430l-8 62l108 20l32 113v441q0 73 -11 125t-48 86t-109 34q-89 0 -157 -55.5t-117 -140.5v-489l31 -113l109 -21l-7 -62h-428l-8 62l107 21l31 113v1045l-155 95v43l114 5l250 116l42 -38l-86 -102v-557q144 197 343 197q128 0 196.5 -78.5t68.5 -236.5
v-490l33 -113z" />
    <glyph glyph-name="i" unicode="i" horiz-adv-x="590" 
d="M84 62l107 21l31 104v574l-153 91v43l113 8l247 115l42 -39l-83 -99v-693l31 -104l107 -21l-8 -62h-427zM174 1233v34l102 103h31l102 -103v-34l-102 -100h-31z" />
    <glyph glyph-name="j" unicode="j" horiz-adv-x="553" 
d="M-4 -461q206 163 206 451v771l-154 91v43l113 8l248 115l43 -39l-84 -99v-878q0 -153 -60 -256t-133.5 -155t-153.5 -87zM145 1233v34l102 103h31l102 -103v-34l-102 -100h-31z" />
    <glyph glyph-name="k" unicode="k" horiz-adv-x="1099" 
d="M1070 62l-8 -62h-426l-8 62l107 22l22 70l-222 427l-176 -113v-272l31 -113l109 -21l-7 -62h-428l-8 62l107 21l31 113v1045l-155 95v43l114 5l250 116l42 -38l-86 -102v-799l407 328l5 93l32 26l208 -177l-34 -35l-59 17l-35 -6l-222 -143l267 -511l68 -70z" />
    <glyph glyph-name="l" unicode="l" horiz-adv-x="556" 
d="M56 62l107 21l31 113v1045l-155 95v43l114 5l250 116l42 -38l-86 -102v-1164l31 -113l109 -21l-7 -62h-428z" />
    <glyph glyph-name="m" unicode="m" horiz-adv-x="1674" 
d="M1628 62l-8 -62h-422l-8 62l93 24l33 110v446q0 83 -8.5 133.5t-37.5 80t-86 29.5q-137 0 -249 -207v-482l31 -113l107 -21l-8 -62h-412l-8 62l93 24l32 110v438q0 85 -9 137t-38.5 83t-89.5 31q-66 0 -128 -52t-117 -156v-481l34 -113l106 -21l-7 -62h-431l-7 62l107 21
l33 113v666l-138 10l-14 62l302 67l29 -47l-94 -261h14q80 147 167 227t199 80q208 0 236 -214q63 102 142 158t169 56q123 0 184.5 -72t61.5 -227v-505l34 -113z" />
    <glyph glyph-name="n" unicode="n" horiz-adv-x="1184" 
d="M82 62l107 20l33 113v666l-140 9l-12 62l302 66l29 -47l-91 -256h12q162 305 410 305q128 0 196.5 -78.5t68.5 -236.5v-490l32 -113l108 -20l-8 -62h-430l-8 62l108 20l32 113v441q0 73 -11 125t-48 86t-109 34q-90 0 -158.5 -56.5t-117.5 -142.5v-487l34 -113l106 -20
l-7 -62h-431z" />
    <glyph glyph-name="o" unicode="o" horiz-adv-x="1157" 
d="M335.5 38.5q-112.5 65.5 -177.5 183.5t-65 268q0 144 60.5 260.5t169.5 183t248 66.5q138 0 250.5 -65.5t177.5 -183.5t65 -268q0 -144 -60.5 -260.5t-170 -183t-248.5 -66.5q-137 0 -249.5 65.5zM779.5 108q58.5 41 91 116.5t32.5 175.5q0 131 -53.5 248t-143.5 187.5
t-193 70.5q-77 0 -136 -41t-91.5 -116.5t-32.5 -175.5q0 -131 54 -248t144 -187.5t193 -70.5q77 0 135.5 41z" />
    <glyph glyph-name="p" unicode="p" horiz-adv-x="1234" 
d="M115 -458l86 102v1152l-62 66l-79 8l-11 62l268 66l32 -47l-74 -283h19q78 174 169.5 253t216.5 79q126 0 232 -70t167.5 -190.5t61.5 -265.5q0 -141 -58.5 -255.5t-158 -180t-218.5 -65.5q-98 0 -185.5 42t-154.5 111v-367l156 -94v-38l-115 -6l-249 -117zM848 100
q62 40 96.5 116t34.5 183q0 125 -46 234.5t-125 175t-172 65.5q-97 0 -164 -65t-106 -153v-282q59 -154 141.5 -234t195.5 -80q83 0 145 40z" />
    <glyph glyph-name="q" unicode="q" horiz-adv-x="1209" 
d="M784 -458l85 102v504q-136 -175 -319 -175q-123 0 -228.5 70.5t-167 190.5t-61.5 262q0 140 58 255.5t158.5 182t221.5 66.5q112 0 197 -45t166 -125l102 143h38v-1214l156 -94v-38l-114 -6l-250 -117zM752 143.5q67 44.5 117 123.5v350q-61 129 -143.5 211t-201.5 82
q-80 0 -140 -40t-93 -113.5t-33 -172.5q0 -133 46 -244t125.5 -176t174.5 -65q81 0 148 44.5z" />
    <glyph glyph-name="r" unicode="r" horiz-adv-x="846" 
d="M82 62l107 20l33 113v666l-140 9l-12 62l306 66l29 -47l-97 -256h19q166 305 346 305q79 0 137 -53l-91 -168h-54q-41 64 -103 64q-43 0 -85 -39t-90 -130v-479l34 -113l106 -20l-7 -62h-431z" />
    <glyph glyph-name="s" unicode="s" horiz-adv-x="999" 
d="M379 -1q-75 26 -125 67l-82 -85l-47 23v321l47 11l41 -120q123 -162 308 -162q94 0 151 41.5t57 116.5q0 59 -35 99t-87 64.5t-142 56.5q-104 36 -167 67.5t-107.5 87.5t-44.5 143t42.5 148t112 91.5t148.5 30.5q137 0 268 -85l79 80l47 -24v-325l-46 -12l-47 138
q-49 65 -122.5 106t-160.5 41q-84 0 -134 -38.5t-50 -104.5q0 -54 34 -90.5t85 -60t140 -54.5q108 -37 174.5 -70t113.5 -91t47 -148q0 -88 -43.5 -153.5t-120.5 -100.5t-173 -35q-86 0 -161 26z" />
    <glyph glyph-name="t" unicode="t" horiz-adv-x="664" 
d="M294 1q-46 28 -71.5 79.5t-25.5 118.5v689l-163 50v35l145 61l123 338h60v-399h257l-27 -76h-230v-629q0 -72 11.5 -112t36 -57t65.5 -17q51 0 111 33l23 -59q-43 -38 -98 -60.5t-112 -22.5q-59 0 -105 28z" />
    <glyph glyph-name="u" unicode="u" horiz-adv-x="1165" 
d="M273.5 66q-80.5 93 -80.5 275v420l-154 91v43l114 8l247 115l42 -39l-83 -99v-504q0 -148 46.5 -216t143.5 -68q78 0 141 43.5t105 131.5v494l-154 91v43l112 8l247 115l43 -39l-83 -99v-639q0 -88 41 -137t118 -51l-9 -68q-35 -5 -62 -5q-95 0 -156 49.5t-76 143.5
q-51 -93 -131.5 -146.5t-191.5 -53.5q-139 0 -219.5 93z" />
    <glyph glyph-name="v" unicode="v" horiz-adv-x="1093" 
d="M1073 919l-73 -23l-81 -85l-333 -811h-77l-333 823l-84 73l-72 23l2 54h455l8 -62l-96 -19l-31 -89l231 -595l244 597l-41 88l-118 18l10 62h387z" />
    <glyph glyph-name="w" unicode="w" horiz-adv-x="1666" 
d="M1647 918l-76 -21l-83 -85l-333 -812h-80l-226 622l-260 -622h-80l-327 823l-88 74l-76 22l4 54h461l10 -62l-97 -18l-31 -90l230 -589l217 514l-47 113l-66 56l-85 22l4 54h473l9 -62l-114 -16l-33 -91l209 -587l240 586l-41 93l-118 15l9 62h391z" />
    <glyph glyph-name="x" unicode="x" horiz-adv-x="1166" 
d="M37 58l80 22l106 86l279 321l-253 303l-115 103l-72 26l4 54h453l10 -62l-76 -18l-49 -62l174 -212h37l165 186l-10 92l-89 14l10 62h400l5 -54l-88 -22l-102 -86l-254 -272l294 -368l105 -88l80 -25l-5 -58h-459l-10 62l96 19l19 71l-196 243h-39l-191 -233l25 -78
l88 -22l-10 -62h-409z" />
    <glyph glyph-name="y" unicode="y" horiz-adv-x="1098" 
d="M1079 919l-74 -20l-84 -90l-430 -1099q-39 -103 -114 -154.5t-168 -51.5q-51 0 -95 14t-88 40l68 160l57 8q12 -33 41 -60.5t81 -27.5q55 0 95 41.5t78 137.5l70 178l-338 828l-84 74l-76 22l4 54h453l11 -62l-98 -18l-29 -91l241 -602l238 606l-24 91l-122 16l10 60h373
z" />
    <glyph glyph-name="z" unicode="z" horiz-adv-x="1046" 
d="M97 142l650 755h-327l-194 -169l-31 -133l-45 12v366h790v-95l-695 -802h405l194 169l32 136l44 -11v-370h-823v142z" />
    <glyph glyph-name="braceleft" unicode="{" horiz-adv-x="620" 
d="M292.5 608.5q-45.5 -52.5 -78.5 -71t-39 -22.5q5 -3 48 -27t79 -82.5t36 -135.5v-425q0 -90 16 -139.5t51.5 -69.5t99.5 -20h72v-46h-110q-128 0 -193.5 61t-65.5 180v427q0 118 -42.5 178t-126.5 76v45q84 17 126.5 76.5t42.5 178.5v426q0 120 65.5 181t193.5 61h110
v-47h-72q-64 0 -99.5 -20t-51.5 -69t-16 -139v-426q0 -98 -45.5 -150.5z" />
    <glyph glyph-name="bar" unicode="|" horiz-adv-x="613" 
d="M262 1557h89v-1946h-89v1946z" />
    <glyph glyph-name="braceright" unicode="}" horiz-adv-x="620" 
d="M452.5 613.5q42.5 -59.5 126.5 -76.5v-45q-84 -16 -126.5 -76t-42.5 -178v-427q0 -119 -65.5 -180t-193.5 -61h-110v46h72q64 0 99.5 20t51.5 69.5t16 139.5v425q0 77 31.5 128t48 63t83.5 54q-6 4 -49 28t-78.5 81.5t-35.5 134.5v426q0 90 -16 139t-51.5 69t-99.5 20
h-72v47h110q128 0 193.5 -61t65.5 -181v-426q0 -119 42.5 -178.5z" />
    <glyph glyph-name="asciitilde" unicode="~" horiz-adv-x="1424" 
d="M322 446.5q-80 39.5 -125 93.5l55 87q102 -111 241 -111q51 0 92 14.5t100 44.5q68 34 120 51.5t122 17.5q88 0 168 -39.5t126 -92.5l-55 -88q-46 50 -106.5 80.5t-134.5 30.5q-51 0 -92 -14.5t-100 -44.5q-69 -34 -120.5 -51.5t-121.5 -17.5q-89 0 -169 39.5z" />
    <glyph glyph-name="uni00A0" unicode="&#xa0;" horiz-adv-x="446" 
 />
    <glyph glyph-name="exclamdown" unicode="&#xa1;" horiz-adv-x="640" 
d="M335 973l124 -127v-36l-124 -127h-33l-125 127v36l125 127h33zM340 566l105 -784v-59l-94 -106h-62l-96 106v59l104 784h43z" />
    <glyph glyph-name="cent" unicode="&#xa2;" horiz-adv-x="1193" 
d="M872 48q-115 -70 -247 -75v-183h-76v186q-123 14 -219 84t-150 182t-54 248q0 135 54.5 246t151 180t217.5 81v176h76v-174q96 -4 183 -41.5t152.5 -102.5t97.5 -148l-174 -115l-40 23q8 28 8 63q0 62 -27.5 112t-79 82t-120.5 39v-807q21 -3 44 -3q80 0 140.5 25.5
t104 64.5t88.5 95l64 -46q-79 -122 -194 -192zM317.5 383q29.5 -92 88.5 -162t143 -100v790q-80 -8 -139 -52t-90.5 -118t-31.5 -169q0 -97 29.5 -189z" />
    <glyph glyph-name="sterling" unicode="&#xa3;" horiz-adv-x="1360" 
d="M1232 177q-66 -89 -150.5 -146.5t-197.5 -57.5q-50 0 -91 11.5t-94 34.5q-51 21 -88 32t-82 11q-65 0 -115.5 -21t-78.5 -41h-97l-53 103q101 76 159.5 181t58.5 238q0 59 -17 120h-230v86h198l-13 29q-31 69 -46.5 119.5t-15.5 115.5q0 113 57 202.5t156.5 139.5
t222.5 50q155 0 274.5 -76t188.5 -218l-177 -109l-33 21q7 29 7 64q0 61 -30 115.5t-86 87.5t-129 33q-79 0 -135 -38.5t-84 -104t-28 -145.5q0 -62 14.5 -110t44.5 -116q20 -46 26 -60h419v-86h-392q8 -42 8 -84q0 -132 -66 -231t-191 -198l4 -7q41 31 102.5 52.5
t123.5 21.5q54 0 94.5 -13t97.5 -40q53 -26 92 -39t90 -13q62 0 121 23t118 89z" />
    <glyph glyph-name="currency" unicode="&#xa4;" horiz-adv-x="1242" 
d="M1081.5 434q-33.5 -84 -94.5 -152l101 -99l-58 -59l-103 101q-65 -51 -144 -79.5t-164 -28.5t-164 28.5t-144 80.5l-103 -102l-58 59l102 100q-60 67 -93 151t-33 177q0 92 32.5 176t91.5 151l-102 103l58 58l103 -103q65 52 144.5 80.5t165.5 28.5q89 0 171 -30.5
t148 -86.5l101 102l58 -59l-101 -101q57 -66 88 -147.5t31 -171.5q0 -93 -33.5 -177zM278 413.5q54 -91.5 145 -145.5t196 -54q107 0 199 54t146 145.5t54 197.5t-54 197.5t-146 145.5t-199 54q-105 0 -196 -54t-145 -145.5t-54 -197.5t54 -197.5z" />
    <glyph glyph-name="yen" unicode="&#xa5;" horiz-adv-x="1491" 
d="M1179 1189l-223 -358h294v-76h-342l-52 -84v-114h394v-76h-394v-287l33 -112l143 -20l-8 -62h-530l-8 62l143 20l32 112v287h-431v76h431v93l-69 105h-362v76h312l-251 383l-81 66l-84 22l4 54h510l10 -62l-93 -17l-28 -92l271 -412h15l263 412l-31 92l-94 17l11 62h396
l4 -54l-84 -22z" />
    <glyph glyph-name="brokenbar" unicode="&#xa6;" horiz-adv-x="613" 
d="M262 1557h89v-810h-89v810zM262 420h89v-809h-89v809z" />
    <glyph glyph-name="section" unicode="&#xa7;" horiz-adv-x="1358" 
d="M1131 -96q0 -90 -46 -164.5t-131 -118t-198 -43.5q-181 0 -350 124l-110 -115l-49 26v422l47 12l62 -174q79 -101 177.5 -155t199.5 -54q71 0 124.5 24t82.5 66.5t29 98.5q0 73 -47.5 125.5t-118 88.5t-191.5 85q-144 58 -230.5 104.5t-147.5 122t-61 183.5q0 89 41 165
t108 135q-95 93 -95 218q0 93 49 168t135 117t195 42q91 0 176 -31t169 -93l112 114l48 -25v-423l-46 -11l-63 173q-77 102 -176 156t-200 54q-72 0 -125.5 -24t-82.5 -67t-29 -99q0 -73 47.5 -125.5t118.5 -89t192 -84.5q142 -57 229 -104t148 -122t61 -183q0 -89 -41 -165
t-107 -135q94 -94 94 -219zM339.5 509.5q51.5 -56.5 127.5 -95t206 -91.5q115 -47 186.5 -81t129.5 -78q82 84 82 178q0 76 -51.5 132.5t-127 95t-206.5 92.5q-117 48 -187.5 81.5t-128.5 77.5q-82 -82 -82 -178q0 -77 51.5 -133.5z" />
    <glyph glyph-name="dieresis" unicode="&#xa8;" horiz-adv-x="779" 
d="M88 1234v33l102 104h31l102 -104v-33l-102 -100h-31zM455 1234v33l103 104h31l102 -104v-33l-102 -100h-31z" />
    <glyph glyph-name="copyright" unicode="&#xa9;" horiz-adv-x="1725" 
d="M508.5 67.5q-162.5 94.5 -257.5 256.5t-95 355q0 194 95 356t257 256t356 94q193 0 355 -94t256 -256t94 -356q0 -193 -94 -355t-256 -256.5t-355 -94.5t-355.5 94.5zM1180.5 126.5q142.5 85.5 224.5 231.5t82 321t-82 321t-224.5 231.5t-316.5 85.5t-317.5 -85.5
t-226.5 -231.5t-83 -321t83 -321t226.5 -231.5t317.5 -85.5t316.5 85.5zM695 337q-86 51 -137.5 141t-51.5 201q0 106 45.5 193.5t127 139t185.5 51.5q94 0 172 -41l68 50h46l6 -263h-48q-34 86 -94 139.5t-142 53.5q-60 0 -116.5 -30.5t-92.5 -94.5t-36 -159q0 -98 39 -176
t107.5 -122t153.5 -44q133 0 215 110l39 -26q-50 -80 -127 -127t-173 -47q-100 0 -186 51z" />
    <glyph glyph-name="ordfeminine" unicode="&#xaa;" horiz-adv-x="1033" 
d="M308.5 743.5q-65.5 44.5 -104.5 122.5t-39 175q0 94 37 168.5t100 115.5t140 41q90 0 154 -56t101 -146h9l-44 163l27 41l175 -47l-9 -58l-53 -4l-35 -37v-341q0 -54 25 -82.5t72 -27.5l-10 -64q-20 -4 -45 -4q-60 0 -101.5 29.5t-53.5 72.5q-33 -48 -85.5 -77
t-118.5 -29q-76 0 -141.5 44.5zM640 893v242q-31 72 -80 110t-110 38q-74 0 -115 -56.5t-41 -152.5q0 -77 26 -139.5t72 -98.5t104 -36q90 0 144 93z" />
    <glyph glyph-name="guillemotleft" unicode="&#xab;" horiz-adv-x="978" 
d="M440 483v42l387 327h24v-65l-247 -283l247 -283v-65h-24zM63 483v42l387 327h24v-65l-247 -283l247 -283v-65h-24z" />
    <glyph glyph-name="logicalnot" unicode="&#xac;" horiz-adv-x="1160" 
d="M898 155h-113v311h-625v106h738v-417z" />
    <glyph glyph-name="uni00AD" unicode="&#xad;" horiz-adv-x="907" 
d="M171 617h566v-93h-566v93z" />
    <glyph glyph-name="registered" unicode="&#xae;" horiz-adv-x="1234" 
d="M395 561q-102 59 -161 160.5t-59 222.5t59 222t161 160t224 59q121 0 221.5 -59t159 -160t58.5 -222t-58.5 -222.5t-159.5 -160.5t-221 -59q-122 0 -224 59zM806 615q85 51 134 138t49 191t-49 191.5t-134 138.5t-189 51q-103 0 -188.5 -51t-134.5 -138.5t-49 -191.5
t49 -191t134.5 -138t188.5 -51q104 0 189 51zM414 774l45 8l8 28v287l-8 28l-45 8l4 31h220q67 0 107.5 -28.5t40.5 -85.5t-39 -83.5t-99 -26.5l47 -23l77 -133l67 -10l-2 -31h-129l-105 197h-62v-130l7 -28l45 -8l-3 -31h-172zM624 975q39 0 64 20t25 55q0 32 -21 54.5
t-68 22.5h-50l-33 -14v-138h83z" />
    <glyph glyph-name="macron" unicode="&#xaf;" horiz-adv-x="808" 
d="M88 1265h632v-76h-632v76z" />
    <glyph glyph-name="degree" unicode="&#xb0;" horiz-adv-x="757" 
d="M249 889q-60 35 -95 95t-35 131t35 131t95 95t131 35q70 0 129.5 -35t94.5 -95t35 -131t-35 -131t-94.5 -95t-129.5 -35q-71 0 -131 35zM468 959.5q40 24.5 63.5 65.5t23.5 90t-23.5 90t-63.5 65.5t-88 24.5q-49 0 -89.5 -24.5t-64.5 -65.5t-24 -90t24 -90t64.5 -65.5
t89.5 -24.5q48 0 88 24.5z" />
    <glyph glyph-name="plusminus" unicode="&#xb1;" horiz-adv-x="1218" 
d="M1047 720v-105h-382v-376h-112v376h-382v105h382v376h112v-376h382zM171 105h876v-105h-876v105z" />
    <glyph glyph-name="uni00B2" unicode="&#xb2;" horiz-adv-x="756" 
d="M46 756q18 59 56 105.5t83 80t114 76.5q72 45 114 77.5t70 77t28 101.5q0 74 -43 116.5t-116 42.5q-49 0 -89 -20t-62.5 -53.5t-22.5 -72.5q0 -25 10 -46l-31 -20l-109 66q40 104 121.5 158.5t191.5 54.5q70 0 136 -23t109 -72t43 -122q0 -74 -42.5 -130t-102.5 -93.5
t-155 -84.5q-84 -43 -128.5 -71t-63.5 -62h381l99 99h37l-48 -206h-580v21z" />
    <glyph glyph-name="uni00B3" unicode="&#xb3;" horiz-adv-x="750" 
d="M617 1151q73 -60 73 -168q0 -81 -41 -142t-111 -93.5t-155 -32.5q-108 0 -189.5 50.5t-131.5 114.5l43 35q47 -52 112 -87.5t140 -35.5q94 0 151 48t57 131q0 88 -56 132.5t-148 44.5q-59 0 -114 -20.5t-92 -46.5l-27 52l336 241h-389l11 130h31l77 -25h424v-64
l-304 -218q50 14 110 14q120 0 193 -60z" />
    <glyph glyph-name="acute" unicode="&#xb4;" horiz-adv-x="716" 
d="M88 1134l419 254h101l20 -29v-79l-525 -179z" />
    <glyph glyph-name="mu" unicode="&#xb5;" horiz-adv-x="1175" 
d="M1011 104q41 -49 118 -51l-9 -68q-35 -5 -61 -5q-96 0 -157 49t-76 144q-51 -93 -131.5 -146.5t-191.5 -53.5q-77 0 -134 28v-295l-166 -52v1107l-154 91v43l114 8l247 115l42 -39l-83 -99v-504q0 -148 46.5 -216t143.5 -68q78 0 141 43.5t105 131.5v494l-154 91v43
l112 8l247 115l43 -39l-83 -99v-639q0 -88 41 -137z" />
    <glyph glyph-name="paragraph" unicode="&#xb6;" horiz-adv-x="1324" 
d="M1242 1308h-253v-1543h-90v1543h-218v-1543h-89v831h-68q-116 0 -207.5 50.5t-143.5 140.5t-52 203q0 112 52 202t144 141t207 51h718v-76z" />
    <glyph glyph-name="periodcentered" unicode="&#xb7;" horiz-adv-x="643" 
d="M174 504v36l124 127h33l125 -127v-36l-125 -127h-33z" />
    <glyph glyph-name="cedilla" unicode="&#xb8;" horiz-adv-x="547" 
d="M155.5 -385q-42.5 16 -67.5 37l20 35q21 -17 54.5 -28t69.5 -11q49 0 76.5 24t27.5 70q0 43 -27.5 63.5t-70.5 20.5q-36 0 -73 -15l-19 21l82 168h59l-60 -129q42 16 77 16q65 0 110.5 -34t45.5 -97q0 -49 -29.5 -84.5t-77.5 -54t-102 -18.5q-53 0 -95.5 16z" />
    <glyph glyph-name="uni00B9" unicode="&#xb9;" horiz-adv-x="547" 
d="M65 787l107 12l25 51v451l-20 49h-128v51q83 13 126 30t92 49h46v-630l26 -51l109 -12l-6 -52h-372z" />
    <glyph glyph-name="ordmasculine" unicode="&#xba;" horiz-adv-x="808" 
d="M245.5 741.5q-72.5 42.5 -115 119t-42.5 174.5q0 94 39.5 169.5t110.5 118.5t161 43q89 0 162 -42.5t115.5 -119t42.5 -174.5q0 -94 -39.5 -169.5t-110.5 -118.5t-162 -43q-89 0 -161.5 42.5zM523.5 798q35.5 23 56.5 67.5t21 107.5q0 80 -32 153.5t-86.5 118.5
t-119.5 45q-44 0 -79.5 -23t-56.5 -68t-21 -108q0 -79 32.5 -152.5t87.5 -118.5t118 -45q44 0 79.5 23z" />
    <glyph glyph-name="guillemotright" unicode="&#xbb;" horiz-adv-x="979" 
d="M127 156v65l247 283l-247 283v65h24l387 -327v-42l-387 -327h-24zM504 156v65l247 283l-247 283v65h24l387 -327v-42l-387 -327h-24z" />
    <glyph glyph-name="onequarter" unicode="&#xbc;" horiz-adv-x="1612" 
d="M65 663l107 12l25 51v451l-20 49h-128v51q83 13 126 30t92 49h46v-630l26 -51l109 -12l-6 -52h-372zM296 41l774 1315l70 -41l-774 -1315zM1427 243v-128l20 -51l106 -12l-5 -52h-360l-6 52l109 12l18 51v128h-386l-25 43l298 459h167l-370 -440h316v174l84 122h34v-296
h144v-62h-144z" />
    <glyph glyph-name="onehalf" unicode="&#xbd;" horiz-adv-x="1646" 
d="M65 663l107 12l25 51v451l-20 49h-128v51q83 13 126 30t92 49h46v-630l26 -51l109 -12l-6 -52h-372zM296 41l774 1315l70 -41l-774 -1315zM936 21q18 59 56 105.5t83 80t114 76.5q72 45 114 77.5t70 77t28 101.5q0 74 -43 116.5t-116 42.5q-49 0 -89 -20t-62.5 -53.5
t-22.5 -72.5q0 -25 10 -46l-31 -20l-109 66q40 104 121.5 158.5t191.5 54.5q70 0 136 -23t109 -72t43 -122q0 -74 -42.5 -130t-102.5 -93.5t-155 -84.5q-84 -43 -128.5 -71t-63.5 -62h381l99 99h37l-48 -206h-580v21z" />
    <glyph glyph-name="threequarters" unicode="&#xbe;" horiz-adv-x="1815" 
d="M617 1028q73 -60 73 -168q0 -81 -41 -142t-111 -93.5t-155 -32.5q-108 0 -189.5 50.5t-131.5 114.5l43 35q47 -52 112 -87.5t140 -35.5q94 0 151 48t57 131q0 88 -56 132.5t-148 44.5q-59 0 -114 -20.5t-92 -46.5l-27 52l336 241h-389l11 130h31l77 -25h424v-64
l-304 -218q50 14 110 14q120 0 193 -60zM499 41l774 1315l70 -41l-774 -1315zM1630 243v-128l20 -51l106 -12l-5 -52h-360l-6 52l109 12l18 51v128h-386l-25 43l298 459h167l-370 -440h316v174l84 122h34v-296h144v-62h-144z" />
    <glyph glyph-name="questiondown" unicode="&#xbf;" horiz-adv-x="930" 
d="M631 846v-36l-124 -127h-33l-125 127v36l125 127h33zM571 469q13 -41 13 -79q0 -50 -18.5 -88.5t-46 -66.5t-74.5 -66q-53 -44 -85 -77.5t-54.5 -83.5t-22.5 -118q0 -104 53 -161.5t145 -57.5q62 0 107 24t68 63t23 83q0 49 -27 83.5t-74 49.5v42l83 95q70 -19 120 -76
t50 -143q0 -84 -48.5 -153.5t-132 -109.5t-183.5 -40q-104 0 -187.5 41t-131 114.5t-47.5 166.5q0 73 29 128.5t70 93.5t109 88q60 44 95 75.5t59 74.5t24 97q0 36 -11 94h53q29 -52 42 -93z" />
    <glyph glyph-name="Agrave" unicode="&#xc0;" horiz-adv-x="1467" 
d="M1425 62l-8 -62h-527l-6 60l136 27l32 70l-115 300h-504l-117 -303l45 -70l159 -24l-5 -60h-466l-7 62l95 20l91 70l460 1179l89 58l486 -1257l75 -58zM907 533l-222 577l-222 -577h444zM461 1624v79l20 29h100l420 -254l-16 -33z" />
    <glyph glyph-name="Aacute" unicode="&#xc1;" horiz-adv-x="1467" 
d="M1425 62l-8 -62h-527l-6 60l136 27l32 70l-115 300h-504l-117 -303l45 -70l159 -24l-5 -60h-466l-7 62l95 20l91 70l460 1179l89 58l486 -1257l75 -58zM907 533l-222 577l-222 -577h444zM499 1478l419 254h101l20 -29v-79l-525 -179z" />
    <glyph glyph-name="Acircumflex" unicode="&#xc2;" horiz-adv-x="1467" 
d="M1425 62l-8 -62h-527l-6 60l136 27l32 70l-115 300h-504l-117 -303l45 -70l159 -24l-5 -60h-466l-7 62l95 20l91 70l460 1179l89 58l486 -1257l75 -58zM907 533l-222 577l-222 -577h444zM433 1450l300 304l300 -304l-23 -22l-277 166l-278 -166z" />
    <glyph glyph-name="Atilde" unicode="&#xc3;" horiz-adv-x="1467" 
d="M1425 62l-8 -62h-527l-6 60l136 27l32 70l-115 300h-504l-117 -303l45 -70l159 -24l-5 -60h-466l-7 62l95 20l91 70l460 1179l89 58l486 -1257l75 -58zM907 533l-222 577l-222 -577h444zM800.5 1501q-31.5 15 -70.5 44q-34 26 -59.5 38.5t-56.5 12.5q-77 0 -148 -89
l-32 28q39 81 88 124.5t113 43.5q40 0 69.5 -14t67.5 -42q39 -28 65.5 -41t62.5 -13q80 0 138 90l32 -33q-68 -164 -195 -164q-43 0 -74.5 15z" />
    <glyph glyph-name="Adieresis" unicode="&#xc4;" horiz-adv-x="1467" 
d="M1425 62l-8 -62h-527l-6 60l136 27l32 70l-115 300h-504l-117 -303l45 -70l159 -24l-5 -60h-466l-7 62l95 20l91 70l460 1179l89 58l486 -1257l75 -58zM907 533l-222 577l-222 -577h444zM431 1578v33l102 104h31l102 -104v-33l-102 -100h-31zM798 1578v33l103 104h31
l102 -104v-33l-102 -100h-31z" />
    <glyph glyph-name="Aring" unicode="&#xc5;" horiz-adv-x="1467" 
d="M1425 62l-8 -62h-527l-6 60l136 27l32 70l-115 300h-504l-117 -303l45 -70l159 -24l-5 -60h-466l-7 62l95 20l91 70l460 1179l89 58l486 -1257l75 -58zM907 533l-222 577l-222 -577h444zM662.5 1489q-32.5 19 -51 52t-18.5 71q0 37 18.5 69t51 50.5t70.5 18.5t70.5 -18.5
t51 -50.5t18.5 -69q0 -38 -18.5 -71t-51 -52t-70.5 -19t-70.5 19zM793 1550.5q25 25.5 25 61.5q0 34 -24.5 58.5t-60.5 24.5t-60.5 -24.5t-24.5 -58.5q0 -36 24.5 -61.5t60.5 -25.5q35 0 60 25.5z" />
    <glyph glyph-name="AE" unicode="&#xc6;" horiz-adv-x="2193" 
d="M1193 1280v-416h295l94 39l45 146l56 -8v-426l-56 -8l-45 142l-88 39h-301v-712h550l193 165l41 168l44 -12v-397h-1192l-8 62l142 20l33 113v262h-481l-197 -296l39 -73l141 -22l-8 -66h-440l-7 66l95 20l85 68l741 1119l-1 2l-157 19l8 62h1219v-395l-42 -11l-43 165
l-193 165h-562zM996 533v632l-3 9l-427 -641h430z" />
    <glyph glyph-name="Ccedilla" unicode="&#xc7;" horiz-adv-x="1444" 
d="M1110 55q-135 -78 -294 -82l-48 -102q42 16 77 16q65 0 110.5 -34t45.5 -97q0 -49 -29.5 -84.5t-77.5 -54t-102 -18.5q-53 0 -95.5 16t-67.5 37l20 35q21 -17 54.5 -28t69.5 -11q49 0 76.5 24t27.5 70q0 43 -27.5 63.5t-70.5 20.5q-35 0 -73 -15l-19 21l70 142
q-178 12 -324 108t-230 254.5t-84 348.5q0 197 84.5 356.5t233 251t332.5 91.5q85 0 167.5 -21t149.5 -57l137 95h57l16 -459h-64q-70 170 -186.5 263t-261.5 93q-114 0 -221 -59t-176 -180.5t-69 -299.5q0 -185 73 -332.5t202.5 -231.5t290.5 -84q122 0 224 50.5t179 149.5
l50 -36q-92 -142 -227 -220z" />
    <glyph glyph-name="Egrave" unicode="&#xc8;" horiz-adv-x="1456" 
d="M84 62l141 20l34 113v970l-34 110l-126 19l8 62h1189v-395l-43 -11l-43 165l-193 165h-562v-416h296l94 39l45 146l56 -8v-426l-56 -8l-45 142l-88 39h-302v-712h551l193 165l40 168l45 -12v-397h-1193zM452 1663v79l20 29h100l420 -254l-16 -33z" />
    <glyph glyph-name="Eacute" unicode="&#xc9;" horiz-adv-x="1456" 
d="M84 62l141 20l34 113v970l-34 110l-126 19l8 62h1189v-395l-43 -11l-43 165l-193 165h-562v-416h296l94 39l45 146l56 -8v-426l-56 -8l-45 142l-88 39h-302v-712h551l193 165l40 168l45 -12v-397h-1193zM490 1517l419 254h101l20 -29v-79l-525 -179z" />
    <glyph glyph-name="Ecircumflex" unicode="&#xca;" horiz-adv-x="1456" 
d="M84 62l141 20l34 113v970l-34 110l-126 19l8 62h1189v-395l-43 -11l-43 165l-193 165h-562v-416h296l94 39l45 146l56 -8v-426l-56 -8l-45 142l-88 39h-302v-712h551l193 165l40 168l45 -12v-397h-1193zM424 1489l300 304l300 -304l-23 -22l-277 166l-278 -166z" />
    <glyph glyph-name="Edieresis" unicode="&#xcb;" horiz-adv-x="1456" 
d="M84 62l141 20l34 113v970l-34 110l-126 19l8 62h1189v-395l-43 -11l-43 165l-193 165h-562v-416h296l94 39l45 146l56 -8v-426l-56 -8l-45 142l-88 39h-302v-712h551l193 165l40 168l45 -12v-397h-1193zM422 1617v33l102 104h31l102 -104v-33l-102 -100h-31zM789 1617v33
l103 104h31l102 -104v-33l-102 -100h-31z" />
    <glyph glyph-name="Igrave" unicode="&#xcc;" horiz-adv-x="717" 
d="M87 62l142 20l31 113v967l-31 111l-142 21l8 62h529l8 -62l-142 -21l-33 -111v-967l33 -113l142 -20l-8 -62h-529zM88 1663v79l20 29h100l420 -254l-16 -33z" />
    <glyph glyph-name="Iacute" unicode="&#xcd;" horiz-adv-x="717" 
d="M87 62l142 20l31 113v967l-31 111l-142 21l8 62h529l8 -62l-142 -21l-33 -111v-967l33 -113l142 -20l-8 -62h-529zM126 1517l419 254h101l20 -29v-79l-525 -179z" />
    <glyph glyph-name="Icircumflex" unicode="&#xce;" horiz-adv-x="717" 
d="M87 62l142 20l31 113v967l-31 111l-142 21l8 62h529l8 -62l-142 -21l-33 -111v-967l33 -113l142 -20l-8 -62h-529zM60 1489l300 304l300 -304l-23 -22l-277 166l-278 -166z" />
    <glyph glyph-name="Idieresis" unicode="&#xcf;" horiz-adv-x="717" 
d="M87 62l142 20l31 113v967l-31 111l-142 21l8 62h529l8 -62l-142 -21l-33 -111v-967l33 -113l142 -20l-8 -62h-529zM58 1617v33l102 104h31l102 -104v-33l-102 -100h-31zM425 1617v33l103 104h31l102 -104v-33l-102 -100h-31z" />
    <glyph glyph-name="Eth" unicode="&#xd0;" horiz-adv-x="1513" 
d="M1067.5 1273.5q152.5 -82.5 237 -233t84.5 -347.5q0 -217 -79.5 -372.5t-230.5 -238t-361 -82.5h-627l-7 62l141 20l34 113v445h-146v76h146v446l-34 113l-128 19l8 62h611q199 0 351.5 -82.5zM978.5 149q101.5 73 155 210t53.5 326q0 150 -63 288t-167 222.5t-220 84.5
h-197l-85 -126v-438h271v-76h-271v-428l122 -136h160q140 0 241.5 73z" />
    <glyph glyph-name="Ntilde" unicode="&#xd1;" horiz-adv-x="1502" 
d="M1434 1294l-138 -19l-33 -111v-1164h-41l-872 1065v-870l25 -113l127 -20l-8 -62h-397l-9 62l137 20l36 110v972l-36 111l-137 19l9 62h285l791 -964v770l-27 113l-126 19l9 62h397zM826.5 1540q-31.5 15 -70.5 44q-34 26 -59.5 38.5t-56.5 12.5q-77 0 -148 -89l-32 28
q39 81 88 124.5t113 43.5q40 0 69.5 -14t67.5 -42q39 -28 65.5 -41t62.5 -13q80 0 138 90l32 -33q-68 -164 -195 -164q-43 0 -74.5 15z" />
    <glyph glyph-name="Ograve" unicode="&#xd2;" horiz-adv-x="1572" 
d="M465.5 62.5q-157.5 89.5 -252 251t-94.5 369.5q0 192 82 352.5t229.5 254.5t334.5 94q183 0 340.5 -89.5t252 -251.5t94.5 -370q0 -192 -82 -352t-229.5 -254t-334.5 -94q-183 0 -340.5 89.5zM1086 142.5q85 58.5 131 167t46 254.5q0 193 -76 355.5t-208 257.5t-294 95
q-115 0 -200 -59t-131 -168t-46 -255q0 -193 76.5 -354.5t209 -256.5t293.5 -95q114 0 199 58.5zM523 1663v79l20 29h100l420 -254l-16 -33z" />
    <glyph glyph-name="Oacute" unicode="&#xd3;" horiz-adv-x="1572" 
d="M465.5 62.5q-157.5 89.5 -252 251t-94.5 369.5q0 192 82 352.5t229.5 254.5t334.5 94q183 0 340.5 -89.5t252 -251.5t94.5 -370q0 -192 -82 -352t-229.5 -254t-334.5 -94q-183 0 -340.5 89.5zM1086 142.5q85 58.5 131 167t46 254.5q0 193 -76 355.5t-208 257.5t-294 95
q-115 0 -200 -59t-131 -168t-46 -255q0 -193 76.5 -354.5t209 -256.5t293.5 -95q114 0 199 58.5zM561 1517l419 254h101l20 -29v-79l-525 -179z" />
    <glyph glyph-name="Ocircumflex" unicode="&#xd4;" horiz-adv-x="1572" 
d="M465.5 62.5q-157.5 89.5 -252 251t-94.5 369.5q0 192 82 352.5t229.5 254.5t334.5 94q183 0 340.5 -89.5t252 -251.5t94.5 -370q0 -192 -82 -352t-229.5 -254t-334.5 -94q-183 0 -340.5 89.5zM1086 142.5q85 58.5 131 167t46 254.5q0 193 -76 355.5t-208 257.5t-294 95
q-115 0 -200 -59t-131 -168t-46 -255q0 -193 76.5 -354.5t209 -256.5t293.5 -95q114 0 199 58.5zM495 1489l300 304l300 -304l-23 -22l-277 166l-278 -166z" />
    <glyph glyph-name="Otilde" unicode="&#xd5;" horiz-adv-x="1572" 
d="M465.5 62.5q-157.5 89.5 -252 251t-94.5 369.5q0 192 82 352.5t229.5 254.5t334.5 94q183 0 340.5 -89.5t252 -251.5t94.5 -370q0 -192 -82 -352t-229.5 -254t-334.5 -94q-183 0 -340.5 89.5zM1086 142.5q85 58.5 131 167t46 254.5q0 193 -76 355.5t-208 257.5t-294 95
q-115 0 -200 -59t-131 -168t-46 -255q0 -193 76.5 -354.5t209 -256.5t293.5 -95q114 0 199 58.5zM862.5 1540q-31.5 15 -70.5 44q-34 26 -59.5 38.5t-56.5 12.5q-77 0 -148 -89l-32 28q39 81 88 124.5t113 43.5q40 0 69.5 -14t67.5 -42q39 -28 65.5 -41t62.5 -13
q80 0 138 90l32 -33q-68 -164 -195 -164q-43 0 -74.5 15z" />
    <glyph glyph-name="Odieresis" unicode="&#xd6;" horiz-adv-x="1572" 
d="M465.5 62.5q-157.5 89.5 -252 251t-94.5 369.5q0 192 82 352.5t229.5 254.5t334.5 94q183 0 340.5 -89.5t252 -251.5t94.5 -370q0 -192 -82 -352t-229.5 -254t-334.5 -94q-183 0 -340.5 89.5zM1086 142.5q85 58.5 131 167t46 254.5q0 193 -76 355.5t-208 257.5t-294 95
q-115 0 -200 -59t-131 -168t-46 -255q0 -193 76.5 -354.5t209 -256.5t293.5 -95q114 0 199 58.5zM493 1617v33l102 104h31l102 -104v-33l-102 -100h-31zM860 1617v33l103 104h31l102 -104v-33l-102 -100h-31z" />
    <glyph glyph-name="multiply" unicode="&#xd7;" horiz-adv-x="1126" 
d="M145 201l342 347l-346 349l78 77l345 -348l343 348l78 -77l-343 -348l343 -348l-78 -78l-343 347l-342 -347z" />
    <glyph glyph-name="Oslash" unicode="&#xd8;" horiz-adv-x="1572" 
d="M1394 969q58 -135 58 -296q0 -192 -82 -352t-229.5 -254t-334.5 -94q-106 0 -207 31.5t-186 90.5l-127 -171h-99l163 221q-108 96 -169.5 234t-61.5 304q0 192 82 352.5t229.5 254.5t334.5 94q111 0 214.5 -34t191.5 -98l135 182h99l-173 -233q104 -97 162 -232z
M349.5 524q41.5 -126 117.5 -223l595 804q-77 80 -173 123.5t-204 43.5q-115 0 -200 -59t-131 -168t-46 -255q0 -140 41.5 -266zM1086 142.5q85 58.5 131 167t46 254.5q0 136 -38.5 259t-109.5 219l-595 -802q76 -74 169.5 -115t197.5 -41q114 0 199 58.5z" />
    <glyph glyph-name="Ugrave" unicode="&#xd9;" horiz-adv-x="1492" 
d="M472.5 34.5q-118.5 61.5 -183 183.5t-64.5 300v644l-31 112l-128 20l8 62h499v-62l-119 -20l-32 -112v-496q0 -181 24 -301.5t105.5 -198t244.5 -77.5q209 0 300 107.5t91 321.5v646l-33 110l-132 20l7 62h389l8 -62l-134 -20l-28 -112v-687q0 -244 -129 -373t-383 -129
q-161 0 -279.5 61.5zM510 1663v79l20 29h100l420 -254l-16 -33z" />
    <glyph glyph-name="Uacute" unicode="&#xda;" horiz-adv-x="1492" 
d="M472.5 34.5q-118.5 61.5 -183 183.5t-64.5 300v644l-31 112l-128 20l8 62h499v-62l-119 -20l-32 -112v-496q0 -181 24 -301.5t105.5 -198t244.5 -77.5q209 0 300 107.5t91 321.5v646l-33 110l-132 20l7 62h389l8 -62l-134 -20l-28 -112v-687q0 -244 -129 -373t-383 -129
q-161 0 -279.5 61.5zM548 1517l419 254h101l20 -29v-79l-525 -179z" />
    <glyph glyph-name="Ucircumflex" unicode="&#xdb;" horiz-adv-x="1492" 
d="M472.5 34.5q-118.5 61.5 -183 183.5t-64.5 300v644l-31 112l-128 20l8 62h499v-62l-119 -20l-32 -112v-496q0 -181 24 -301.5t105.5 -198t244.5 -77.5q209 0 300 107.5t91 321.5v646l-33 110l-132 20l7 62h389l8 -62l-134 -20l-28 -112v-687q0 -244 -129 -373t-383 -129
q-161 0 -279.5 61.5zM482 1489l300 304l300 -304l-23 -22l-277 166l-278 -166z" />
    <glyph glyph-name="Udieresis" unicode="&#xdc;" horiz-adv-x="1492" 
d="M472.5 34.5q-118.5 61.5 -183 183.5t-64.5 300v644l-31 112l-128 20l8 62h499v-62l-119 -20l-32 -112v-496q0 -181 24 -301.5t105.5 -198t244.5 -77.5q209 0 300 107.5t91 321.5v646l-33 110l-132 20l7 62h389l8 -62l-134 -20l-28 -112v-687q0 -244 -129 -373t-383 -129
q-161 0 -279.5 61.5zM480 1617v33l102 104h31l102 -104v-33l-102 -100h-31zM847 1617v33l103 104h31l102 -104v-33l-102 -100h-31z" />
    <glyph glyph-name="Yacute" unicode="&#xdd;" horiz-adv-x="1320" 
d="M400 62l143 20l33 112v456l-370 564l-81 66l-84 22l3 54h510l10 -62l-93 -17l-28 -92l271 -412h17l262 412l-30 92l-94 17l10 62h396l5 -54l-84 -22l-101 -91l-323 -518v-477l33 -112l142 -20l-7 -62h-532zM446 1517l419 254h101l20 -29v-79l-525 -179z" />
    <glyph glyph-name="Thorn" unicode="&#xde;" horiz-adv-x="1361" 
d="M1157.5 942.5q117.5 -88.5 117.5 -261.5q0 -113 -53 -192.5t-153.5 -120.5t-241.5 -41h-370v-132l33 -113l142 -20l-8 -62h-529l-8 62l142 20l31 113v967l-31 111l-142 21l8 62h529l8 -62l-142 -21l-33 -111v-131h350q233 0 350.5 -88.5zM930 437q71 34 109 97.5
t38 150.5q0 83 -37.5 144t-109 93.5t-170.5 32.5h-177l-126 -50v-502h303q99 0 170 34z" />
    <glyph glyph-name="germandbls" unicode="&#xdf;" horiz-adv-x="1449" 
d="M895 -1.5q-70 25.5 -121 67.5l-82 -85l-47 23v321l47 11l41 -120q66 -89 143.5 -126t167.5 -37q92 0 148 41t56 118q0 60 -34.5 100t-86 64.5t-139.5 55.5q-102 36 -164.5 67.5t-106 88t-43.5 143.5q0 54 19 94.5t46.5 67t73.5 62.5q42 32 68 56.5t43 59.5t17 81
q0 64 -35 113t-96 76t-138 27q-154 0 -215 -105t-61 -265v-802l33 -113l109 -21l-8 -62h-432l-7 62l106 21l34 113v685h-181v92h181q0 150 56 266.5t156 181t229 64.5q103 0 184 -41.5t127 -116t46 -171.5q0 -61 -18 -105t-43 -71.5t-66 -61.5q-31 -26 -49 -44.5t-30 -43.5
t-12 -57q0 -55 34 -92.5t84 -60t139 -53.5q106 -36 171 -68t111 -89.5t46 -146.5q0 -88 -46 -154t-124.5 -101t-175.5 -35q-85 0 -155 25.5z" />
    <glyph glyph-name="agrave" unicode="&#xe0;" horiz-adv-x="1246" 
d="M311.5 44q-99.5 71 -157 193t-57.5 266q0 141 54.5 254.5t151 178t218.5 64.5q142 0 244 -86.5t169 -236.5h18l-74 274l31 50l265 -69l-12 -62l-78 -6l-63 -70v-549q0 -90 39 -138.5t112 -48.5l-10 -69q-31 -8 -68 -8q-87 0 -149.5 51t-76.5 137q-49 -90 -140.5 -143
t-195.5 -53q-121 0 -220.5 71zM757.5 150q62.5 52 98.5 121v394q-50 108 -132 172t-185 64q-83 0 -144 -43t-94 -122t-33 -185q0 -126 44 -229.5t120.5 -163.5t171.5 -60q91 0 153.5 52zM305 1280v79l20 29h100l420 -254l-16 -33z" />
    <glyph glyph-name="aacute" unicode="&#xe1;" horiz-adv-x="1246" 
d="M311.5 44q-99.5 71 -157 193t-57.5 266q0 141 54.5 254.5t151 178t218.5 64.5q142 0 244 -86.5t169 -236.5h18l-74 274l31 50l265 -69l-12 -62l-78 -6l-63 -70v-549q0 -90 39 -138.5t112 -48.5l-10 -69q-31 -8 -68 -8q-87 0 -149.5 51t-76.5 137q-49 -90 -140.5 -143
t-195.5 -53q-121 0 -220.5 71zM757.5 150q62.5 52 98.5 121v394q-50 108 -132 172t-185 64q-83 0 -144 -43t-94 -122t-33 -185q0 -126 44 -229.5t120.5 -163.5t171.5 -60q91 0 153.5 52zM343 1134l419 254h101l20 -29v-79l-525 -179z" />
    <glyph glyph-name="acircumflex" unicode="&#xe2;" horiz-adv-x="1246" 
d="M311.5 44q-99.5 71 -157 193t-57.5 266q0 141 54.5 254.5t151 178t218.5 64.5q142 0 244 -86.5t169 -236.5h18l-74 274l31 50l265 -69l-12 -62l-78 -6l-63 -70v-549q0 -90 39 -138.5t112 -48.5l-10 -69q-31 -8 -68 -8q-87 0 -149.5 51t-76.5 137q-49 -90 -140.5 -143
t-195.5 -53q-121 0 -220.5 71zM757.5 150q62.5 52 98.5 121v394q-50 108 -132 172t-185 64q-83 0 -144 -43t-94 -122t-33 -185q0 -126 44 -229.5t120.5 -163.5t171.5 -60q91 0 153.5 52zM277 1106l300 304l300 -304l-23 -22l-277 166l-278 -166z" />
    <glyph glyph-name="atilde" unicode="&#xe3;" horiz-adv-x="1246" 
d="M311.5 44q-99.5 71 -157 193t-57.5 266q0 141 54.5 254.5t151 178t218.5 64.5q142 0 244 -86.5t169 -236.5h18l-74 274l31 50l265 -69l-12 -62l-78 -6l-63 -70v-549q0 -90 39 -138.5t112 -48.5l-10 -69q-31 -8 -68 -8q-87 0 -149.5 51t-76.5 137q-49 -90 -140.5 -143
t-195.5 -53q-121 0 -220.5 71zM757.5 150q62.5 52 98.5 121v394q-50 108 -132 172t-185 64q-83 0 -144 -43t-94 -122t-33 -185q0 -126 44 -229.5t120.5 -163.5t171.5 -60q91 0 153.5 52zM644.5 1157q-31.5 15 -70.5 44q-34 26 -59.5 38.5t-56.5 12.5q-77 0 -148 -89l-32 28
q39 81 88 124.5t113 43.5q40 0 69.5 -14t67.5 -42q39 -28 65.5 -41t62.5 -13q80 0 138 90l32 -33q-68 -164 -195 -164q-43 0 -74.5 15z" />
    <glyph glyph-name="adieresis" unicode="&#xe4;" horiz-adv-x="1246" 
d="M311.5 44q-99.5 71 -157 193t-57.5 266q0 141 54.5 254.5t151 178t218.5 64.5q142 0 244 -86.5t169 -236.5h18l-74 274l31 50l265 -69l-12 -62l-78 -6l-63 -70v-549q0 -90 39 -138.5t112 -48.5l-10 -69q-31 -8 -68 -8q-87 0 -149.5 51t-76.5 137q-49 -90 -140.5 -143
t-195.5 -53q-121 0 -220.5 71zM757.5 150q62.5 52 98.5 121v394q-50 108 -132 172t-185 64q-83 0 -144 -43t-94 -122t-33 -185q0 -126 44 -229.5t120.5 -163.5t171.5 -60q91 0 153.5 52zM275 1234v33l102 104h31l102 -104v-33l-102 -100h-31zM642 1234v33l103 104h31
l102 -104v-33l-102 -100h-31z" />
    <glyph glyph-name="aring" unicode="&#xe5;" horiz-adv-x="1246" 
d="M311.5 44q-99.5 71 -157 193t-57.5 266q0 141 54.5 254.5t151 178t218.5 64.5q142 0 244 -86.5t169 -236.5h18l-74 274l31 50l265 -69l-12 -62l-78 -6l-63 -70v-549q0 -90 39 -138.5t112 -48.5l-10 -69q-31 -8 -68 -8q-87 0 -149.5 51t-76.5 137q-49 -90 -140.5 -143
t-195.5 -53q-121 0 -220.5 71zM757.5 150q62.5 52 98.5 121v394q-50 108 -132 172t-185 64q-83 0 -144 -43t-94 -122t-33 -185q0 -126 44 -229.5t120.5 -163.5t171.5 -60q91 0 153.5 52zM506.5 1145q-32.5 19 -51 52t-18.5 71q0 37 18.5 69t51 50.5t70.5 18.5t70.5 -18.5
t51 -50.5t18.5 -69q0 -38 -18.5 -71t-51 -52t-70.5 -19t-70.5 19zM637 1206.5q25 25.5 25 61.5q0 34 -24.5 58.5t-60.5 24.5t-60.5 -24.5t-24.5 -58.5q0 -36 24.5 -61.5t60.5 -25.5q35 0 60 25.5z" />
    <glyph glyph-name="ae" unicode="&#xe6;" horiz-adv-x="1853" 
d="M1767 240q-82 -127 -202 -197t-257 -70q-150 0 -266.5 80.5t-172.5 217.5q-27 -91 -88.5 -158.5t-146.5 -103.5t-181 -36q-94 0 -167.5 35t-114.5 97t-41 139q0 127 106 195.5t275 87.5l305 35v92q0 85 -36 146.5t-99 93.5t-144 32q-83 0 -146 -33t-97 -89t-34 -124
q0 -21 7 -49l-35 -22l-172 109q57 130 180.5 206t292.5 76q131 0 235.5 -47t160.5 -130q64 84 158.5 130.5t208.5 46.5q133 0 235.5 -54.5t160.5 -155.5t61 -235l-760 -50q12 -109 59 -201t128 -147.5t190 -55.5q80 0 140.5 25.5t104 64.5t88.5 95zM1118 873
q-62 -40 -95.5 -115t-33.5 -178v-5l577 44q-21 141 -99.5 217.5t-201.5 76.5q-85 0 -147 -40zM816 488l-288 -35q-105 -13 -159 -63.5t-54 -130.5t51.5 -125.5t145.5 -45.5q79 0 149 38t112.5 105.5t42.5 150.5v106z" />
    <glyph glyph-name="ccedilla" unicode="&#xe7;" horiz-adv-x="1096" 
d="M847.5 54q-109.5 -69 -235.5 -79l-48 -104q42 16 77 16q65 0 110.5 -34t45.5 -97q0 -49 -29.5 -84.5t-77.5 -54t-102 -18.5q-53 0 -95.5 16t-67.5 37l20 35q21 -17 54.5 -28t69.5 -11q49 0 76.5 24t27.5 70q0 43 -27.5 63.5t-70.5 20.5q-35 0 -73 -15l-19 21l69 141
q-132 5 -236.5 73.5t-163.5 184.5t-59 259q0 145 61.5 261t170 182.5t243.5 66.5q101 0 193 -36.5t161 -103.5t102 -153l-174 -115l-40 23q8 28 8 63q0 68 -33 121.5t-93.5 83.5t-141.5 30q-90 0 -156.5 -42t-103 -119.5t-36.5 -179.5q0 -119 44 -227t130.5 -176t207.5 -68
q79 0 140 25.5t104.5 64.5t88.5 95l64 -46q-76 -117 -185.5 -186z" />
    <glyph glyph-name="egrave" unicode="&#xe8;" horiz-adv-x="1120" 
d="M1035 240q-82 -126 -202.5 -196.5t-257.5 -70.5t-246.5 67.5t-171.5 186t-62 267.5q0 146 60 261.5t166.5 180t242.5 64.5q133 0 235 -60t160 -170t62 -256h-762q11 -111 58 -205t128 -151t192 -57q80 0 141 25.5t104.5 64.5t88.5 95zM386.5 874.5
q-61.5 -38.5 -95.5 -111.5t-35 -174h577q-22 153 -101 238.5t-200 85.5q-84 0 -145.5 -38.5zM283 1280v79l20 29h100l420 -254l-16 -33z" />
    <glyph glyph-name="eacute" unicode="&#xe9;" horiz-adv-x="1120" 
d="M1035 240q-82 -126 -202.5 -196.5t-257.5 -70.5t-246.5 67.5t-171.5 186t-62 267.5q0 146 60 261.5t166.5 180t242.5 64.5q133 0 235 -60t160 -170t62 -256h-762q11 -111 58 -205t128 -151t192 -57q80 0 141 25.5t104.5 64.5t88.5 95zM386.5 874.5
q-61.5 -38.5 -95.5 -111.5t-35 -174h577q-22 153 -101 238.5t-200 85.5q-84 0 -145.5 -38.5zM321 1134l419 254h101l20 -29v-79l-525 -179z" />
    <glyph glyph-name="ecircumflex" unicode="&#xea;" horiz-adv-x="1120" 
d="M1035 240q-82 -126 -202.5 -196.5t-257.5 -70.5t-246.5 67.5t-171.5 186t-62 267.5q0 146 60 261.5t166.5 180t242.5 64.5q133 0 235 -60t160 -170t62 -256h-762q11 -111 58 -205t128 -151t192 -57q80 0 141 25.5t104.5 64.5t88.5 95zM386.5 874.5
q-61.5 -38.5 -95.5 -111.5t-35 -174h577q-22 153 -101 238.5t-200 85.5q-84 0 -145.5 -38.5zM255 1106l300 304l300 -304l-23 -22l-277 166l-278 -166z" />
    <glyph glyph-name="edieresis" unicode="&#xeb;" horiz-adv-x="1120" 
d="M1035 240q-82 -126 -202.5 -196.5t-257.5 -70.5t-246.5 67.5t-171.5 186t-62 267.5q0 146 60 261.5t166.5 180t242.5 64.5q133 0 235 -60t160 -170t62 -256h-762q11 -111 58 -205t128 -151t192 -57q80 0 141 25.5t104.5 64.5t88.5 95zM386.5 874.5
q-61.5 -38.5 -95.5 -111.5t-35 -174h577q-22 153 -101 238.5t-200 85.5q-84 0 -145.5 -38.5zM253 1234v33l102 104h31l102 -104v-33l-102 -100h-31zM620 1234v33l103 104h31l102 -104v-33l-102 -100h-31z" />
    <glyph glyph-name="igrave" unicode="&#xec;" horiz-adv-x="590" 
d="M84 62l107 21l31 104v574l-153 91v43l113 8l247 115l42 -39l-83 -99v-693l31 -104l107 -21l-8 -62h-427zM20 1280v79l20 29h100l420 -254l-16 -33z" />
    <glyph glyph-name="iacute" unicode="&#xed;" horiz-adv-x="590" 
d="M84 62l107 21l31 104v574l-153 91v43l113 8l247 115l42 -39l-83 -99v-693l31 -104l107 -21l-8 -62h-427zM58 1134l419 254h101l20 -29v-79l-525 -179z" />
    <glyph glyph-name="icircumflex" unicode="&#xee;" horiz-adv-x="590" 
d="M84 62l107 21l31 104v574l-153 91v43l113 8l247 115l42 -39l-83 -99v-693l31 -104l107 -21l-8 -62h-427zM-8 1106l300 304l300 -304l-23 -22l-277 166l-278 -166z" />
    <glyph glyph-name="idieresis" unicode="&#xef;" horiz-adv-x="590" 
d="M84 62l107 21l31 104v574l-153 91v43l113 8l247 115l42 -39l-83 -99v-693l31 -104l107 -21l-8 -62h-427zM-10 1234v33l102 104h31l102 -104v-33l-102 -100h-31zM357 1234v33l103 104h31l102 -104v-33l-102 -100h-31z" />
    <glyph glyph-name="eth" unicode="&#xf0;" horiz-adv-x="1157" 
d="M989.5 880q64.5 -176 64.5 -356q0 -182 -67.5 -306t-176 -184.5t-232.5 -60.5q-135 0 -246 69t-174.5 188.5t-63.5 265.5q0 138 57 253.5t154.5 183t215.5 67.5q106 0 190.5 -53t135.5 -128h12q-18 101 -61.5 193t-105.5 166l-355 -76l-16 76l309 66q-67 63 -144 102
t-155 49l-21 4l-11 31l222 71q55 -28 121 -87.5t129 -140.5l177 38l16 -75l-143 -31q104 -149 168.5 -325zM772 108q58 41 89.5 116.5t31.5 175.5q0 131 -53 248t-142 187.5t-190 70.5q-75 0 -133 -41t-90 -116.5t-32 -175.5q0 -131 53.5 -248t142.5 -187.5t190 -70.5
q75 0 133 41z" />
    <glyph glyph-name="ntilde" unicode="&#xf1;" horiz-adv-x="1184" 
d="M82 62l107 20l33 113v666l-140 9l-12 62l302 66l29 -47l-91 -256h12q162 305 410 305q128 0 196.5 -78.5t68.5 -236.5v-490l32 -113l108 -20l-8 -62h-430l-8 62l108 20l32 113v441q0 73 -11 125t-48 86t-109 34q-90 0 -158.5 -56.5t-117.5 -142.5v-487l34 -113l106 -20
l-7 -62h-431zM666.5 1157q-31.5 15 -70.5 44q-34 26 -59.5 38.5t-56.5 12.5q-77 0 -148 -89l-32 28q39 81 88 124.5t113 43.5q40 0 69.5 -14t67.5 -42q39 -28 65.5 -41t62.5 -13q80 0 138 90l32 -33q-68 -164 -195 -164q-43 0 -74.5 15z" />
    <glyph glyph-name="ograve" unicode="&#xf2;" horiz-adv-x="1157" 
d="M335.5 38.5q-112.5 65.5 -177.5 183.5t-65 268q0 144 60.5 260.5t169.5 183t248 66.5q138 0 250.5 -65.5t177.5 -183.5t65 -268q0 -144 -60.5 -260.5t-170 -183t-248.5 -66.5q-137 0 -249.5 65.5zM779.5 108q58.5 41 91 116.5t32.5 175.5q0 131 -53.5 248t-143.5 187.5
t-193 70.5q-77 0 -136 -41t-91.5 -116.5t-32.5 -175.5q0 -131 54 -248t144 -187.5t193 -70.5q77 0 135.5 41zM313 1280v79l20 29h100l420 -254l-16 -33z" />
    <glyph glyph-name="oacute" unicode="&#xf3;" horiz-adv-x="1157" 
d="M335.5 38.5q-112.5 65.5 -177.5 183.5t-65 268q0 144 60.5 260.5t169.5 183t248 66.5q138 0 250.5 -65.5t177.5 -183.5t65 -268q0 -144 -60.5 -260.5t-170 -183t-248.5 -66.5q-137 0 -249.5 65.5zM779.5 108q58.5 41 91 116.5t32.5 175.5q0 131 -53.5 248t-143.5 187.5
t-193 70.5q-77 0 -136 -41t-91.5 -116.5t-32.5 -175.5q0 -131 54 -248t144 -187.5t193 -70.5q77 0 135.5 41zM351 1134l419 254h101l20 -29v-79l-525 -179z" />
    <glyph glyph-name="ocircumflex" unicode="&#xf4;" horiz-adv-x="1157" 
d="M335.5 38.5q-112.5 65.5 -177.5 183.5t-65 268q0 144 60.5 260.5t169.5 183t248 66.5q138 0 250.5 -65.5t177.5 -183.5t65 -268q0 -144 -60.5 -260.5t-170 -183t-248.5 -66.5q-137 0 -249.5 65.5zM779.5 108q58.5 41 91 116.5t32.5 175.5q0 131 -53.5 248t-143.5 187.5
t-193 70.5q-77 0 -136 -41t-91.5 -116.5t-32.5 -175.5q0 -131 54 -248t144 -187.5t193 -70.5q77 0 135.5 41zM285 1106l300 304l300 -304l-23 -22l-277 166l-278 -166z" />
    <glyph glyph-name="otilde" unicode="&#xf5;" horiz-adv-x="1157" 
d="M335.5 38.5q-112.5 65.5 -177.5 183.5t-65 268q0 144 60.5 260.5t169.5 183t248 66.5q138 0 250.5 -65.5t177.5 -183.5t65 -268q0 -144 -60.5 -260.5t-170 -183t-248.5 -66.5q-137 0 -249.5 65.5zM779.5 108q58.5 41 91 116.5t32.5 175.5q0 131 -53.5 248t-143.5 187.5
t-193 70.5q-77 0 -136 -41t-91.5 -116.5t-32.5 -175.5q0 -131 54 -248t144 -187.5t193 -70.5q77 0 135.5 41zM652.5 1157q-31.5 15 -70.5 44q-34 26 -59.5 38.5t-56.5 12.5q-77 0 -148 -89l-32 28q39 81 88 124.5t113 43.5q40 0 69.5 -14t67.5 -42q39 -28 65.5 -41t62.5 -13
q80 0 138 90l32 -33q-68 -164 -195 -164q-43 0 -74.5 15z" />
    <glyph glyph-name="odieresis" unicode="&#xf6;" horiz-adv-x="1157" 
d="M335.5 38.5q-112.5 65.5 -177.5 183.5t-65 268q0 144 60.5 260.5t169.5 183t248 66.5q138 0 250.5 -65.5t177.5 -183.5t65 -268q0 -144 -60.5 -260.5t-170 -183t-248.5 -66.5q-137 0 -249.5 65.5zM779.5 108q58.5 41 91 116.5t32.5 175.5q0 131 -53.5 248t-143.5 187.5
t-193 70.5q-77 0 -136 -41t-91.5 -116.5t-32.5 -175.5q0 -131 54 -248t144 -187.5t193 -70.5q77 0 135.5 41zM283 1234v33l102 104h31l102 -104v-33l-102 -100h-31zM650 1234v33l103 104h31l102 -104v-33l-102 -100h-31z" />
    <glyph glyph-name="divide" unicode="&#xf7;" horiz-adv-x="1115" 
d="M417 864v36l125 127h32l125 -127v-36l-125 -127h-32zM120 599h875v-105h-875v105zM417 185v36l125 127h32l125 -127v-36l-125 -127h-32z" />
    <glyph glyph-name="oslash" unicode="&#xf8;" horiz-adv-x="1157" 
d="M1023 700.5q41 -98.5 41 -217.5q0 -144 -60.5 -260.5t-170 -183t-248.5 -66.5q-146 0 -266 75l-98 -137h-97l133 185q-77 70 -120.5 171.5t-43.5 222.5q0 144 60.5 260.5t169.5 183t248 66.5q77 0 147 -21t129 -60l102 142h97l-138 -192q74 -70 115 -168.5zM280.5 393.5
q27.5 -87.5 77.5 -156.5l397 553q-51 55 -113.5 85.5t-128.5 30.5q-77 0 -136 -41t-91.5 -116.5t-32.5 -175.5q0 -92 27.5 -179.5zM779.5 108q58.5 41 91 116.5t32.5 175.5q0 89 -25.5 173t-71.5 153l-396 -552q51 -51 110.5 -79t123.5 -28q77 0 135.5 41z" />
    <glyph glyph-name="ugrave" unicode="&#xf9;" horiz-adv-x="1165" 
d="M273.5 66q-80.5 93 -80.5 275v420l-154 91v43l114 8l247 115l42 -39l-83 -99v-504q0 -148 46.5 -216t143.5 -68q78 0 141 43.5t105 131.5v494l-154 91v43l112 8l247 115l43 -39l-83 -99v-639q0 -88 41 -137t118 -51l-9 -68q-35 -5 -62 -5q-95 0 -156 49.5t-76 143.5
q-51 -93 -131.5 -146.5t-191.5 -53.5q-139 0 -219.5 93zM306 1280v79l20 29h100l420 -254l-16 -33z" />
    <glyph glyph-name="uacute" unicode="&#xfa;" horiz-adv-x="1165" 
d="M273.5 66q-80.5 93 -80.5 275v420l-154 91v43l114 8l247 115l42 -39l-83 -99v-504q0 -148 46.5 -216t143.5 -68q78 0 141 43.5t105 131.5v494l-154 91v43l112 8l247 115l43 -39l-83 -99v-639q0 -88 41 -137t118 -51l-9 -68q-35 -5 -62 -5q-95 0 -156 49.5t-76 143.5
q-51 -93 -131.5 -146.5t-191.5 -53.5q-139 0 -219.5 93zM344 1134l419 254h101l20 -29v-79l-525 -179z" />
    <glyph glyph-name="ucircumflex" unicode="&#xfb;" horiz-adv-x="1165" 
d="M273.5 66q-80.5 93 -80.5 275v420l-154 91v43l114 8l247 115l42 -39l-83 -99v-504q0 -148 46.5 -216t143.5 -68q78 0 141 43.5t105 131.5v494l-154 91v43l112 8l247 115l43 -39l-83 -99v-639q0 -88 41 -137t118 -51l-9 -68q-35 -5 -62 -5q-95 0 -156 49.5t-76 143.5
q-51 -93 -131.5 -146.5t-191.5 -53.5q-139 0 -219.5 93zM278 1106l300 304l300 -304l-23 -22l-277 166l-278 -166z" />
    <glyph glyph-name="udieresis" unicode="&#xfc;" horiz-adv-x="1165" 
d="M273.5 66q-80.5 93 -80.5 275v420l-154 91v43l114 8l247 115l42 -39l-83 -99v-504q0 -148 46.5 -216t143.5 -68q78 0 141 43.5t105 131.5v494l-154 91v43l112 8l247 115l43 -39l-83 -99v-639q0 -88 41 -137t118 -51l-9 -68q-35 -5 -62 -5q-95 0 -156 49.5t-76 143.5
q-51 -93 -131.5 -146.5t-191.5 -53.5q-139 0 -219.5 93zM276 1234v33l102 104h31l102 -104v-33l-102 -100h-31zM643 1234v33l103 104h31l102 -104v-33l-102 -100h-31z" />
    <glyph glyph-name="yacute" unicode="&#xfd;" horiz-adv-x="1098" 
d="M1079 919l-74 -20l-84 -90l-430 -1099q-39 -103 -114 -154.5t-168 -51.5q-51 0 -95 14t-88 40l68 160l57 8q12 -33 41 -60.5t81 -27.5q55 0 95 41.5t78 137.5l70 178l-338 828l-84 74l-76 22l4 54h453l11 -62l-98 -18l-29 -91l241 -602l238 606l-24 91l-122 16l10 60h373
zM323 1134l419 254h101l20 -29v-79l-525 -179z" />
    <glyph glyph-name="thorn" unicode="&#xfe;" horiz-adv-x="1213" 
d="M89 -458l85 102v1597l-155 95v43l115 5l249 116l42 -38l-85 -102v-563q123 203 330 203q123 0 226 -62.5t163 -175.5t60 -258t-59 -267t-161.5 -193t-225.5 -71q-88 0 -172.5 39t-160.5 113v-366l156 -94v-38l-115 -6l-249 -117zM824.5 104.5q62.5 44.5 96.5 126
t34 191.5q0 128 -44.5 231.5t-122 162.5t-174.5 59q-100 0 -164 -62.5t-110 -154.5v-284q65 -160 147 -237t190 -77q85 0 147.5 44.5z" />
    <glyph glyph-name="ydieresis" unicode="&#xff;" horiz-adv-x="1098" 
d="M1079 919l-74 -20l-84 -90l-430 -1099q-39 -103 -114 -154.5t-168 -51.5q-51 0 -95 14t-88 40l68 160l57 8q12 -33 41 -60.5t81 -27.5q55 0 95 41.5t78 137.5l70 178l-338 828l-84 74l-76 22l4 54h453l11 -62l-98 -18l-29 -91l241 -602l238 606l-24 91l-122 16l10 60h373
zM255 1234v33l102 104h31l102 -104v-33l-102 -100h-31zM622 1234v33l103 104h31l102 -104v-33l-102 -100h-31z" />
    <glyph glyph-name="Amacron" unicode="&#x100;" horiz-adv-x="1467" 
d="M1425 62l-8 -62h-527l-6 60l136 27l32 70l-115 300h-504l-117 -303l45 -70l159 -24l-5 -60h-466l-7 62l95 20l91 70l460 1179l89 58l486 -1257l75 -58zM907 533l-222 577l-222 -577h444zM416 1609h632v-76h-632v76z" />
    <glyph glyph-name="amacron" unicode="&#x101;" horiz-adv-x="1246" 
d="M311.5 44q-99.5 71 -157 193t-57.5 266q0 141 54.5 254.5t151 178t218.5 64.5q142 0 244 -86.5t169 -236.5h18l-74 274l31 50l265 -69l-12 -62l-78 -6l-63 -70v-549q0 -90 39 -138.5t112 -48.5l-10 -69q-31 -8 -68 -8q-87 0 -149.5 51t-76.5 137q-49 -90 -140.5 -143
t-195.5 -53q-121 0 -220.5 71zM757.5 150q62.5 52 98.5 121v394q-50 108 -132 172t-185 64q-83 0 -144 -43t-94 -122t-33 -185q0 -126 44 -229.5t120.5 -163.5t171.5 -60q91 0 153.5 52zM260 1265h632v-76h-632v76z" />
    <glyph glyph-name="Abreve" unicode="&#x102;" horiz-adv-x="1467" 
d="M1425 62l-8 -62h-527l-6 60l136 27l32 70l-115 300h-504l-117 -303l45 -70l159 -24l-5 -60h-466l-7 62l95 20l91 70l460 1179l89 58l486 -1257l75 -58zM907 533l-222 577l-222 -577h444zM578 1541.5q-61 55.5 -69 147.5h56q9 -46 56 -75t112 -29t111.5 29t55.5 75h57
q-8 -92 -69 -147.5t-155 -55.5t-155 55.5z" />
    <glyph glyph-name="abreve" unicode="&#x103;" horiz-adv-x="1246" 
d="M311.5 44q-99.5 71 -157 193t-57.5 266q0 141 54.5 254.5t151 178t218.5 64.5q142 0 244 -86.5t169 -236.5h18l-74 274l31 50l265 -69l-12 -62l-78 -6l-63 -70v-549q0 -90 39 -138.5t112 -48.5l-10 -69q-31 -8 -68 -8q-87 0 -149.5 51t-76.5 137q-49 -90 -140.5 -143
t-195.5 -53q-121 0 -220.5 71zM757.5 150q62.5 52 98.5 121v394q-50 108 -132 172t-185 64q-83 0 -144 -43t-94 -122t-33 -185q0 -126 44 -229.5t120.5 -163.5t171.5 -60q91 0 153.5 52zM422 1197.5q-61 55.5 -69 147.5h56q9 -46 56 -75t112 -29t111.5 29t55.5 75h57
q-8 -92 -69 -147.5t-155 -55.5t-155 55.5z" />
    <glyph glyph-name="Aogonek" unicode="&#x104;" horiz-adv-x="1467" 
d="M1123 -103q-47 -61 -47 -126q0 -52 33.5 -87.5t88.5 -35.5q51 0 105 31v-60q-30 -23 -69 -34t-79 -11q-81 0 -132.5 41.5t-51.5 112.5q0 79 62.5 151t151.5 121h-295l-6 60l136 27l32 70l-115 300h-504l-117 -303l45 -70l159 -24l-5 -60h-466l-7 62l95 20l91 70l460 1179
l89 58l486 -1257l75 -58l87 -12l-8 -62h-184q-63 -42 -110 -103zM907 533l-222 577l-222 -577h444z" />
    <glyph glyph-name="aogonek" unicode="&#x105;" horiz-adv-x="1246" 
d="M1208 -310v-59q-31 -23 -70 -34t-78 -11q-81 0 -133 41.5t-52 111.5q0 69 48 132.5t123 113.5q-70 13 -118 61.5t-60 122.5q-49 -90 -140.5 -143t-195.5 -53q-121 0 -220.5 71t-157 193t-57.5 266q0 141 54.5 254.5t151 178t218.5 64.5q142 0 244 -86.5t169 -236.5h18
l-74 274l31 50l265 -69l-12 -62l-78 -6l-63 -70v-549q0 -90 39 -138.5t112 -48.5l-10 -69q-29 -8 -65 -8q-50 -42 -83 -93.5t-33 -105.5q0 -52 33 -87t89 -35q53 0 105 30zM856 665q-50 108 -132 172t-185 64q-83 0 -144 -43t-94 -122t-33 -185q0 -126 44 -229.5
t120.5 -163.5t171.5 -60q91 0 153.5 52t98.5 121v394z" />
    <glyph glyph-name="Cacute" unicode="&#x106;" horiz-adv-x="1444" 
d="M457.5 67q-156.5 94 -247.5 257t-91 361q0 197 84.5 356.5t233 251t332.5 91.5q85 0 167.5 -21t149.5 -57l137 95h57l16 -459h-64q-70 170 -186.5 263t-261.5 93q-114 0 -221 -59t-176 -180.5t-69 -299.5q0 -185 73 -332.5t202.5 -231.5t290.5 -84q122 0 224 50.5
t179 149.5l50 -36q-95 -145 -233.5 -223.5t-301.5 -78.5q-188 0 -344.5 94zM541 1517l419 254h101l20 -29v-79l-525 -179z" />
    <glyph glyph-name="cacute" unicode="&#x107;" horiz-adv-x="1096" 
d="M326.5 40q-109.5 67 -171.5 185t-62 265q0 145 61.5 261t170 182.5t243.5 66.5q101 0 193 -36.5t161 -103.5t102 -153l-174 -115l-40 23q8 28 8 63q0 68 -33 121.5t-93.5 83.5t-141.5 30q-90 0 -156.5 -42t-103 -119.5t-36.5 -179.5q0 -119 44 -227t130.5 -176t207.5 -68
q79 0 140 25.5t104.5 64.5t88.5 95l64 -46q-82 -126 -202.5 -196.5t-257.5 -70.5t-246.5 67zM337 1134l419 254h101l20 -29v-79l-525 -179z" />
    <glyph glyph-name="Ccircumflex" unicode="&#x108;" horiz-adv-x="1444" 
d="M457.5 67q-156.5 94 -247.5 257t-91 361q0 197 84.5 356.5t233 251t332.5 91.5q85 0 167.5 -21t149.5 -57l137 95h57l16 -459h-64q-70 170 -186.5 263t-261.5 93q-114 0 -221 -59t-176 -180.5t-69 -299.5q0 -185 73 -332.5t202.5 -231.5t290.5 -84q122 0 224 50.5
t179 149.5l50 -36q-95 -145 -233.5 -223.5t-301.5 -78.5q-188 0 -344.5 94zM475 1489l300 304l300 -304l-23 -22l-277 166l-278 -166z" />
    <glyph glyph-name="ccircumflex" unicode="&#x109;" horiz-adv-x="1096" 
d="M326.5 40q-109.5 67 -171.5 185t-62 265q0 145 61.5 261t170 182.5t243.5 66.5q101 0 193 -36.5t161 -103.5t102 -153l-174 -115l-40 23q8 28 8 63q0 68 -33 121.5t-93.5 83.5t-141.5 30q-90 0 -156.5 -42t-103 -119.5t-36.5 -179.5q0 -119 44 -227t130.5 -176t207.5 -68
q79 0 140 25.5t104.5 64.5t88.5 95l64 -46q-82 -126 -202.5 -196.5t-257.5 -70.5t-246.5 67zM271 1106l300 304l300 -304l-23 -22l-277 166l-278 -166z" />
    <glyph glyph-name="Cdotaccent" unicode="&#x10a;" horiz-adv-x="1444" 
d="M457.5 67q-156.5 94 -247.5 257t-91 361q0 197 84.5 356.5t233 251t332.5 91.5q85 0 167.5 -21t149.5 -57l137 95h57l16 -459h-64q-70 170 -186.5 263t-261.5 93q-114 0 -221 -59t-176 -180.5t-69 -299.5q0 -185 73 -332.5t202.5 -231.5t290.5 -84q122 0 224 50.5
t179 149.5l50 -36q-95 -145 -233.5 -223.5t-301.5 -78.5q-188 0 -344.5 94zM657 1616v34l102 103h31l102 -103v-34l-102 -100h-31z" />
    <glyph glyph-name="cdotaccent" unicode="&#x10b;" horiz-adv-x="1096" 
d="M326.5 40q-109.5 67 -171.5 185t-62 265q0 145 61.5 261t170 182.5t243.5 66.5q101 0 193 -36.5t161 -103.5t102 -153l-174 -115l-40 23q8 28 8 63q0 68 -33 121.5t-93.5 83.5t-141.5 30q-90 0 -156.5 -42t-103 -119.5t-36.5 -179.5q0 -119 44 -227t130.5 -176t207.5 -68
q79 0 140 25.5t104.5 64.5t88.5 95l64 -46q-82 -126 -202.5 -196.5t-257.5 -70.5t-246.5 67zM453 1233v34l102 103h31l102 -103v-34l-102 -100h-31z" />
    <glyph glyph-name="Ccaron" unicode="&#x10c;" horiz-adv-x="1444" 
d="M457.5 67q-156.5 94 -247.5 257t-91 361q0 197 84.5 356.5t233 251t332.5 91.5q85 0 167.5 -21t149.5 -57l137 95h57l16 -459h-64q-70 170 -186.5 263t-261.5 93q-114 0 -221 -59t-176 -180.5t-69 -299.5q0 -185 73 -332.5t202.5 -231.5t290.5 -84q122 0 224 50.5
t179 149.5l50 -36q-95 -145 -233.5 -223.5t-301.5 -78.5q-188 0 -344.5 94zM475 1775l22 22l278 -166l277 166l23 -22l-300 -304z" />
    <glyph glyph-name="ccaron" unicode="&#x10d;" horiz-adv-x="1096" 
d="M326.5 40q-109.5 67 -171.5 185t-62 265q0 145 61.5 261t170 182.5t243.5 66.5q101 0 193 -36.5t161 -103.5t102 -153l-174 -115l-40 23q8 28 8 63q0 68 -33 121.5t-93.5 83.5t-141.5 30q-90 0 -156.5 -42t-103 -119.5t-36.5 -179.5q0 -119 44 -227t130.5 -176t207.5 -68
q79 0 140 25.5t104.5 64.5t88.5 95l64 -46q-82 -126 -202.5 -196.5t-257.5 -70.5t-246.5 67zM271 1392l22 22l278 -166l277 166l23 -22l-300 -304z" />
    <glyph glyph-name="Dcaron" unicode="&#x10e;" horiz-adv-x="1513" 
d="M84 62l141 20l34 113v967l-34 113l-128 19l8 62h611q199 0 351.5 -82.5t237 -233t84.5 -347.5q0 -217 -79.5 -372.5t-230.5 -238t-361 -82.5h-627zM737 76q140 0 241.5 73t155 210t53.5 326q0 150 -63 288t-167 222.5t-220 84.5h-197l-85 -126v-942l122 -136h160z
M324 1775l22 22l278 -166l277 166l23 -22l-300 -304z" />
    <glyph glyph-name="dcaron" unicode="&#x10f;" horiz-adv-x="1231" 
d="M320.5 43.5q-104.5 70.5 -165.5 191t-61 262.5q0 140 58 255t158 181.5t221 66.5q96 0 167.5 -32t136.5 -81h33v354l-156 94v42l115 7l250 116l42 -39l-86 -101v-1115q0 -86 38.5 -135.5t111.5 -56.5l-10 -68q-25 -4 -55 -4q-97 0 -161 49.5t-77 136.5
q-55 -86 -142.5 -140t-189.5 -54q-123 0 -227.5 70.5zM755 145q70 47 113 126v359q-65 133 -147.5 208t-196.5 75q-80 0 -140.5 -40.5t-93.5 -115t-33 -173.5q0 -133 46 -244.5t125 -176.5t175 -65q82 0 152 47zM1182 1121q42 20 65.5 49t23.5 61q0 14 -3 26l-107 87v31
l93 92h26q39 -15 69.5 -53.5t30.5 -88.5q0 -83 -48 -145.5t-138 -94.5z" />
    <glyph glyph-name="Dcroat" unicode="&#x110;" horiz-adv-x="1513" 
d="M1067.5 1273.5q152.5 -82.5 237 -233t84.5 -347.5q0 -217 -79.5 -372.5t-230.5 -238t-361 -82.5h-627l-7 62l141 20l34 113v445h-146v76h146v446l-34 113l-128 19l8 62h611q199 0 351.5 -82.5zM978.5 149q101.5 73 155 210t53.5 326q0 150 -63 288t-167 222.5t-220 84.5
h-197l-85 -126v-438h271v-76h-271v-428l122 -136h160q140 0 241.5 73z" />
    <glyph glyph-name="dcroat" unicode="&#x111;" horiz-adv-x="1231" 
d="M1071.5 109.5q38.5 -49.5 111.5 -56.5l-10 -68q-25 -4 -55 -4q-97 0 -161 49.5t-77 136.5q-55 -86 -142.5 -140t-189.5 -54q-123 0 -227.5 70.5t-165.5 191t-61 262.5q0 140 58 255t158 181.5t221 66.5q96 0 167.5 -32t136.5 -81h33v197h-321v76h321v81l-156 94v42l115 7
l250 116l42 -39l-86 -101v-200h127v-76h-127v-839q0 -86 38.5 -135.5zM868 630q-65 133 -147.5 208t-196.5 75q-80 0 -140.5 -40.5t-93.5 -115t-33 -173.5q0 -133 46 -244.5t125 -176.5t175 -65q82 0 152 47t113 126v359z" />
    <glyph glyph-name="Emacron" unicode="&#x112;" horiz-adv-x="1456" 
d="M84 62l141 20l34 113v970l-34 110l-126 19l8 62h1189v-395l-43 -11l-43 165l-193 165h-562v-416h296l94 39l45 146l56 -8v-426l-56 -8l-45 142l-88 39h-302v-712h551l193 165l40 168l45 -12v-397h-1193zM407 1648h632v-76h-632v76z" />
    <glyph glyph-name="emacron" unicode="&#x113;" horiz-adv-x="1120" 
d="M1035 240q-82 -126 -202.5 -196.5t-257.5 -70.5t-246.5 67.5t-171.5 186t-62 267.5q0 146 60 261.5t166.5 180t242.5 64.5q133 0 235 -60t160 -170t62 -256h-762q11 -111 58 -205t128 -151t192 -57q80 0 141 25.5t104.5 64.5t88.5 95zM386.5 874.5
q-61.5 -38.5 -95.5 -111.5t-35 -174h577q-22 153 -101 238.5t-200 85.5q-84 0 -145.5 -38.5zM238 1265h632v-76h-632v76z" />
    <glyph glyph-name="Ebreve" unicode="&#x114;" horiz-adv-x="1456" 
d="M84 62l141 20l34 113v970l-34 110l-126 19l8 62h1189v-395l-43 -11l-43 165l-193 165h-562v-416h296l94 39l45 146l56 -8v-426l-56 -8l-45 142l-88 39h-302v-712h551l193 165l40 168l45 -12v-397h-1193zM569 1580.5q-61 55.5 -69 147.5h56q9 -46 56 -75t112 -29t111.5 29
t55.5 75h57q-8 -92 -69 -147.5t-155 -55.5t-155 55.5z" />
    <glyph glyph-name="ebreve" unicode="&#x115;" horiz-adv-x="1120" 
d="M1035 240q-82 -126 -202.5 -196.5t-257.5 -70.5t-246.5 67.5t-171.5 186t-62 267.5q0 146 60 261.5t166.5 180t242.5 64.5q133 0 235 -60t160 -170t62 -256h-762q11 -111 58 -205t128 -151t192 -57q80 0 141 25.5t104.5 64.5t88.5 95zM386.5 874.5
q-61.5 -38.5 -95.5 -111.5t-35 -174h577q-22 153 -101 238.5t-200 85.5q-84 0 -145.5 -38.5zM400 1197.5q-61 55.5 -69 147.5h56q9 -46 56 -75t112 -29t111.5 29t55.5 75h57q-8 -92 -69 -147.5t-155 -55.5t-155 55.5z" />
    <glyph glyph-name="Edotaccent" unicode="&#x116;" horiz-adv-x="1456" 
d="M84 62l141 20l34 113v970l-34 110l-126 19l8 62h1189v-395l-43 -11l-43 165l-193 165h-562v-416h296l94 39l45 146l56 -8v-426l-56 -8l-45 142l-88 39h-302v-712h551l193 165l40 168l45 -12v-397h-1193zM606 1616v34l102 103h31l102 -103v-34l-102 -100h-31z" />
    <glyph glyph-name="edotaccent" unicode="&#x117;" horiz-adv-x="1120" 
d="M1035 240q-82 -126 -202.5 -196.5t-257.5 -70.5t-246.5 67.5t-171.5 186t-62 267.5q0 146 60 261.5t166.5 180t242.5 64.5q133 0 235 -60t160 -170t62 -256h-762q11 -111 58 -205t128 -151t192 -57q80 0 141 25.5t104.5 64.5t88.5 95zM386.5 874.5
q-61.5 -38.5 -95.5 -111.5t-35 -174h577q-22 153 -101 238.5t-200 85.5q-84 0 -145.5 -38.5zM437 1233v34l102 103h31l102 -103v-34l-102 -100h-31z" />
    <glyph glyph-name="Eogonek" unicode="&#x118;" horiz-adv-x="1456" 
d="M1333 -310v-59q-30 -23 -69 -34t-78 -11q-81 0 -133 41.5t-52 111.5q0 82 66.5 146t164.5 115h-1141l-7 62l141 20l34 113v970l-34 110l-126 19l8 62h1189v-395l-43 -11l-43 165l-193 165h-562v-416h296l94 39l45 146l56 -8v-426l-56 -8l-45 142l-88 39h-302v-712h551
l193 165l40 168l45 -12v-397q-69 -41 -123 -98.5t-54 -119.5q0 -52 33 -87t89 -35q52 0 104 30z" />
    <glyph glyph-name="eogonek" unicode="&#x119;" horiz-adv-x="1120" 
d="M664.5 -86.5q-52.5 -65.5 -52.5 -131.5q0 -52 34 -87t91 -35q53 0 105 30v-60q-31 -22 -70 -33t-78 -11q-80 0 -131.5 41.5t-51.5 111.5q0 68 47.5 131.5t119.5 111.5q-59 -9 -103 -9q-137 0 -246.5 67.5t-171.5 186t-62 267.5q0 146 60 261.5t166.5 180t242.5 64.5
q133 0 235 -60t160 -170t62 -256h-762q11 -111 58 -205t128 -151t192 -57q80 0 141 25.5t104.5 64.5t88.5 95l64 -46q-47 -71 -115 -128t-135 -95q-68 -38 -120.5 -103.5zM386.5 874.5q-61.5 -38.5 -95.5 -111.5t-35 -174h578q-23 153 -102 238.5t-200 85.5
q-84 0 -145.5 -38.5z" />
    <glyph glyph-name="Ecaron" unicode="&#x11a;" horiz-adv-x="1456" 
d="M84 62l141 20l34 113v970l-34 110l-126 19l8 62h1189v-395l-43 -11l-43 165l-193 165h-562v-416h296l94 39l45 146l56 -8v-426l-56 -8l-45 142l-88 39h-302v-712h551l193 165l40 168l45 -12v-397h-1193zM424 1775l22 22l278 -166l277 166l23 -22l-300 -304z" />
    <glyph glyph-name="ecaron" unicode="&#x11b;" horiz-adv-x="1120" 
d="M1035 240q-82 -126 -202.5 -196.5t-257.5 -70.5t-246.5 67.5t-171.5 186t-62 267.5q0 146 60 261.5t166.5 180t242.5 64.5q133 0 235 -60t160 -170t62 -256h-762q11 -111 58 -205t128 -151t192 -57q80 0 141 25.5t104.5 64.5t88.5 95zM386.5 874.5
q-61.5 -38.5 -95.5 -111.5t-35 -174h577q-22 153 -101 238.5t-200 85.5q-84 0 -145.5 -38.5zM255 1392l22 22l278 -166l277 166l23 -22l-300 -304z" />
    <glyph glyph-name="Gcircumflex" unicode="&#x11c;" horiz-adv-x="1550" 
d="M457 67q-157 94 -248 257t-91 361q0 195 84.5 355t233.5 252t332 92q85 0 168 -21t149 -57l137 95h57l16 -459h-62q-70 169 -187 262.5t-262 93.5q-114 0 -221.5 -59t-176.5 -180.5t-69 -299.5q0 -185 73 -332.5t202.5 -231.5t290.5 -84q86 0 152.5 23t131.5 74v325
l-33 111l-129 21l9 63h466l8 -63l-128 -21l-29 -111v-254q-92 -147 -229 -226.5t-300 -79.5q-188 0 -345 94zM493 1489l300 304l300 -304l-23 -22l-277 166l-278 -166z" />
    <glyph glyph-name="gcircumflex" unicode="&#x11d;" horiz-adv-x="1223" 
d="M348 -464.5q-84 31.5 -134 76t-89 100.5v60l183 31q24 -96 95.5 -152.5t171.5 -56.5q136 0 208 101t72 274v181q-51 -82 -139 -129.5t-188 -47.5q-117 0 -216 70.5t-157 192t-58 268.5q0 140 54.5 253.5t150.5 178t214 64.5q144 0 245.5 -85t172.5 -238h17l-101 274
l29 45l294 -64l-12 -62l-140 -9v-877q0 -233 -121 -356.5t-348 -123.5q-120 0 -204 31.5zM757.5 150q63.5 52 97.5 121v394q-50 108 -132 172t-183 64q-84 0 -145.5 -43t-94 -121t-32.5 -183q0 -128 43.5 -232t120 -164t171.5 -60q91 0 154.5 52zM268 1106l300 304l300 -304
l-23 -22l-277 166l-278 -166z" />
    <glyph glyph-name="Gbreve" unicode="&#x11e;" horiz-adv-x="1550" 
d="M457 67q-157 94 -248 257t-91 361q0 195 84.5 355t233.5 252t332 92q85 0 168 -21t149 -57l137 95h57l16 -459h-62q-70 169 -187 262.5t-262 93.5q-114 0 -221.5 -59t-176.5 -180.5t-69 -299.5q0 -185 73 -332.5t202.5 -231.5t290.5 -84q86 0 152.5 23t131.5 74v325
l-33 111l-129 21l9 63h466l8 -63l-128 -21l-29 -111v-254q-92 -147 -229 -226.5t-300 -79.5q-188 0 -345 94zM638 1580.5q-61 55.5 -69 147.5h56q9 -46 56 -75t112 -29t111.5 29t55.5 75h57q-8 -92 -69 -147.5t-155 -55.5t-155 55.5z" />
    <glyph glyph-name="gbreve" unicode="&#x11f;" horiz-adv-x="1223" 
d="M348 -464.5q-84 31.5 -134 76t-89 100.5v60l183 31q24 -96 95.5 -152.5t171.5 -56.5q136 0 208 101t72 274v181q-51 -82 -139 -129.5t-188 -47.5q-117 0 -216 70.5t-157 192t-58 268.5q0 140 54.5 253.5t150.5 178t214 64.5q144 0 245.5 -85t172.5 -238h17l-101 274
l29 45l294 -64l-12 -62l-140 -9v-877q0 -233 -121 -356.5t-348 -123.5q-120 0 -204 31.5zM757.5 150q63.5 52 97.5 121v394q-50 108 -132 172t-183 64q-84 0 -145.5 -43t-94 -121t-32.5 -183q0 -128 43.5 -232t120 -164t171.5 -60q91 0 154.5 52zM413 1197.5
q-61 55.5 -69 147.5h56q9 -46 56 -75t112 -29t111.5 29t55.5 75h57q-8 -92 -69 -147.5t-155 -55.5t-155 55.5z" />
    <glyph glyph-name="Gdotaccent" unicode="&#x120;" horiz-adv-x="1550" 
d="M457 67q-157 94 -248 257t-91 361q0 195 84.5 355t233.5 252t332 92q85 0 168 -21t149 -57l137 95h57l16 -459h-62q-70 169 -187 262.5t-262 93.5q-114 0 -221.5 -59t-176.5 -180.5t-69 -299.5q0 -185 73 -332.5t202.5 -231.5t290.5 -84q86 0 152.5 23t131.5 74v325
l-33 111l-129 21l9 63h466l8 -63l-128 -21l-29 -111v-254q-92 -147 -229 -226.5t-300 -79.5q-188 0 -345 94zM675 1616v34l102 103h31l102 -103v-34l-102 -100h-31z" />
    <glyph glyph-name="gdotaccent" unicode="&#x121;" horiz-adv-x="1223" 
d="M348 -464.5q-84 31.5 -134 76t-89 100.5v60l183 31q24 -96 95.5 -152.5t171.5 -56.5q136 0 208 101t72 274v181q-51 -82 -139 -129.5t-188 -47.5q-117 0 -216 70.5t-157 192t-58 268.5q0 140 54.5 253.5t150.5 178t214 64.5q144 0 245.5 -85t172.5 -238h17l-101 274
l29 45l294 -64l-12 -62l-140 -9v-877q0 -233 -121 -356.5t-348 -123.5q-120 0 -204 31.5zM757.5 150q63.5 52 97.5 121v394q-50 108 -132 172t-183 64q-84 0 -145.5 -43t-94 -121t-32.5 -183q0 -128 43.5 -232t120 -164t171.5 -60q91 0 154.5 52zM450 1233v34l102 103h31
l102 -103v-34l-102 -100h-31z" />
    <glyph glyph-name="uni0122" unicode="&#x122;" horiz-adv-x="1550" 
d="M457 67q-157 94 -248 257t-91 361q0 195 84.5 355t233.5 252t332 92q85 0 168 -21t149 -57l137 95h57l16 -459h-62q-70 169 -187 262.5t-262 93.5q-114 0 -221.5 -59t-176.5 -180.5t-69 -299.5q0 -185 73 -332.5t202.5 -231.5t290.5 -84q86 0 152.5 23t131.5 74v325
l-33 111l-129 21l9 63h466l8 -63l-128 -21l-29 -111v-254q-92 -147 -229 -226.5t-300 -79.5q-188 0 -345 94zM704 -461q42 21 65.5 50t23.5 60q0 14 -3 26l-107 88v31l93 92h26q39 -15 69.5 -53.5t30.5 -89.5q0 -83 -47.5 -145t-138.5 -94z" />
    <glyph glyph-name="uni0123" unicode="&#x123;" horiz-adv-x="1223" 
d="M495.5 1153q-30.5 39 -30.5 89q0 83 48 145.5t138 94.5l12 -36q-42 -20 -65.5 -49t-23.5 -61q0 -14 3 -26l107 -88v-31l-93 -92h-26q-39 15 -69.5 54zM348 -464.5q-84 31.5 -134 76t-89 100.5v60l183 31q24 -96 95.5 -152.5t171.5 -56.5q136 0 208 101t72 274v181
q-51 -82 -139 -129.5t-188 -47.5q-117 0 -216 70.5t-157 192t-58 268.5q0 140 54.5 253.5t150.5 178t214 64.5q144 0 245.5 -85t172.5 -238h17l-101 274l29 45l294 -64l-12 -62l-140 -9v-877q0 -233 -121 -356.5t-348 -123.5q-120 0 -204 31.5zM757.5 150q63.5 52 97.5 121
v394q-50 108 -132 172t-183 64q-84 0 -145.5 -43t-94 -121t-32.5 -183q0 -128 43.5 -232t120 -164t171.5 -60q91 0 154.5 52z" />
    <glyph glyph-name="Hcircumflex" unicode="&#x124;" horiz-adv-x="1560" 
d="M86 62l142 20l31 113v967l-31 113l-142 19l8 62h530l8 -62l-142 -19l-33 -113v-290h645v290l-33 113l-142 19l8 62h529l8 -62l-142 -19l-32 -115v-965l32 -113l144 -20l-8 -62h-508l-8 62l119 20l33 113v601h-647v-601l33 -113l120 -20l-9 -62h-505zM481 1489l300 304
l300 -304l-23 -22l-277 166l-278 -166z" />
    <glyph glyph-name="hcircumflex" unicode="&#x125;" horiz-adv-x="1154" 
d="M1107 62l-8 -62h-430l-8 62l108 20l32 113v441q0 73 -11 125t-48 86t-109 34q-89 0 -157 -55.5t-117 -140.5v-489l31 -113l109 -21l-7 -62h-428l-8 62l107 21l31 113v1045l-155 95v43l114 5l250 116l42 -38l-86 -102v-557q144 197 343 197q128 0 196.5 -78.5t68.5 -236.5
v-490l33 -113zM286 1548l300 304l300 -304l-23 -22l-277 166l-278 -166z" />
    <glyph glyph-name="Hbar" unicode="&#x126;" horiz-adv-x="1560" 
d="M1474 62l-8 -62h-508l-8 62l119 20l33 113v601h-647v-601l33 -113l120 -20l-9 -62h-505l-8 62l142 20l31 113v815h-106v76h106v76l-31 113l-142 19l8 62h530l8 -62l-142 -19l-33 -113v-76h645v76l-33 113l-142 19l8 62h529l8 -62l-142 -19l-32 -115v-74h114v-76h-114
v-815l32 -113zM1102 872v138h-645v-138h645z" />
    <glyph glyph-name="hbar" unicode="&#x127;" horiz-adv-x="1154" 
d="M1107 62l-8 -62h-430l-8 62l108 20l32 113v441q0 73 -11 125t-48 86t-109 34q-89 0 -157 -55.5t-117 -140.5v-489l31 -113l109 -21l-7 -62h-428l-8 62l107 21l31 113v890h-145v76h145v79l-155 95v43l114 5l250 116l42 -38l-86 -102v-198h303v-76h-303v-283
q144 197 343 197q128 0 196.5 -78.5t68.5 -236.5v-490l33 -113z" />
    <glyph glyph-name="Itilde" unicode="&#x128;" horiz-adv-x="717" 
d="M87 62l142 20l31 113v967l-31 111l-142 21l8 62h529l8 -62l-142 -21l-33 -111v-967l33 -113l142 -20l-8 -62h-529zM427.5 1540q-31.5 15 -70.5 44q-34 26 -59.5 38.5t-56.5 12.5q-77 0 -148 -89l-32 28q39 81 88 124.5t113 43.5q40 0 69.5 -14t67.5 -42q39 -28 65.5 -41
t62.5 -13q80 0 138 90l32 -33q-68 -164 -195 -164q-43 0 -74.5 15z" />
    <glyph glyph-name="itilde" unicode="&#x129;" horiz-adv-x="590" 
d="M84 62l107 21l31 104v574l-153 91v43l113 8l247 115l42 -39l-83 -99v-693l31 -104l107 -21l-8 -62h-427zM359.5 1157q-31.5 15 -70.5 44q-34 26 -59.5 38.5t-56.5 12.5q-77 0 -148 -89l-32 28q39 81 88 124.5t113 43.5q40 0 69.5 -14t67.5 -42q39 -28 65.5 -41t62.5 -13
q80 0 138 90l32 -33q-68 -164 -195 -164q-43 0 -74.5 15z" />
    <glyph glyph-name="Imacron" unicode="&#x12a;" horiz-adv-x="717" 
d="M87 62l142 20l31 113v967l-31 111l-142 21l8 62h529l8 -62l-142 -21l-33 -111v-967l33 -113l142 -20l-8 -62h-529zM43 1648h632v-76h-632v76z" />
    <glyph glyph-name="imacron" unicode="&#x12b;" horiz-adv-x="590" 
d="M84 62l107 21l31 104v574l-153 91v43l113 8l247 115l42 -39l-83 -99v-693l31 -104l107 -21l-8 -62h-427zM-25 1265h632v-76h-632v76z" />
    <glyph glyph-name="Ibreve" unicode="&#x12c;" horiz-adv-x="717" 
d="M87 62l142 20l31 113v967l-31 111l-142 21l8 62h529l8 -62l-142 -21l-33 -111v-967l33 -113l142 -20l-8 -62h-529zM205 1580.5q-61 55.5 -69 147.5h56q9 -46 56 -75t112 -29t111.5 29t55.5 75h57q-8 -92 -69 -147.5t-155 -55.5t-155 55.5z" />
    <glyph glyph-name="ibreve" unicode="&#x12d;" horiz-adv-x="590" 
d="M84 62l107 21l31 104v574l-153 91v43l113 8l247 115l42 -39l-83 -99v-693l31 -104l107 -21l-8 -62h-427zM137 1197.5q-61 55.5 -69 147.5h56q9 -46 56 -75t112 -29t111.5 29t55.5 75h57q-8 -92 -69 -147.5t-155 -55.5t-155 55.5z" />
    <glyph glyph-name="Iogonek" unicode="&#x12e;" horiz-adv-x="717" 
d="M490 82l142 -20l-8 -62h-197q-59 -43 -100 -100.5t-41 -117.5q0 -52 33.5 -87.5t88.5 -35.5q51 0 105 31v-60q-30 -23 -69 -34t-79 -11q-81 0 -132.5 41.5t-51.5 112.5q0 74 56 142t139 119h-281l-8 62l142 20l31 113v967l-31 111l-142 21l8 62h529l8 -62l-142 -21
l-33 -111v-967z" />
    <glyph glyph-name="iogonek" unicode="&#x12f;" horiz-adv-x="590" 
d="M276 1133l-102 100v34l102 103h31l102 -103v-34l-102 -100h-31zM249.5 -100.5q-40.5 -57.5 -40.5 -117.5q0 -52 33 -87t89 -35q52 0 104 30v-59q-30 -23 -69 -34t-78 -11q-81 0 -133 41.5t-52 111.5q0 74 55.5 142t137.5 119h-205l-7 62l107 21l31 104v574l-153 91v43
l113 8l247 115l42 -39l-83 -99v-693l31 -104l107 -21l-8 -62h-170q-58 -43 -98.5 -100.5z" />
    <glyph glyph-name="Idotaccent" unicode="&#x130;" horiz-adv-x="717" 
d="M87 62l142 20l31 113v967l-31 111l-142 21l8 62h529l8 -62l-142 -21l-33 -111v-967l33 -113l142 -20l-8 -62h-529zM242 1616v34l102 103h31l102 -103v-34l-102 -100h-31z" />
    <glyph glyph-name="dotlessi" unicode="&#x131;" horiz-adv-x="590" 
d="M84 62l107 21l31 104v574l-153 91v43l113 8l247 115l42 -39l-83 -99v-693l31 -104l107 -21l-8 -62h-427z" />
    <glyph glyph-name="IJ" unicode="&#x132;" horiz-adv-x="1394" 
d="M87 62l142 20l31 113v967l-31 111l-142 21l8 62h529l8 -62l-142 -21l-33 -111v-967l33 -113l142 -20l-8 -62h-529zM701 -461q60 46 113.5 105t98 167.5t44.5 260.5v1094l-31 109l-140 19l8 62h523l8 -62l-140 -19l-31 -109v-1081q0 -184 -74.5 -304t-162.5 -177
t-189 -100z" />
    <glyph glyph-name="ij" unicode="&#x133;" horiz-adv-x="1143" 
d="M84 62l107 21l31 104v574l-153 91v43l113 8l247 115l42 -39l-83 -99v-693l31 -104l107 -21l-8 -62h-427zM174 1233v34l102 103h31l102 -103v-34l-102 -100h-31zM586 -461q206 163 206 451v771l-154 91v43l113 8l248 115l43 -39l-84 -99v-878q0 -153 -60 -256t-133.5 -155
t-153.5 -87zM735 1233v34l102 103h31l102 -103v-34l-102 -100h-31z" />
    <glyph glyph-name="Jcircumflex" unicode="&#x134;" horiz-adv-x="677" 
d="M-16 -461q60 46 113.5 105t98 167.5t44.5 260.5v1094l-31 109l-140 19l8 62h523l8 -62l-140 -19l-31 -109v-1081q0 -184 -74.5 -304t-162.5 -177t-189 -100zM39 1489l300 304l300 -304l-23 -22l-277 166l-278 -166z" />
    <glyph glyph-name="jcircumflex" unicode="&#x135;" horiz-adv-x="553" 
d="M-4 -461q206 163 206 451v771l-154 91v43l113 8l248 115l43 -39l-84 -99v-878q0 -153 -60 -256t-133.5 -155t-153.5 -87zM-37 1106l300 304l300 -304l-23 -22l-277 166l-278 -166z" />
    <glyph glyph-name="uni0136" unicode="&#x136;" horiz-adv-x="1520" 
d="M1461 62l-8 -62h-556l-8 62l142 20l25 93l-326 691l-273 -212v-459l33 -113l142 -20l-8 -62h-529l-8 62l142 20l31 113v961l-31 119l-142 19l8 62h529l8 -62l-142 -19l-33 -119v-395l580 445l-20 69l-144 19l10 62h519l8 -62l-120 -28l-84 -38l-321 -245l387 -812l80 -87
zM683 -461q42 21 65.5 50t23.5 60q0 14 -3 26l-107 88v31l93 92h26q39 -15 69.5 -53.5t30.5 -89.5q0 -83 -47.5 -145t-138.5 -94z" />
    <glyph glyph-name="uni0137" unicode="&#x137;" horiz-adv-x="1099" 
d="M1070 62l-8 -62h-426l-8 62l107 22l22 70l-222 427l-176 -113v-272l31 -113l109 -21l-7 -62h-428l-8 62l107 21l31 113v1045l-155 95v43l114 5l250 116l42 -38l-86 -102v-799l407 328l5 93l32 26l208 -177l-34 -35l-59 17l-35 -6l-222 -143l267 -511l68 -70zM477 -461
q42 21 65.5 50t23.5 60q0 14 -3 26l-107 88v31l93 92h26q39 -15 69.5 -53.5t30.5 -89.5q0 -83 -47.5 -145t-138.5 -94z" />
    <glyph glyph-name="Lacute" unicode="&#x139;" horiz-adv-x="1369" 
d="M93 62l136 21l31 112v967l-31 113l-142 19l8 62h529l8 -62l-142 -19l-33 -107v-974l48 -118h568l149 328l64 -5l-51 -399h-1134zM424 1517l419 254h101l20 -29v-79l-525 -179z" />
    <glyph glyph-name="lacute" unicode="&#x13a;" horiz-adv-x="556" 
d="M56 62l107 21l31 113v1045l-155 95v43l114 5l250 116l42 -38l-86 -102v-1164l31 -113l109 -21l-7 -62h-428zM43 1607l419 254h101l20 -29v-79l-525 -179z" />
    <glyph glyph-name="uni013B" unicode="&#x13b;" horiz-adv-x="1369" 
d="M93 62l136 21l31 112v967l-31 113l-142 19l8 62h529l8 -62l-142 -19l-33 -107v-974l48 -118h568l149 328l64 -5l-51 -399h-1134zM658 -461q42 21 65.5 50t23.5 60q0 14 -3 26l-107 88v31l93 92h26q39 -15 69.5 -53.5t30.5 -89.5q0 -83 -47.5 -145t-138.5 -94z" />
    <glyph glyph-name="uni013C" unicode="&#x13c;" horiz-adv-x="556" 
d="M56 62l107 21l31 113v1045l-155 95v43l114 5l250 116l42 -38l-86 -102v-1164l31 -113l109 -21l-7 -62h-428zM177 -461q42 21 65.5 50t23.5 60q0 14 -3 26l-107 88v31l93 92h26q39 -15 69.5 -53.5t30.5 -89.5q0 -83 -47.5 -145t-138.5 -94z" />
    <glyph glyph-name="Lcaron" unicode="&#x13d;" horiz-adv-x="1369" 
d="M93 62l136 21l31 112v967l-31 113l-142 19l8 62h529l8 -62l-142 -19l-33 -107v-974l48 -118h568l149 328l64 -5l-51 -399h-1134zM878 1010q42 20 65.5 49t23.5 61q0 14 -3 26l-107 87v31l93 92h26q39 -15 69.5 -53.5t30.5 -88.5q0 -83 -48 -145.5t-138 -94.5z" />
    <glyph glyph-name="lcaron" unicode="&#x13e;" horiz-adv-x="556" 
d="M56 62l107 21l31 113v1045l-155 95v43l114 5l250 116l42 -38l-86 -102v-1164l31 -113l109 -21l-7 -62h-428zM502 1118q42 20 65.5 49t23.5 61q0 14 -3 26l-107 87v31l93 92h26q39 -15 69.5 -53.5t30.5 -88.5q0 -83 -48 -145.5t-138 -94.5z" />
    <glyph glyph-name="Ldot" unicode="&#x13f;" horiz-adv-x="1369" 
d="M93 62l136 21l31 112v967l-31 113l-142 19l8 62h529l8 -62l-142 -19l-33 -107v-974l48 -118h568l149 328l64 -5l-51 -399h-1134zM861 691v35l116 118h32l115 -118v-35l-115 -117h-32z" />
    <glyph glyph-name="ldot" unicode="&#x140;" horiz-adv-x="773" 
d="M56 62l107 21l31 113v1045l-155 95v43l114 5l250 116l42 -38l-86 -102v-1164l31 -113l109 -21l-7 -62h-428zM523 693v36l124 127h33l125 -127v-36l-125 -127h-33z" />
    <glyph glyph-name="Lslash" unicode="&#x141;" horiz-adv-x="1403" 
d="M1320 399l-51 -399h-1134l-8 62l136 21l31 112v359l-180 -108v93l180 108v515l-31 113l-142 19l8 62h529l8 -62l-142 -19l-33 -107v-404l349 209v-93l-349 -209v-477l48 -118h568l149 328z" />
    <glyph glyph-name="lslash" unicode="&#x142;" horiz-adv-x="623" 
d="M395 743v-547l31 -113l109 -21l-7 -62h-428l-8 62l107 21l31 113v435l-150 -102v92l150 102v518l-155 95v43l114 5l250 116l42 -38l-86 -102v-525l155 105v-92z" />
    <glyph glyph-name="Nacute" unicode="&#x143;" horiz-adv-x="1502" 
d="M1434 1294l-138 -19l-33 -111v-1164h-41l-872 1065v-870l25 -113l127 -20l-8 -62h-397l-9 62l137 20l36 110v972l-36 111l-137 19l9 62h285l791 -964v770l-27 113l-126 19l9 62h397zM525 1517l419 254h101l20 -29v-79l-525 -179z" />
    <glyph glyph-name="nacute" unicode="&#x144;" horiz-adv-x="1184" 
d="M82 62l107 20l33 113v666l-140 9l-12 62l302 66l29 -47l-91 -256h12q162 305 410 305q128 0 196.5 -78.5t68.5 -236.5v-490l32 -113l108 -20l-8 -62h-430l-8 62l108 20l32 113v441q0 73 -11 125t-48 86t-109 34q-90 0 -158.5 -56.5t-117.5 -142.5v-487l34 -113l106 -20
l-7 -62h-431zM365 1134l419 254h101l20 -29v-79l-525 -179z" />
    <glyph glyph-name="uni0145" unicode="&#x145;" horiz-adv-x="1502" 
d="M1434 1294l-138 -19l-33 -111v-1164h-41l-872 1065v-870l25 -113l127 -20l-8 -62h-397l-9 62l137 20l36 110v972l-36 111l-137 19l9 62h285l791 -964v770l-27 113l-126 19l9 62h397zM690 -461q42 21 65.5 50t23.5 60q0 14 -3 26l-107 88v31l93 92h26q39 -15 69.5 -53.5
t30.5 -89.5q0 -83 -47.5 -145t-138.5 -94z" />
    <glyph glyph-name="uni0146" unicode="&#x146;" horiz-adv-x="1184" 
d="M82 62l107 20l33 113v666l-140 9l-12 62l302 66l29 -47l-91 -256h12q162 305 410 305q128 0 196.5 -78.5t68.5 -236.5v-490l32 -113l108 -20l-8 -62h-430l-8 62l108 20l32 113v441q0 73 -11 125t-48 86t-109 34q-90 0 -158.5 -56.5t-117.5 -142.5v-487l34 -113l106 -20
l-7 -62h-431zM520 -461q42 21 65.5 50t23.5 60q0 14 -3 26l-107 88v31l93 92h26q39 -15 69.5 -53.5t30.5 -89.5q0 -83 -47.5 -145t-138.5 -94z" />
    <glyph glyph-name="Ncaron" unicode="&#x147;" horiz-adv-x="1502" 
d="M1434 1294l-138 -19l-33 -111v-1164h-41l-872 1065v-870l25 -113l127 -20l-8 -62h-397l-9 62l137 20l36 110v972l-36 111l-137 19l9 62h285l791 -964v770l-27 113l-126 19l9 62h397zM459 1775l22 22l278 -166l277 166l23 -22l-300 -304z" />
    <glyph glyph-name="ncaron" unicode="&#x148;" horiz-adv-x="1184" 
d="M82 62l107 20l33 113v666l-140 9l-12 62l302 66l29 -47l-91 -256h12q162 305 410 305q128 0 196.5 -78.5t68.5 -236.5v-490l32 -113l108 -20l-8 -62h-430l-8 62l108 20l32 113v441q0 73 -11 125t-48 86t-109 34q-90 0 -158.5 -56.5t-117.5 -142.5v-487l34 -113l106 -20
l-7 -62h-431zM299 1392l22 22l278 -166l277 166l23 -22l-300 -304z" />
    <glyph glyph-name="Eng" unicode="&#x14a;" horiz-adv-x="1502" 
d="M839 -461q96 61 181.5 174.5t85.5 292.5v136l-756 924v-871l25 -113l127 -20l-8 -62h-397l-9 62l137 20l36 110v972l-36 111l-137 19l9 62h285l791 -965v771l-27 113l-126 19l9 62h397l8 -62l-138 -19l-33 -111v-1164q0 -154 -71 -257.5t-155.5 -154.5t-171.5 -84z" />
    <glyph glyph-name="eng" unicode="&#x14b;" horiz-adv-x="1158" 
d="M627 -464q78 61 140.5 168.5t62.5 283.5v648q0 71 -12.5 123.5t-50.5 87t-110 34.5q-90 0 -155.5 -57t-115.5 -147v-482l34 -113l106 -20l-7 -62h-431l-7 62l107 20l33 113v666l-140 9l-12 62l302 66l29 -47l-91 -256h11q85 159 188 232t223 73q128 0 196.5 -78.5
t68.5 -236.5v-685q0 -152 -60 -255t-134.5 -155t-152.5 -86z" />
    <glyph glyph-name="Omacron" unicode="&#x14c;" horiz-adv-x="1572" 
d="M465.5 62.5q-157.5 89.5 -252 251t-94.5 369.5q0 192 82 352.5t229.5 254.5t334.5 94q183 0 340.5 -89.5t252 -251.5t94.5 -370q0 -192 -82 -352t-229.5 -254t-334.5 -94q-183 0 -340.5 89.5zM1086 142.5q85 58.5 131 167t46 254.5q0 193 -76 355.5t-208 257.5t-294 95
q-115 0 -200 -59t-131 -168t-46 -255q0 -193 76.5 -354.5t209 -256.5t293.5 -95q114 0 199 58.5zM478 1648h632v-76h-632v76z" />
    <glyph glyph-name="omacron" unicode="&#x14d;" horiz-adv-x="1157" 
d="M335.5 38.5q-112.5 65.5 -177.5 183.5t-65 268q0 144 60.5 260.5t169.5 183t248 66.5q138 0 250.5 -65.5t177.5 -183.5t65 -268q0 -144 -60.5 -260.5t-170 -183t-248.5 -66.5q-137 0 -249.5 65.5zM779.5 108q58.5 41 91 116.5t32.5 175.5q0 131 -53.5 248t-143.5 187.5
t-193 70.5q-77 0 -136 -41t-91.5 -116.5t-32.5 -175.5q0 -131 54 -248t144 -187.5t193 -70.5q77 0 135.5 41zM268 1265h632v-76h-632v76z" />
    <glyph glyph-name="Obreve" unicode="&#x14e;" horiz-adv-x="1572" 
d="M465.5 62.5q-157.5 89.5 -252 251t-94.5 369.5q0 192 82 352.5t229.5 254.5t334.5 94q183 0 340.5 -89.5t252 -251.5t94.5 -370q0 -192 -82 -352t-229.5 -254t-334.5 -94q-183 0 -340.5 89.5zM1086 142.5q85 58.5 131 167t46 254.5q0 193 -76 355.5t-208 257.5t-294 95
q-115 0 -200 -59t-131 -168t-46 -255q0 -193 76.5 -354.5t209 -256.5t293.5 -95q114 0 199 58.5zM640 1580.5q-61 55.5 -69 147.5h56q9 -46 56 -75t112 -29t111.5 29t55.5 75h57q-8 -92 -69 -147.5t-155 -55.5t-155 55.5z" />
    <glyph glyph-name="obreve" unicode="&#x14f;" horiz-adv-x="1157" 
d="M335.5 38.5q-112.5 65.5 -177.5 183.5t-65 268q0 144 60.5 260.5t169.5 183t248 66.5q138 0 250.5 -65.5t177.5 -183.5t65 -268q0 -144 -60.5 -260.5t-170 -183t-248.5 -66.5q-137 0 -249.5 65.5zM779.5 108q58.5 41 91 116.5t32.5 175.5q0 131 -53.5 248t-143.5 187.5
t-193 70.5q-77 0 -136 -41t-91.5 -116.5t-32.5 -175.5q0 -131 54 -248t144 -187.5t193 -70.5q77 0 135.5 41zM430 1197.5q-61 55.5 -69 147.5h56q9 -46 56 -75t112 -29t111.5 29t55.5 75h57q-8 -92 -69 -147.5t-155 -55.5t-155 55.5z" />
    <glyph glyph-name="Ohungarumlaut" unicode="&#x150;" horiz-adv-x="1572" 
d="M465.5 62.5q-157.5 89.5 -252 251t-94.5 369.5q0 192 82 352.5t229.5 254.5t334.5 94q183 0 340.5 -89.5t252 -251.5t94.5 -370q0 -192 -82 -352t-229.5 -254t-334.5 -94q-183 0 -340.5 89.5zM1086 142.5q85 58.5 131 167t46 254.5q0 193 -76 355.5t-208 257.5t-294 95
q-115 0 -200 -59t-131 -168t-46 -255q0 -193 76.5 -354.5t209 -256.5t293.5 -95q114 0 199 58.5zM501 1522l272 265h113l18 -28l-28 -89l-352 -181zM892 1522l272 265h113l18 -28l-28 -89l-352 -181z" />
    <glyph glyph-name="ohungarumlaut" unicode="&#x151;" horiz-adv-x="1157" 
d="M335.5 38.5q-112.5 65.5 -177.5 183.5t-65 268q0 144 60.5 260.5t169.5 183t248 66.5q138 0 250.5 -65.5t177.5 -183.5t65 -268q0 -144 -60.5 -260.5t-170 -183t-248.5 -66.5q-137 0 -249.5 65.5zM779.5 108q58.5 41 91 116.5t32.5 175.5q0 131 -53.5 248t-143.5 187.5
t-193 70.5q-77 0 -136 -41t-91.5 -116.5t-32.5 -175.5q0 -131 54 -248t144 -187.5t193 -70.5q77 0 135.5 41zM291 1139l272 265h113l18 -28l-28 -89l-352 -181zM682 1139l272 265h113l18 -28l-28 -89l-352 -181z" />
    <glyph glyph-name="OE" unicode="&#x152;" horiz-adv-x="2140" 
d="M1139 1280v-416h295l94 39l45 146l56 -8v-426l-56 -8l-45 142l-88 39h-301v-712h550l193 165l41 168l45 -12v-397h-1078q-43 -6 -89 -6q-190 0 -346.5 90.5t-246.5 248.5t-90 350q0 191 83.5 346.5t230.5 244.5t328 89q54 0 97 -7h1122v-395l-42 -11l-43 165l-193 165
h-562zM382 448.5q76 -155.5 208 -246.5t291 -91q13 0 37 2l25 82v970l-2 7q-121 73 -261 73q-113 0 -198 -55.5t-130.5 -158.5t-45.5 -241q0 -186 76 -341.5z" />
    <glyph glyph-name="oe" unicode="&#x153;" horiz-adv-x="1924" 
d="M1838 240q-82 -126 -202.5 -196.5t-257.5 -70.5q-126 0 -228.5 56.5t-166.5 157.5q-64 -100 -167 -157t-231 -57q-137 0 -249.5 65.5t-177.5 183.5t-65 268q0 144 60.5 260.5t169.5 183t248 66.5q127 0 233 -56t172 -156q62 100 163.5 156t227.5 56q133 0 235 -60
t160 -170t62 -256h-761l1 -13q13 -108 60 -199t127.5 -146t188.5 -55q80 0 141 25.5t104.5 64.5t88.5 95zM1189.5 874.5q-61.5 -38.5 -95.5 -111.5t-35 -174h577q-22 153 -101 238.5t-200 85.5q-84 0 -145.5 -38.5zM903 415q-3 19 -5 60q-14 116 -70 215t-139 157.5
t-176 58.5q-77 0 -136 -41t-91.5 -116.5t-32.5 -175.5q0 -131 54 -248t144 -187.5t193 -70.5q77 0 135.5 41t91 116.5t32.5 175.5v15z" />
    <glyph glyph-name="Racute" unicode="&#x154;" horiz-adv-x="1494" 
d="M1447 62l-3 -62h-387l-354 652h-246v-457l32 -113l142 -20l-8 -62h-530l-7 62l141 20l34 113v967l-34 113l-141 19l7 62h710q148 0 254 -41.5t162 -119.5t56 -186q0 -117 -64 -196.5t-171 -119t-237 -41.5l162 -99l270 -460zM457 728h306q93 0 164 34.5t110 97.5t39 146
t-38 145t-110 95.5t-171 33.5h-169l-131 -54v-498zM453 1517l419 254h101l20 -29v-79l-525 -179z" />
    <glyph glyph-name="racute" unicode="&#x155;" horiz-adv-x="846" 
d="M82 62l107 20l33 113v666l-140 9l-12 62l306 66l29 -47l-97 -256h19q166 305 346 305q79 0 137 -53l-91 -168h-54q-41 64 -103 64q-43 0 -85 -39t-90 -130v-479l34 -113l106 -20l-7 -62h-431zM196 1134l419 254h101l20 -29v-79l-525 -179z" />
    <glyph glyph-name="uni0156" unicode="&#x156;" horiz-adv-x="1494" 
d="M1447 62l-3 -62h-387l-354 652h-246v-457l32 -113l142 -20l-8 -62h-530l-7 62l141 20l34 113v967l-34 113l-141 19l7 62h710q148 0 254 -41.5t162 -119.5t56 -186q0 -117 -64 -196.5t-171 -119t-237 -41.5l162 -99l270 -460zM457 728h306q93 0 164 34.5t110 97.5t39 146
t-38 145t-110 95.5t-171 33.5h-169l-131 -54v-498zM726 -461q42 21 65.5 50t23.5 60q0 14 -3 26l-107 88v31l93 92h26q39 -15 69.5 -53.5t30.5 -89.5q0 -83 -47.5 -145t-138.5 -94z" />
    <glyph glyph-name="uni0157" unicode="&#x157;" horiz-adv-x="846" 
d="M82 62l107 20l33 113v666l-140 9l-12 62l306 66l29 -47l-97 -256h19q166 305 346 305q79 0 137 -53l-91 -168h-54q-41 64 -103 64q-43 0 -85 -39t-90 -130v-479l34 -113l106 -20l-7 -62h-431zM238 -461q42 21 65.5 50t23.5 60q0 14 -3 26l-107 88v31l93 92h26
q39 -15 69.5 -53.5t30.5 -89.5q0 -83 -47.5 -145t-138.5 -94z" />
    <glyph glyph-name="Rcaron" unicode="&#x158;" horiz-adv-x="1494" 
d="M1447 62l-3 -62h-387l-354 652h-246v-457l32 -113l142 -20l-8 -62h-530l-7 62l141 20l34 113v967l-34 113l-141 19l7 62h710q148 0 254 -41.5t162 -119.5t56 -186q0 -117 -64 -196.5t-171 -119t-237 -41.5l162 -99l270 -460zM457 728h306q93 0 164 34.5t110 97.5t39 146
t-38 145t-110 95.5t-171 33.5h-169l-131 -54v-498zM387 1775l22 22l278 -166l277 166l23 -22l-300 -304z" />
    <glyph glyph-name="rcaron" unicode="&#x159;" horiz-adv-x="846" 
d="M82 62l107 20l33 113v666l-140 9l-12 62l306 66l29 -47l-97 -256h19q166 305 346 305q79 0 137 -53l-91 -168h-54q-41 64 -103 64q-43 0 -85 -39t-90 -130v-479l34 -113l106 -20l-7 -62h-431zM130 1392l22 22l278 -166l277 166l23 -22l-300 -304z" />
    <glyph glyph-name="Sacute" unicode="&#x15a;" horiz-adv-x="1307" 
d="M495 7.5q-103 34.5 -173 94.5l-114 -121l-51 25v432l46 11l55 -164q90 -114 200.5 -170.5t229.5 -56.5q90 0 159.5 32t107 88t37.5 128q0 83 -50 140.5t-123 93.5t-201 85q-144 55 -231 100t-148 121t-61 191q0 107 53 185.5t144.5 120t202.5 41.5q105 0 197 -32.5
t181 -96.5l113 119l51 -25v-436l-47 -12l-64 181q-78 105 -184.5 160.5t-220.5 55.5q-77 0 -136 -24.5t-92 -70t-33 -105.5q0 -73 47.5 -124.5t118 -86.5t193.5 -82q153 -59 246 -108.5t159 -133t66 -207.5q0 -113 -57 -200t-161 -135t-241 -48q-116 0 -219 34.5zM386 1517
l419 254h101l20 -29v-79l-525 -179z" />
    <glyph glyph-name="sacute" unicode="&#x15b;" horiz-adv-x="999" 
d="M379 -1q-75 26 -125 67l-82 -85l-47 23v321l47 11l41 -120q123 -162 308 -162q94 0 151 41.5t57 116.5q0 59 -35 99t-87 64.5t-142 56.5q-104 36 -167 67.5t-107.5 87.5t-44.5 143t42.5 148t112 91.5t148.5 30.5q137 0 268 -85l79 80l47 -24v-325l-46 -12l-47 138
q-49 65 -122.5 106t-160.5 41q-84 0 -134 -38.5t-50 -104.5q0 -54 34 -90.5t85 -60t140 -54.5q108 -37 174.5 -70t113.5 -91t47 -148q0 -88 -43.5 -153.5t-120.5 -100.5t-173 -35q-86 0 -161 26zM259 1134l419 254h101l20 -29v-79l-525 -179z" />
    <glyph glyph-name="Scircumflex" unicode="&#x15c;" horiz-adv-x="1307" 
d="M495 7.5q-103 34.5 -173 94.5l-114 -121l-51 25v432l46 11l55 -164q90 -114 200.5 -170.5t229.5 -56.5q90 0 159.5 32t107 88t37.5 128q0 83 -50 140.5t-123 93.5t-201 85q-144 55 -231 100t-148 121t-61 191q0 107 53 185.5t144.5 120t202.5 41.5q105 0 197 -32.5
t181 -96.5l113 119l51 -25v-436l-47 -12l-64 181q-78 105 -184.5 160.5t-220.5 55.5q-77 0 -136 -24.5t-92 -70t-33 -105.5q0 -73 47.5 -124.5t118 -86.5t193.5 -82q153 -59 246 -108.5t159 -133t66 -207.5q0 -113 -57 -200t-161 -135t-241 -48q-116 0 -219 34.5zM320 1489
l300 304l300 -304l-23 -22l-277 166l-278 -166z" />
    <glyph glyph-name="scircumflex" unicode="&#x15d;" horiz-adv-x="999" 
d="M379 -1q-75 26 -125 67l-82 -85l-47 23v321l47 11l41 -120q123 -162 308 -162q94 0 151 41.5t57 116.5q0 59 -35 99t-87 64.5t-142 56.5q-104 36 -167 67.5t-107.5 87.5t-44.5 143t42.5 148t112 91.5t148.5 30.5q137 0 268 -85l79 80l47 -24v-325l-46 -12l-47 138
q-49 65 -122.5 106t-160.5 41q-84 0 -134 -38.5t-50 -104.5q0 -54 34 -90.5t85 -60t140 -54.5q108 -37 174.5 -70t113.5 -91t47 -148q0 -88 -43.5 -153.5t-120.5 -100.5t-173 -35q-86 0 -161 26zM193 1106l300 304l300 -304l-23 -22l-277 166l-278 -166z" />
    <glyph glyph-name="Scedilla" unicode="&#x15e;" horiz-adv-x="1307" 
d="M1116.5 156.5q-56.5 -86.5 -160 -135t-240.5 -48.5l-47 -102q42 16 77 16q65 0 110.5 -34t45.5 -97q0 -49 -29.5 -84.5t-77.5 -54t-102 -18.5q-53 0 -95.5 16t-67.5 37l20 35q21 -17 54.5 -28t69.5 -11q49 0 76.5 24t27.5 70q0 43 -27.5 63.5t-70.5 20.5q-35 0 -73 -15
l-19 21l70 143q-101 8 -188 41.5t-148 85.5l-114 -121l-51 25v432l46 11l55 -164q90 -114 200.5 -170.5t229.5 -56.5q90 0 159.5 32t107 88t37.5 128q0 83 -50 140.5t-123 93.5t-201 85q-144 55 -231 100t-148 121t-61 191q0 107 53 185.5t144.5 120t202.5 41.5
q105 0 197 -32.5t181 -96.5l113 119l51 -25v-436l-47 -12l-64 181q-78 105 -184.5 160.5t-220.5 55.5q-77 0 -136 -24.5t-92 -70t-33 -105.5q0 -73 47.5 -124.5t118 -86.5t193.5 -82q153 -59 246 -108.5t159 -133t66 -207.5q0 -113 -56.5 -199.5z" />
    <glyph glyph-name="scedilla" unicode="&#x15f;" horiz-adv-x="999" 
d="M533 -27l-47 -102q42 16 77 16q65 0 110.5 -34t45.5 -97q0 -49 -29.5 -84.5t-77.5 -54t-102 -18.5q-53 0 -95.5 16t-67.5 37l20 35q21 -17 54.5 -28t69.5 -11q49 0 76.5 24t27.5 70q0 43 -27.5 63.5t-70.5 20.5q-35 0 -73 -15l-19 21l71 145q-67 9 -124.5 32.5
t-97.5 56.5l-82 -85l-47 23v321l47 11l41 -120q123 -162 308 -162q94 0 151 41.5t57 116.5q0 59 -35 99t-87 64.5t-142 56.5q-104 36 -167 67.5t-107.5 87.5t-44.5 143t42.5 148t112 91.5t148.5 30.5q137 0 268 -85l79 80l47 -24v-325l-46 -12l-47 138q-49 65 -122.5 106
t-160.5 41q-84 0 -134 -38.5t-50 -104.5q0 -54 34 -90.5t85 -60t140 -54.5q108 -37 174.5 -70t113.5 -91t47 -148q0 -88 -43.5 -153.5t-120.5 -100.5t-173 -35h-7z" />
    <glyph glyph-name="Scaron" unicode="&#x160;" horiz-adv-x="1307" 
d="M495 7.5q-103 34.5 -173 94.5l-114 -121l-51 25v432l46 11l55 -164q90 -114 200.5 -170.5t229.5 -56.5q90 0 159.5 32t107 88t37.5 128q0 83 -50 140.5t-123 93.5t-201 85q-144 55 -231 100t-148 121t-61 191q0 107 53 185.5t144.5 120t202.5 41.5q105 0 197 -32.5
t181 -96.5l113 119l51 -25v-436l-47 -12l-64 181q-78 105 -184.5 160.5t-220.5 55.5q-77 0 -136 -24.5t-92 -70t-33 -105.5q0 -73 47.5 -124.5t118 -86.5t193.5 -82q153 -59 246 -108.5t159 -133t66 -207.5q0 -113 -57 -200t-161 -135t-241 -48q-116 0 -219 34.5zM320 1775
l22 22l278 -166l277 166l23 -22l-300 -304z" />
    <glyph glyph-name="scaron" unicode="&#x161;" horiz-adv-x="999" 
d="M379 -1q-75 26 -125 67l-82 -85l-47 23v321l47 11l41 -120q123 -162 308 -162q94 0 151 41.5t57 116.5q0 59 -35 99t-87 64.5t-142 56.5q-104 36 -167 67.5t-107.5 87.5t-44.5 143t42.5 148t112 91.5t148.5 30.5q137 0 268 -85l79 80l47 -24v-325l-46 -12l-47 138
q-49 65 -122.5 106t-160.5 41q-84 0 -134 -38.5t-50 -104.5q0 -54 34 -90.5t85 -60t140 -54.5q108 -37 174.5 -70t113.5 -91t47 -148q0 -88 -43.5 -153.5t-120.5 -100.5t-173 -35q-86 0 -161 26zM193 1392l22 22l278 -166l277 166l23 -22l-300 -304z" />
    <glyph glyph-name="uni0162" unicode="&#x162;" horiz-adv-x="1448" 
d="M446 62l142 20l33 113v1085h-266l-193 -104l-43 -127l-43 11v296h1296v-296l-42 -11l-43 127l-193 104h-276v-1085l31 -113l142 -20l-8 -62h-529zM637.5 -385q-42.5 16 -67.5 37l20 35q21 -17 54.5 -28t69.5 -11q49 0 76.5 24t27.5 70q0 43 -27.5 63.5t-70.5 20.5
q-36 0 -73 -15l-19 21l82 168h59l-60 -129q42 16 77 16q65 0 110.5 -34t45.5 -97q0 -49 -29.5 -84.5t-77.5 -54t-102 -18.5q-53 0 -95.5 16z" />
    <glyph glyph-name="uni0163" unicode="&#x163;" horiz-adv-x="664" 
d="M568.5 -147q45.5 -34 45.5 -97q0 -49 -29.5 -84.5t-77.5 -54t-102 -18.5q-53 0 -95.5 16t-67.5 37l20 35q21 -17 54.5 -28t69.5 -11q49 0 76.5 24t27.5 70q0 43 -27.5 63.5t-70.5 20.5q-35 0 -73 -15l-19 21l70 143q-79 10 -126 70.5t-47 153.5v689l-163 50v35l145 61
l123 338h60v-399h257l-27 -76h-230v-629q0 -72 11.5 -112t36 -57t65.5 -17q51 0 111 33l23 -59q-38 -33 -84.5 -54.5t-95.5 -26.5l-48 -104q42 16 77 16q65 0 110.5 -34z" />
    <glyph glyph-name="Tcaron" unicode="&#x164;" horiz-adv-x="1448" 
d="M446 62l142 20l33 113v1085h-266l-193 -104l-43 -127l-43 11v296h1296v-296l-42 -11l-43 127l-193 104h-276v-1085l31 -113l142 -20l-8 -62h-529zM424 1775l22 22l278 -166l277 166l23 -22l-300 -304z" />
    <glyph glyph-name="tcaron" unicode="&#x165;" horiz-adv-x="664" 
d="M294 1q-46 28 -71.5 79.5t-25.5 118.5v689l-163 50v35l145 61l123 338h60v-399h257l-27 -76h-230v-629q0 -72 11.5 -112t36 -57t65.5 -17q51 0 111 33l23 -59q-43 -38 -98 -60.5t-112 -22.5q-59 0 -105 28zM502 1121q42 20 65.5 49t23.5 61q0 14 -3 26l-107 87v31l93 92
h26q39 -15 69.5 -53.5t30.5 -88.5q0 -83 -48 -145.5t-138 -94.5z" />
    <glyph glyph-name="Tbar" unicode="&#x166;" horiz-adv-x="1448" 
d="M1372 1356v-296l-42 -11l-43 127l-193 104h-276v-381h212v-76h-212v-628l31 -113l142 -20l-8 -62h-529l-8 62l142 20l33 113v628h-204v76h204v381h-266l-193 -104l-43 -127l-43 11v296h1296z" />
    <glyph glyph-name="tbar" unicode="&#x167;" horiz-adv-x="664" 
d="M586 115l23 -59q-43 -38 -98 -60.5t-112 -22.5q-59 0 -105 28t-71.5 79.5t-25.5 118.5v374h-156v76h156v239l-163 50v35l145 61l123 338h60v-399h257l-27 -76h-230v-248h234v-76h-234v-305q0 -72 11.5 -112t36 -57t65.5 -17q51 0 111 33z" />
    <glyph glyph-name="Utilde" unicode="&#x168;" horiz-adv-x="1492" 
d="M472.5 34.5q-118.5 61.5 -183 183.5t-64.5 300v644l-31 112l-128 20l8 62h499v-62l-119 -20l-32 -112v-496q0 -181 24 -301.5t105.5 -198t244.5 -77.5q209 0 300 107.5t91 321.5v646l-33 110l-132 20l7 62h389l8 -62l-134 -20l-28 -112v-687q0 -244 -129 -373t-383 -129
q-161 0 -279.5 61.5zM849.5 1540q-31.5 15 -70.5 44q-34 26 -59.5 38.5t-56.5 12.5q-77 0 -148 -89l-32 28q39 81 88 124.5t113 43.5q40 0 69.5 -14t67.5 -42q39 -28 65.5 -41t62.5 -13q80 0 138 90l32 -33q-68 -164 -195 -164q-43 0 -74.5 15z" />
    <glyph glyph-name="utilde" unicode="&#x169;" horiz-adv-x="1165" 
d="M273.5 66q-80.5 93 -80.5 275v420l-154 91v43l114 8l247 115l42 -39l-83 -99v-504q0 -148 46.5 -216t143.5 -68q78 0 141 43.5t105 131.5v494l-154 91v43l112 8l247 115l43 -39l-83 -99v-639q0 -88 41 -137t118 -51l-9 -68q-35 -5 -62 -5q-95 0 -156 49.5t-76 143.5
q-51 -93 -131.5 -146.5t-191.5 -53.5q-139 0 -219.5 93zM645.5 1157q-31.5 15 -70.5 44q-34 26 -59.5 38.5t-56.5 12.5q-77 0 -148 -89l-32 28q39 81 88 124.5t113 43.5q40 0 69.5 -14t67.5 -42q39 -28 65.5 -41t62.5 -13q80 0 138 90l32 -33q-68 -164 -195 -164
q-43 0 -74.5 15z" />
    <glyph glyph-name="Umacron" unicode="&#x16a;" horiz-adv-x="1492" 
d="M472.5 34.5q-118.5 61.5 -183 183.5t-64.5 300v644l-31 112l-128 20l8 62h499v-62l-119 -20l-32 -112v-496q0 -181 24 -301.5t105.5 -198t244.5 -77.5q209 0 300 107.5t91 321.5v646l-33 110l-132 20l7 62h389l8 -62l-134 -20l-28 -112v-687q0 -244 -129 -373t-383 -129
q-161 0 -279.5 61.5zM465 1648h632v-76h-632v76z" />
    <glyph glyph-name="umacron" unicode="&#x16b;" horiz-adv-x="1165" 
d="M273.5 66q-80.5 93 -80.5 275v420l-154 91v43l114 8l247 115l42 -39l-83 -99v-504q0 -148 46.5 -216t143.5 -68q78 0 141 43.5t105 131.5v494l-154 91v43l112 8l247 115l43 -39l-83 -99v-639q0 -88 41 -137t118 -51l-9 -68q-35 -5 -62 -5q-95 0 -156 49.5t-76 143.5
q-51 -93 -131.5 -146.5t-191.5 -53.5q-139 0 -219.5 93zM261 1265h632v-76h-632v76z" />
    <glyph glyph-name="Ubreve" unicode="&#x16c;" horiz-adv-x="1492" 
d="M472.5 34.5q-118.5 61.5 -183 183.5t-64.5 300v644l-31 112l-128 20l8 62h499v-62l-119 -20l-32 -112v-496q0 -181 24 -301.5t105.5 -198t244.5 -77.5q209 0 300 107.5t91 321.5v646l-33 110l-132 20l7 62h389l8 -62l-134 -20l-28 -112v-687q0 -244 -129 -373t-383 -129
q-161 0 -279.5 61.5zM627 1580.5q-61 55.5 -69 147.5h56q9 -46 56 -75t112 -29t111.5 29t55.5 75h57q-8 -92 -69 -147.5t-155 -55.5t-155 55.5z" />
    <glyph glyph-name="ubreve" unicode="&#x16d;" horiz-adv-x="1165" 
d="M273.5 66q-80.5 93 -80.5 275v420l-154 91v43l114 8l247 115l42 -39l-83 -99v-504q0 -148 46.5 -216t143.5 -68q78 0 141 43.5t105 131.5v494l-154 91v43l112 8l247 115l43 -39l-83 -99v-639q0 -88 41 -137t118 -51l-9 -68q-35 -5 -62 -5q-95 0 -156 49.5t-76 143.5
q-51 -93 -131.5 -146.5t-191.5 -53.5q-139 0 -219.5 93zM423 1197.5q-61 55.5 -69 147.5h56q9 -46 56 -75t112 -29t111.5 29t55.5 75h57q-8 -92 -69 -147.5t-155 -55.5t-155 55.5z" />
    <glyph glyph-name="Uring" unicode="&#x16e;" horiz-adv-x="1492" 
d="M472.5 34.5q-118.5 61.5 -183 183.5t-64.5 300v644l-31 112l-128 20l8 62h499v-62l-119 -20l-32 -112v-496q0 -181 24 -301.5t105.5 -198t244.5 -77.5q209 0 300 107.5t91 321.5v646l-33 110l-132 20l7 62h389l8 -62l-134 -20l-28 -112v-687q0 -244 -129 -373t-383 -129
q-161 0 -279.5 61.5zM711.5 1528q-32.5 19 -51 52t-18.5 71q0 37 18.5 69t51 50.5t70.5 18.5t70.5 -18.5t51 -50.5t18.5 -69q0 -38 -18.5 -71t-51 -52t-70.5 -19t-70.5 19zM842 1589.5q25 25.5 25 61.5q0 34 -24.5 58.5t-60.5 24.5t-60.5 -24.5t-24.5 -58.5
q0 -36 24.5 -61.5t60.5 -25.5q35 0 60 25.5z" />
    <glyph glyph-name="uring" unicode="&#x16f;" horiz-adv-x="1165" 
d="M273.5 66q-80.5 93 -80.5 275v420l-154 91v43l114 8l247 115l42 -39l-83 -99v-504q0 -148 46.5 -216t143.5 -68q78 0 141 43.5t105 131.5v494l-154 91v43l112 8l247 115l43 -39l-83 -99v-639q0 -88 41 -137t118 -51l-9 -68q-35 -5 -62 -5q-95 0 -156 49.5t-76 143.5
q-51 -93 -131.5 -146.5t-191.5 -53.5q-139 0 -219.5 93zM507.5 1145q-32.5 19 -51 52t-18.5 71q0 37 18.5 69t51 50.5t70.5 18.5t70.5 -18.5t51 -50.5t18.5 -69q0 -38 -18.5 -71t-51 -52t-70.5 -19t-70.5 19zM638 1206.5q25 25.5 25 61.5q0 34 -24.5 58.5t-60.5 24.5
t-60.5 -24.5t-24.5 -58.5q0 -36 24.5 -61.5t60.5 -25.5q35 0 60 25.5z" />
    <glyph glyph-name="Uhungarumlaut" unicode="&#x170;" horiz-adv-x="1492" 
d="M472.5 34.5q-118.5 61.5 -183 183.5t-64.5 300v644l-31 112l-128 20l8 62h499v-62l-119 -20l-32 -112v-496q0 -181 24 -301.5t105.5 -198t244.5 -77.5q209 0 300 107.5t91 321.5v646l-33 110l-132 20l7 62h389l8 -62l-134 -20l-28 -112v-687q0 -244 -129 -373t-383 -129
q-161 0 -279.5 61.5zM488 1522l272 265h113l18 -28l-28 -89l-352 -181zM879 1522l272 265h113l18 -28l-28 -89l-352 -181z" />
    <glyph glyph-name="uhungarumlaut" unicode="&#x171;" horiz-adv-x="1165" 
d="M273.5 66q-80.5 93 -80.5 275v420l-154 91v43l114 8l247 115l42 -39l-83 -99v-504q0 -148 46.5 -216t143.5 -68q78 0 141 43.5t105 131.5v494l-154 91v43l112 8l247 115l43 -39l-83 -99v-639q0 -88 41 -137t118 -51l-9 -68q-35 -5 -62 -5q-95 0 -156 49.5t-76 143.5
q-51 -93 -131.5 -146.5t-191.5 -53.5q-139 0 -219.5 93zM284 1139l272 265h113l18 -28l-28 -89l-352 -181zM675 1139l272 265h113l18 -28l-28 -89l-352 -181z" />
    <glyph glyph-name="Uogonek" unicode="&#x172;" horiz-adv-x="1492" 
d="M808 -364.5q-52 41.5 -52 111.5q0 67 47 130.5t120 113.5q-76 -18 -171 -18q-161 0 -279.5 61.5t-183 183.5t-64.5 300v644l-31 112l-128 20l8 62h499v-62l-119 -20l-32 -112v-496q0 -181 24 -301.5t105.5 -198t244.5 -77.5q209 0 300 107.5t91 321.5v646l-33 110
l-132 20l7 62h389l8 -62l-134 -20l-28 -112v-687q0 -161 -54.5 -262t-148.5 -169q-66 -50 -104.5 -83.5t-66.5 -77t-28 -93.5q0 -52 33 -87t89 -35q52 0 104 30v-59q-30 -23 -69 -34t-78 -11q-81 0 -133 41.5z" />
    <glyph glyph-name="uogonek" unicode="&#x173;" horiz-adv-x="1165" 
d="M1136 -310v-60q-30 -23 -69 -34t-79 -11q-81 0 -132.5 41.5t-51.5 112.5q0 69 49.5 133.5t125.5 114.5q-67 16 -109 63t-54 123q-51 -93 -131.5 -146.5t-191.5 -53.5q-139 0 -219.5 93t-80.5 275v420l-154 91v43l114 8l247 115l42 -39l-83 -99v-504q0 -148 46.5 -216
t143.5 -68q78 0 141 43.5t105 131.5v494l-154 91v43l112 8l247 115l43 -39l-83 -99v-639q0 -88 41 -137t118 -51l-9 -68q-35 -5 -62 -5q-15 0 -23 1q-50 -42 -83 -94t-33 -105q0 -52 33.5 -87.5t88.5 -35.5q51 0 105 31z" />
    <glyph glyph-name="Wcircumflex" unicode="&#x174;" horiz-adv-x="2232" 
d="M2191 1302l-86 -22l-105 -89l-447 -1191h-55l-383 903l-337 -903h-54l-518 1210l-81 70l-84 22l3 54h489l10 -62l-94 -17l-27 -88l378 -884l266 713l-84 192l-83 70l-84 22l4 54h492l10 -62l-94 -17l-29 -86l377 -887l336 889l-25 84l-94 17l10 62h385zM816 1489l300 304
l300 -304l-23 -22l-277 166l-278 -166z" />
    <glyph glyph-name="wcircumflex" unicode="&#x175;" horiz-adv-x="1666" 
d="M1647 918l-76 -21l-83 -85l-333 -812h-80l-226 622l-260 -622h-80l-327 823l-88 74l-76 22l4 54h461l10 -62l-97 -18l-31 -90l230 -589l217 514l-47 113l-66 56l-85 22l4 54h473l9 -62l-114 -16l-33 -91l209 -587l240 586l-41 93l-118 15l9 62h391zM534 1106l300 304
l300 -304l-23 -22l-277 166l-278 -166z" />
    <glyph glyph-name="Ycircumflex" unicode="&#x176;" horiz-adv-x="1320" 
d="M400 62l143 20l33 112v456l-370 564l-81 66l-84 22l3 54h510l10 -62l-93 -17l-28 -92l271 -412h17l262 412l-30 92l-94 17l10 62h396l5 -54l-84 -22l-101 -91l-323 -518v-477l33 -112l142 -20l-7 -62h-532zM380 1489l300 304l300 -304l-23 -22l-277 166l-278 -166z" />
    <glyph glyph-name="ycircumflex" unicode="&#x177;" horiz-adv-x="1098" 
d="M1079 919l-74 -20l-84 -90l-430 -1099q-39 -103 -114 -154.5t-168 -51.5q-51 0 -95 14t-88 40l68 160l57 8q12 -33 41 -60.5t81 -27.5q55 0 95 41.5t78 137.5l70 178l-338 828l-84 74l-76 22l4 54h453l11 -62l-98 -18l-29 -91l241 -602l238 606l-24 91l-122 16l10 60h373
zM257 1106l300 304l300 -304l-23 -22l-277 166l-278 -166z" />
    <glyph glyph-name="Ydieresis" unicode="&#x178;" horiz-adv-x="1320" 
d="M400 62l143 20l33 112v456l-370 564l-81 66l-84 22l3 54h510l10 -62l-93 -17l-28 -92l271 -412h17l262 412l-30 92l-94 17l10 62h396l5 -54l-84 -22l-101 -91l-323 -518v-477l33 -112l142 -20l-7 -62h-532zM378 1617v33l102 104h31l102 -104v-33l-102 -100h-31zM745 1617
v33l103 104h31l102 -104v-33l-102 -100h-31z" />
    <glyph glyph-name="Zacute" unicode="&#x179;" horiz-adv-x="1299" 
d="M1175 1218l-899 -1142h613l190 167l43 166l45 -12v-397h-1037v191l855 1089h-534l-193 -165l-43 -167l-45 11v397h1005v-138zM411 1517l419 254h101l20 -29v-79l-525 -179z" />
    <glyph glyph-name="zacute" unicode="&#x17a;" horiz-adv-x="1046" 
d="M97 142l650 755h-327l-194 -169l-31 -133l-45 12v366h790v-95l-695 -802h405l194 169l32 136l44 -11v-370h-823v142zM275 1134l419 254h101l20 -29v-79l-525 -179z" />
    <glyph glyph-name="Zdotaccent" unicode="&#x17b;" horiz-adv-x="1299" 
d="M1175 1218l-899 -1142h613l190 167l43 166l45 -12v-397h-1037v191l855 1089h-534l-193 -165l-43 -167l-45 11v397h1005v-138zM527 1616v34l102 103h31l102 -103v-34l-102 -100h-31z" />
    <glyph glyph-name="zdotaccent" unicode="&#x17c;" horiz-adv-x="1046" 
d="M97 142l650 755h-327l-194 -169l-31 -133l-45 12v366h790v-95l-695 -802h405l194 169l32 136l44 -11v-370h-823v142zM391 1233v34l102 103h31l102 -103v-34l-102 -100h-31z" />
    <glyph glyph-name="Zcaron" unicode="&#x17d;" horiz-adv-x="1299" 
d="M1175 1218l-899 -1142h613l190 167l43 166l45 -12v-397h-1037v191l855 1089h-534l-193 -165l-43 -167l-45 11v397h1005v-138zM345 1775l22 22l278 -166l277 166l23 -22l-300 -304z" />
    <glyph glyph-name="zcaron" unicode="&#x17e;" horiz-adv-x="1046" 
d="M97 142l650 755h-327l-194 -169l-31 -133l-45 12v366h790v-95l-695 -802h405l194 169l32 136l44 -11v-370h-823v142zM209 1392l22 22l278 -166l277 166l23 -22l-300 -304z" />
    <glyph glyph-name="florin" unicode="&#x192;" horiz-adv-x="1479" 
d="M191.5 -340.5q-62.5 27.5 -84.5 77.5l120 146h28q19 -52 58.5 -82.5t90.5 -30.5q69 0 105 42t49.5 106t23.5 176l4 42l64 639h-181v75h189q14 143 86.5 266t181 195.5t226.5 72.5q73 0 135.5 -27.5t84.5 -77.5l-121 -146h-27q-19 52 -58.5 82t-91.5 30
q-109 0 -167.5 -100t-79.5 -261l-4 -34h267v-75h-274l-65 -610q-15 -148 -71 -269.5t-146.5 -192.5t-206.5 -71q-73 0 -135.5 27.5z" />
    <glyph glyph-name="uni01E2" unicode="&#x1e2;" horiz-adv-x="2193" 
d="M1193 1280v-416h295l94 39l45 146l56 -8v-426l-56 -8l-45 142l-88 39h-301v-712h550l193 165l41 168l44 -12v-397h-1192l-8 62l142 20l33 113v262h-481l-197 -296l39 -73l141 -22l-8 -66h-440l-7 66l95 20l85 68l741 1119l-1 2l-157 19l8 62h1219v-395l-42 -11l-43 165
l-193 165h-562zM996 533v632l-3 9l-427 -641h430zM1144 1648h632v-76h-632v76z" />
    <glyph glyph-name="uni01E3" unicode="&#x1e3;" horiz-adv-x="1853" 
d="M1767 240q-82 -127 -202 -197t-257 -70q-150 0 -266.5 80.5t-172.5 217.5q-27 -91 -88.5 -158.5t-146.5 -103.5t-181 -36q-94 0 -167.5 35t-114.5 97t-41 139q0 127 106 195.5t275 87.5l305 35v92q0 85 -36 146.5t-99 93.5t-144 32q-83 0 -146 -33t-97 -89t-34 -124
q0 -21 7 -49l-35 -22l-172 109q57 130 180.5 206t292.5 76q131 0 235.5 -47t160.5 -130q64 84 158.5 130.5t208.5 46.5q133 0 235.5 -54.5t160.5 -155.5t61 -235l-760 -50q12 -109 59 -201t128 -147.5t190 -55.5q80 0 140.5 25.5t104 64.5t88.5 95zM1118 873
q-62 -40 -95.5 -115t-33.5 -178v-5l577 44q-21 141 -99.5 217.5t-201.5 76.5q-85 0 -147 -40zM816 488l-288 -35q-105 -13 -159 -63.5t-54 -130.5t51.5 -125.5t145.5 -45.5q79 0 149 38t112.5 105.5t42.5 150.5v106zM610 1265h632v-76h-632v76z" />
    <glyph glyph-name="AEacute" unicode="&#x1fc;" horiz-adv-x="2193" 
d="M1193 1280v-416h295l94 39l45 146l56 -8v-426l-56 -8l-45 142l-88 39h-301v-712h550l193 165l41 168l44 -12v-397h-1192l-8 62l142 20l33 113v262h-481l-197 -296l39 -73l141 -22l-8 -66h-440l-7 66l95 20l85 68l741 1119l-1 2l-157 19l8 62h1219v-395l-42 -11l-43 165
l-193 165h-562zM996 533v632l-3 9l-427 -641h430zM1227 1517l419 254h101l20 -29v-79l-525 -179z" />
    <glyph glyph-name="aeacute" unicode="&#x1fd;" horiz-adv-x="1853" 
d="M1767 240q-82 -127 -202 -197t-257 -70q-150 0 -266.5 80.5t-172.5 217.5q-27 -91 -88.5 -158.5t-146.5 -103.5t-181 -36q-94 0 -167.5 35t-114.5 97t-41 139q0 127 106 195.5t275 87.5l305 35v92q0 85 -36 146.5t-99 93.5t-144 32q-83 0 -146 -33t-97 -89t-34 -124
q0 -21 7 -49l-35 -22l-172 109q57 130 180.5 206t292.5 76q131 0 235.5 -47t160.5 -130q64 84 158.5 130.5t208.5 46.5q133 0 235.5 -54.5t160.5 -155.5t61 -235l-760 -50q12 -109 59 -201t128 -147.5t190 -55.5q80 0 140.5 25.5t104 64.5t88.5 95zM1118 873
q-62 -40 -95.5 -115t-33.5 -178v-5l577 44q-21 141 -99.5 217.5t-201.5 76.5q-85 0 -147 -40zM816 488l-288 -35q-105 -13 -159 -63.5t-54 -130.5t51.5 -125.5t145.5 -45.5q79 0 149 38t112.5 105.5t42.5 150.5v106zM693 1134l419 254h101l20 -29v-79l-525 -179z" />
    <glyph glyph-name="Oslashacute" unicode="&#x1fe;" horiz-adv-x="1572" 
d="M1394 969q58 -135 58 -296q0 -192 -82 -352t-229.5 -254t-334.5 -94q-106 0 -207 31.5t-186 90.5l-127 -171h-99l163 221q-108 96 -169.5 234t-61.5 304q0 192 82 352.5t229.5 254.5t334.5 94q111 0 214.5 -34t191.5 -98l135 182h99l-173 -233q104 -97 162 -232z
M349.5 524q41.5 -126 117.5 -223l595 804q-77 80 -173 123.5t-204 43.5q-115 0 -200 -59t-131 -168t-46 -255q0 -140 41.5 -266zM1086 142.5q85 58.5 131 167t46 254.5q0 136 -38.5 259t-109.5 219l-595 -802q76 -74 169.5 -115t197.5 -41q114 0 199 58.5zM561 1517l419 254
h101l20 -29v-79l-525 -179z" />
    <glyph glyph-name="oslashacute" unicode="&#x1ff;" horiz-adv-x="1157" 
d="M1023 700.5q41 -98.5 41 -217.5q0 -144 -60.5 -260.5t-170 -183t-248.5 -66.5q-146 0 -266 75l-98 -137h-97l133 185q-77 70 -120.5 171.5t-43.5 222.5q0 144 60.5 260.5t169.5 183t248 66.5q77 0 147 -21t129 -60l102 142h97l-138 -192q74 -70 115 -168.5zM280.5 393.5
q27.5 -87.5 77.5 -156.5l397 553q-51 55 -113.5 85.5t-128.5 30.5q-77 0 -136 -41t-91.5 -116.5t-32.5 -175.5q0 -92 27.5 -179.5zM779.5 108q58.5 41 91 116.5t32.5 175.5q0 89 -25.5 173t-71.5 153l-396 -552q51 -51 110.5 -79t123.5 -28q77 0 135.5 41zM351 1134l419 254
h101l20 -29v-79l-525 -179z" />
    <glyph glyph-name="uni0218" unicode="&#x218;" horiz-adv-x="1307" 
d="M495 7.5q-103 34.5 -173 94.5l-114 -121l-51 25v432l46 11l55 -164q90 -114 200.5 -170.5t229.5 -56.5q90 0 159.5 32t107 88t37.5 128q0 83 -50 140.5t-123 93.5t-201 85q-144 55 -231 100t-148 121t-61 191q0 107 53 185.5t144.5 120t202.5 41.5q105 0 197 -32.5
t181 -96.5l113 119l51 -25v-436l-47 -12l-64 181q-78 105 -184.5 160.5t-220.5 55.5q-77 0 -136 -24.5t-92 -70t-33 -105.5q0 -73 47.5 -124.5t118 -86.5t193.5 -82q153 -59 246 -108.5t159 -133t66 -207.5q0 -113 -57 -200t-161 -135t-241 -48q-116 0 -219 34.5zM587 -461
q42 21 65.5 50t23.5 60q0 14 -3 26l-107 88v31l93 92h26q39 -15 69.5 -53.5t30.5 -89.5q0 -83 -47.5 -145t-138.5 -94z" />
    <glyph glyph-name="uni0219" unicode="&#x219;" horiz-adv-x="999" 
d="M379 -1q-75 26 -125 67l-82 -85l-47 23v321l47 11l41 -120q123 -162 308 -162q94 0 151 41.5t57 116.5q0 59 -35 99t-87 64.5t-142 56.5q-104 36 -167 67.5t-107.5 87.5t-44.5 143t42.5 148t112 91.5t148.5 30.5q137 0 268 -85l79 80l47 -24v-325l-46 -12l-47 138
q-49 65 -122.5 106t-160.5 41q-84 0 -134 -38.5t-50 -104.5q0 -54 34 -90.5t85 -60t140 -54.5q108 -37 174.5 -70t113.5 -91t47 -148q0 -88 -43.5 -153.5t-120.5 -100.5t-173 -35q-86 0 -161 26zM404 -461q42 21 65.5 50t23.5 60q0 14 -3 26l-107 88v31l93 92h26
q39 -15 69.5 -53.5t30.5 -89.5q0 -83 -47.5 -145t-138.5 -94z" />
    <glyph glyph-name="uni021A" unicode="&#x21a;" horiz-adv-x="1448" 
d="M446 62l142 20l33 113v1085h-266l-193 -104l-43 -127l-43 11v296h1296v-296l-42 -11l-43 127l-193 104h-276v-1085l31 -113l142 -20l-8 -62h-529zM627 -461q42 21 65.5 50t23.5 60q0 14 -3 26l-107 88v31l93 92h26q39 -15 69.5 -53.5t30.5 -89.5q0 -83 -47.5 -145
t-138.5 -94z" />
    <glyph glyph-name="uni021B" unicode="&#x21b;" horiz-adv-x="664" 
d="M294 1q-46 28 -71.5 79.5t-25.5 118.5v689l-163 50v35l145 61l123 338h60v-399h257l-27 -76h-230v-629q0 -72 11.5 -112t36 -57t65.5 -17q51 0 111 33l23 -59q-43 -38 -98 -60.5t-112 -22.5q-59 0 -105 28zM299 -461q42 21 65.5 50t23.5 60q0 14 -3 26l-107 88v31l93 92
h26q39 -15 69.5 -53.5t30.5 -89.5q0 -83 -47.5 -145t-138.5 -94z" />
    <glyph glyph-name="uni0226" unicode="&#x226;" horiz-adv-x="1467" 
d="M1425 62l-8 -62h-527l-6 60l136 27l32 70l-115 300h-504l-117 -303l45 -70l159 -24l-5 -60h-466l-7 62l95 20l91 70l460 1179l89 58l486 -1257l75 -58zM907 533l-222 577l-222 -577h444zM615 1577v34l102 103h31l102 -103v-34l-102 -100h-31z" />
    <glyph glyph-name="uni0227" unicode="&#x227;" horiz-adv-x="1246" 
d="M311.5 44q-99.5 71 -157 193t-57.5 266q0 141 54.5 254.5t151 178t218.5 64.5q142 0 244 -86.5t169 -236.5h18l-74 274l31 50l265 -69l-12 -62l-78 -6l-63 -70v-549q0 -90 39 -138.5t112 -48.5l-10 -69q-31 -8 -68 -8q-87 0 -149.5 51t-76.5 137q-49 -90 -140.5 -143
t-195.5 -53q-121 0 -220.5 71zM757.5 150q62.5 52 98.5 121v394q-50 108 -132 172t-185 64q-83 0 -144 -43t-94 -122t-33 -185q0 -126 44 -229.5t120.5 -163.5t171.5 -60q91 0 153.5 52zM459 1233v34l102 103h31l102 -103v-34l-102 -100h-31z" />
    <glyph glyph-name="uni0232" unicode="&#x232;" horiz-adv-x="1320" 
d="M400 62l143 20l33 112v456l-370 564l-81 66l-84 22l3 54h510l10 -62l-93 -17l-28 -92l271 -412h17l262 412l-30 92l-94 17l10 62h396l5 -54l-84 -22l-101 -91l-323 -518v-477l33 -112l142 -20l-7 -62h-532zM363 1648h632v-76h-632v76z" />
    <glyph glyph-name="uni0233" unicode="&#x233;" horiz-adv-x="1098" 
d="M1079 919l-74 -20l-84 -90l-430 -1099q-39 -103 -114 -154.5t-168 -51.5q-51 0 -95 14t-88 40l68 160l57 8q12 -33 41 -60.5t81 -27.5q55 0 95 41.5t78 137.5l70 178l-338 828l-84 74l-76 22l4 54h453l11 -62l-98 -18l-29 -91l241 -602l238 606l-24 91l-122 16l10 60h373
zM240 1265h632v-76h-632v76z" />
    <glyph glyph-name="uni0237" unicode="&#x237;" horiz-adv-x="553" 
d="M-4 -461q206 163 206 451v771l-154 91v43l113 8l248 115l43 -39l-84 -99v-878q0 -153 -60 -256t-133.5 -155t-153.5 -87z" />
    <glyph glyph-name="circumflex" unicode="&#x2c6;" horiz-adv-x="775" 
d="M88 1106l300 304l300 -304l-23 -22l-277 166l-278 -166z" />
    <glyph glyph-name="caron" unicode="&#x2c7;" horiz-adv-x="775" 
d="M88 1392l22 22l278 -166l277 166l23 -22l-300 -304z" />
    <glyph glyph-name="breve" unicode="&#x2d8;" horiz-adv-x="623" 
d="M157 1197.5q-61 55.5 -69 147.5h56q9 -46 56 -75t112 -29t111.5 29t55.5 75h57q-8 -92 -69 -147.5t-155 -55.5t-155 55.5z" />
    <glyph glyph-name="dotaccent" unicode="&#x2d9;" horiz-adv-x="411" 
d="M88 1233v34l102 103h31l102 -103v-34l-102 -100h-31z" />
    <glyph glyph-name="ring" unicode="&#x2da;" horiz-adv-x="456" 
d="M157.5 1145q-32.5 19 -51 52t-18.5 71q0 37 18.5 69t51 50.5t70.5 18.5t70.5 -18.5t51 -50.5t18.5 -69q0 -38 -18.5 -71t-51 -52t-70.5 -19t-70.5 19zM288 1206.5q25 25.5 25 61.5q0 34 -24.5 58.5t-60.5 24.5t-60.5 -24.5t-24.5 -58.5q0 -36 24.5 -61.5t60.5 -25.5
q35 0 60 25.5z" />
    <glyph glyph-name="ogonek" unicode="&#x2db;" horiz-adv-x="507" 
d="M139.5 -363.5q-51.5 41.5 -51.5 112.5q0 82 67.5 156.5t161.5 123.5h45q-66 -41 -117.5 -105t-51.5 -132q0 -52 33.5 -87.5t88.5 -35.5q51 0 105 31v-60q-30 -23 -69 -34t-79 -11q-81 0 -132.5 41.5z" />
    <glyph glyph-name="tilde" unicode="&#x2dc;" horiz-adv-x="811" 
d="M454.5 1157q-31.5 15 -70.5 44q-34 26 -59.5 38.5t-56.5 12.5q-77 0 -148 -89l-32 28q39 81 88 124.5t113 43.5q40 0 69.5 -14t67.5 -42q39 -28 65.5 -41t62.5 -13q80 0 138 90l32 -33q-68 -164 -195 -164q-43 0 -74.5 15z" />
    <glyph glyph-name="hungarumlaut" unicode="&#x2dd;" horiz-adv-x="981" 
d="M108 1139l272 265h113l18 -28l-28 -89l-352 -181zM499 1139l272 265h113l18 -28l-28 -89l-352 -181z" />
    <glyph glyph-name="gravecomb" unicode="&#x300;" 
d="M-628 1280v79l20 29h100l420 -254l-16 -33z" />
    <glyph glyph-name="acutecomb" unicode="&#x301;" 
d="M-628 1134l419 254h101l20 -29v-79l-525 -179z" />
    <glyph glyph-name="uni0302" unicode="&#x302;" 
d="M-687 1106l300 304l300 -304l-23 -22l-277 166l-278 -166z" />
    <glyph glyph-name="tildecomb" unicode="&#x303;" 
d="M-356.5 1157q-31.5 15 -70.5 44q-34 26 -59.5 38.5t-56.5 12.5q-77 0 -148 -89l-32 28q39 81 88 124.5t113 43.5q40 0 69.5 -14t67.5 -42q39 -28 65.5 -41t62.5 -13q80 0 138 90l32 -33q-68 -164 -195 -164q-43 0 -74.5 15z" />
    <glyph glyph-name="uni0304" unicode="&#x304;" 
d="M-720 1265h632v-76h-632v76z" />
    <glyph glyph-name="uni0306" unicode="&#x306;" 
d="M-466 1197.5q-61 55.5 -69 147.5h56q9 -46 56 -75t112 -29t111.5 29t55.5 75h57q-8 -92 -69 -147.5t-155 -55.5t-155 55.5z" />
    <glyph glyph-name="uni0307" unicode="&#x307;" 
d="M-323 1233v34l102 103h31l102 -103v-34l-102 -100h-31z" />
    <glyph glyph-name="uni0308" unicode="&#x308;" 
d="M-691 1234v33l102 104h31l102 -104v-33l-102 -100h-31zM-324 1234v33l103 104h31l102 -104v-33l-102 -100h-31z" />
    <glyph glyph-name="uni030A" unicode="&#x30a;" 
d="M-298.5 1145q-32.5 19 -51 52t-18.5 71q0 37 18.5 69t51 50.5t70.5 18.5t70.5 -18.5t51 -50.5t18.5 -69q0 -38 -18.5 -71t-51 -52t-70.5 -19t-70.5 19zM-168 1206.5q25 25.5 25 61.5q0 34 -24.5 58.5t-60.5 24.5t-60.5 -24.5t-24.5 -58.5q0 -36 24.5 -61.5t60.5 -25.5
q35 0 60 25.5z" />
    <glyph glyph-name="uni030B" unicode="&#x30b;" 
d="M-873 1139l272 265h113l18 -28l-28 -89l-352 -181zM-482 1139l272 265h113l18 -28l-28 -89l-352 -181z" />
    <glyph glyph-name="uni030C" unicode="&#x30c;" 
d="M-687 1392l22 22l278 -166l277 166l23 -22l-300 -304z" />
    <glyph glyph-name="uni0312" unicode="&#x312;" 
d="M-276.5 1128.5q-30.5 38.5 -30.5 89.5q0 83 48 145.5t138 93.5l12 -35q-42 -21 -65.5 -50t-23.5 -60q0 -14 3 -26l107 -88v-31l-93 -92h-26q-39 15 -69.5 53.5z" />
    <glyph glyph-name="dotbelowcomb" unicode="&#x323;" 
d="M-323 -253v33l101 100h31l103 -100v-33l-103 -104h-31z" />
    <glyph glyph-name="uni0326" unicode="&#x326;" 
d="M-286 -461q42 21 65.5 50t23.5 60q0 14 -3 26l-107 88v31l93 92h26q39 -15 69.5 -53.5t30.5 -89.5q0 -83 -47.5 -145t-138.5 -94z" />
    <glyph glyph-name="uni0327" unicode="&#x327;" 
d="M-391.5 -385q-42.5 16 -67.5 37l20 35q21 -17 54.5 -28t69.5 -11q49 0 76.5 24t27.5 70q0 43 -27.5 63.5t-70.5 20.5q-36 0 -73 -15l-19 21l82 168h59l-60 -129q42 16 77 16q65 0 110.5 -34t45.5 -97q0 -49 -29.5 -84.5t-77.5 -54t-102 -18.5q-53 0 -95.5 16z" />
    <glyph glyph-name="uni0328" unicode="&#x328;" 
d="M-367.5 -363.5q-51.5 41.5 -51.5 112.5q0 82 67.5 156.5t161.5 123.5h45q-66 -41 -117.5 -105t-51.5 -132q0 -52 33.5 -87.5t88.5 -35.5q51 0 105 31v-60q-30 -23 -69 -34t-79 -11q-81 0 -132.5 41.5z" />
    <glyph glyph-name="uni0335" unicode="&#x335;" 
d="M-701 703h613v-76h-613v76z" />
    <glyph glyph-name="uni0336" unicode="&#x336;" 
d="M-1346 1086h1259v-76h-1259v76z" />
    <glyph glyph-name="uni0337" unicode="&#x337;" 
d="M-184 1088h97l-825 -1150h-97z" />
    <glyph glyph-name="uni0338" unicode="&#x338;" 
d="M-186 1448h99l-1119 -1510h-99z" />
    <glyph glyph-name="uni0394" unicode="&#x394;" horiz-adv-x="1389" 
d="M1325 57v-57h-1261v56l512 1300h224zM180 77h941l-472 1193z" />
    <glyph glyph-name="uni03A9" unicode="&#x3a9;" horiz-adv-x="1564" 
d="M1444 356l-45 -356h-544v103q89 54 159 155t109 231t39 268q0 121 -32.5 244.5t-116 212t-226.5 88.5t-232.5 -89t-128 -214.5t-38.5 -241.5q0 -139 44.5 -268.5t119.5 -230t166 -155.5v-103h-545l-44 356l67 6l128 -259h313q-183 96 -312.5 257.5t-129.5 396.5
q0 166 69.5 309.5t203.5 230.5t319 87q183 0 311 -86.5t192.5 -229.5t64.5 -311q0 -237 -121.5 -399.5t-297.5 -254.5h313l127 259z" />
    <glyph glyph-name="uni03BC" unicode="&#x3bc;" horiz-adv-x="1175" 
d="M1011 104q41 -49 118 -51l-9 -68q-35 -5 -61 -5q-96 0 -157 49t-76 144q-51 -93 -131.5 -146.5t-191.5 -53.5q-77 0 -134 28v-295l-166 -52v1107l-154 91v43l114 8l247 115l42 -39l-83 -99v-504q0 -148 46.5 -216t143.5 -68q78 0 141 43.5t105 131.5v494l-154 91v43
l112 8l247 115l43 -39l-83 -99v-639q0 -88 41 -137z" />
    <glyph glyph-name="pi" unicode="&#x3c0;" horiz-adv-x="1123" 
d="M801 46q-64 67 -64 195v656h-351v-710l32 -104l126 -21l-7 -62h-456l-8 62l127 21l31 104v710h-171v76h1004v-76h-172v-656q0 -94 40.5 -140t119.5 -48l-9 -68q-37 -6 -70 -6q-108 0 -172 67z" />
    <glyph glyph-name="Wgrave" unicode="&#x1e80;" horiz-adv-x="2232" 
d="M2191 1302l-86 -22l-105 -89l-447 -1191h-55l-383 903l-337 -903h-54l-518 1210l-81 70l-84 22l3 54h489l10 -62l-94 -17l-27 -88l378 -884l266 713l-84 192l-83 70l-84 22l4 54h492l10 -62l-94 -17l-29 -86l377 -887l336 889l-25 84l-94 17l10 62h385zM844 1663v79
l20 29h100l420 -254l-16 -33z" />
    <glyph glyph-name="wgrave" unicode="&#x1e81;" horiz-adv-x="1666" 
d="M1647 918l-76 -21l-83 -85l-333 -812h-80l-226 622l-260 -622h-80l-327 823l-88 74l-76 22l4 54h461l10 -62l-97 -18l-31 -90l230 -589l217 514l-47 113l-66 56l-85 22l4 54h473l9 -62l-114 -16l-33 -91l209 -587l240 586l-41 93l-118 15l9 62h391zM562 1280v79l20 29
h100l420 -254l-16 -33z" />
    <glyph glyph-name="Wacute" unicode="&#x1e82;" horiz-adv-x="2232" 
d="M2191 1302l-86 -22l-105 -89l-447 -1191h-55l-383 903l-337 -903h-54l-518 1210l-81 70l-84 22l3 54h489l10 -62l-94 -17l-27 -88l378 -884l266 713l-84 192l-83 70l-84 22l4 54h492l10 -62l-94 -17l-29 -86l377 -887l336 889l-25 84l-94 17l10 62h385zM882 1517l419 254
h101l20 -29v-79l-525 -179z" />
    <glyph glyph-name="wacute" unicode="&#x1e83;" horiz-adv-x="1666" 
d="M1647 918l-76 -21l-83 -85l-333 -812h-80l-226 622l-260 -622h-80l-327 823l-88 74l-76 22l4 54h461l10 -62l-97 -18l-31 -90l230 -589l217 514l-47 113l-66 56l-85 22l4 54h473l9 -62l-114 -16l-33 -91l209 -587l240 586l-41 93l-118 15l9 62h391zM600 1134l419 254h101
l20 -29v-79l-525 -179z" />
    <glyph glyph-name="Wdieresis" unicode="&#x1e84;" horiz-adv-x="2232" 
d="M2191 1302l-86 -22l-105 -89l-447 -1191h-55l-383 903l-337 -903h-54l-518 1210l-81 70l-84 22l3 54h489l10 -62l-94 -17l-27 -88l378 -884l266 713l-84 192l-83 70l-84 22l4 54h492l10 -62l-94 -17l-29 -86l377 -887l336 889l-25 84l-94 17l10 62h385zM814 1617v33
l102 104h31l102 -104v-33l-102 -100h-31zM1181 1617v33l103 104h31l102 -104v-33l-102 -100h-31z" />
    <glyph glyph-name="wdieresis" unicode="&#x1e85;" horiz-adv-x="1666" 
d="M1647 918l-76 -21l-83 -85l-333 -812h-80l-226 622l-260 -622h-80l-327 823l-88 74l-76 22l4 54h461l10 -62l-97 -18l-31 -90l230 -589l217 514l-47 113l-66 56l-85 22l4 54h473l9 -62l-114 -16l-33 -91l209 -587l240 586l-41 93l-118 15l9 62h391zM532 1234v33l102 104
h31l102 -104v-33l-102 -100h-31zM899 1234v33l103 104h31l102 -104v-33l-102 -100h-31z" />
    <glyph glyph-name="uni1E9E" unicode="&#x1e9e;" horiz-adv-x="2614" 
d="M495 7.5q-103 34.5 -173 94.5l-114 -121l-51 25v432l46 11l55 -164q90 -114 200.5 -170.5t229.5 -56.5q90 0 159.5 32t107 88t37.5 128q0 83 -50 140.5t-123 93.5t-201 85q-144 55 -231 100t-148 121t-61 191q0 107 53 185.5t144.5 120t202.5 41.5q105 0 197 -32.5
t181 -96.5l113 119l51 -25v-436l-47 -12l-64 181q-78 105 -184.5 160.5t-220.5 55.5q-77 0 -136 -24.5t-92 -70t-33 -105.5q0 -73 47.5 -124.5t118 -86.5t193.5 -82q153 -59 246 -108.5t159 -133t66 -207.5q0 -113 -57 -200t-161 -135t-241 -48q-116 0 -219 34.5zM1802 7.5
q-103 34.5 -173 94.5l-114 -121l-51 25v432l46 11l55 -164q90 -114 200.5 -170.5t229.5 -56.5q90 0 159.5 32t107 88t37.5 128q0 83 -50 140.5t-123 93.5t-201 85q-144 55 -231 100t-148 121t-61 191q0 107 53 185.5t144.5 120t202.5 41.5q105 0 197 -32.5t181 -96.5
l113 119l51 -25v-436l-47 -12l-64 181q-78 105 -184.5 160.5t-220.5 55.5q-77 0 -136 -24.5t-92 -70t-33 -105.5q0 -73 47.5 -124.5t118 -86.5t193.5 -82q153 -59 246 -108.5t159 -133t66 -207.5q0 -113 -57 -200t-161 -135t-241 -48q-116 0 -219 34.5z" />
    <glyph glyph-name="uni1EA0" unicode="&#x1ea0;" horiz-adv-x="1467" 
d="M1425 62l-8 -62h-527l-6 60l136 27l32 70l-115 300h-504l-117 -303l45 -70l159 -24l-5 -60h-466l-7 62l95 20l91 70l460 1179l89 58l486 -1257l75 -58zM907 533l-222 577l-222 -577h444zM586 -253v33l101 100h31l103 -100v-33l-103 -104h-31z" />
    <glyph glyph-name="uni1EA1" unicode="&#x1ea1;" horiz-adv-x="1246" 
d="M311.5 44q-99.5 71 -157 193t-57.5 266q0 141 54.5 254.5t151 178t218.5 64.5q142 0 244 -86.5t169 -236.5h18l-74 274l31 50l265 -69l-12 -62l-78 -6l-63 -70v-549q0 -90 39 -138.5t112 -48.5l-10 -69q-31 -8 -68 -8q-87 0 -149.5 51t-76.5 137q-49 -90 -140.5 -143
t-195.5 -53q-121 0 -220.5 71zM757.5 150q62.5 52 98.5 121v394q-50 108 -132 172t-185 64q-83 0 -144 -43t-94 -122t-33 -185q0 -126 44 -229.5t120.5 -163.5t171.5 -60q91 0 153.5 52zM465 -253v33l101 100h31l103 -100v-33l-103 -104h-31z" />
    <glyph glyph-name="uni1EB8" unicode="&#x1eb8;" horiz-adv-x="1456" 
d="M84 62l141 20l34 113v970l-34 110l-126 19l8 62h1189v-395l-43 -11l-43 165l-193 165h-562v-416h296l94 39l45 146l56 -8v-426l-56 -8l-45 142l-88 39h-302v-712h551l193 165l40 168l45 -12v-397h-1193zM607 -253v33l101 100h31l103 -100v-33l-103 -104h-31z" />
    <glyph glyph-name="uni1EB9" unicode="&#x1eb9;" horiz-adv-x="1120" 
d="M1035 240q-82 -126 -202.5 -196.5t-257.5 -70.5t-246.5 67.5t-171.5 186t-62 267.5q0 146 60 261.5t166.5 180t242.5 64.5q133 0 235 -60t160 -170t62 -256h-762q11 -111 58 -205t128 -151t192 -57q80 0 141 25.5t104.5 64.5t88.5 95zM386.5 874.5
q-61.5 -38.5 -95.5 -111.5t-35 -174h577q-22 153 -101 238.5t-200 85.5q-84 0 -145.5 -38.5zM472 -253v33l101 100h31l103 -100v-33l-103 -104h-31z" />
    <glyph glyph-name="uni1ECA" unicode="&#x1eca;" horiz-adv-x="717" 
d="M87 62l142 20l31 113v967l-31 111l-142 21l8 62h529l8 -62l-142 -21l-33 -111v-967l33 -113l142 -20l-8 -62h-529zM243 -253v33l101 100h31l103 -100v-33l-103 -104h-31z" />
    <glyph glyph-name="uni1ECB" unicode="&#x1ecb;" horiz-adv-x="590" 
d="M84 62l107 21l31 104v574l-153 91v43l113 8l247 115l42 -39l-83 -99v-693l31 -104l107 -21l-8 -62h-427zM174 1233v34l102 103h31l102 -103v-34l-102 -100h-31zM188 -253v33l101 100h31l103 -100v-33l-103 -104h-31z" />
    <glyph glyph-name="uni1ECC" unicode="&#x1ecc;" horiz-adv-x="1572" 
d="M465.5 62.5q-157.5 89.5 -252 251t-94.5 369.5q0 192 82 352.5t229.5 254.5t334.5 94q183 0 340.5 -89.5t252 -251.5t94.5 -370q0 -192 -82 -352t-229.5 -254t-334.5 -94q-183 0 -340.5 89.5zM1086 142.5q85 58.5 131 167t46 254.5q0 193 -76 355.5t-208 257.5t-294 95
q-115 0 -200 -59t-131 -168t-46 -255q0 -193 76.5 -354.5t209 -256.5t293.5 -95q114 0 199 58.5zM689 -253v33l101 100h31l103 -100v-33l-103 -104h-31z" />
    <glyph glyph-name="uni1ECD" unicode="&#x1ecd;" horiz-adv-x="1157" 
d="M335.5 38.5q-112.5 65.5 -177.5 183.5t-65 268q0 144 60.5 260.5t169.5 183t248 66.5q138 0 250.5 -65.5t177.5 -183.5t65 -268q0 -144 -60.5 -260.5t-170 -183t-248.5 -66.5q-137 0 -249.5 65.5zM779.5 108q58.5 41 91 116.5t32.5 175.5q0 131 -53.5 248t-143.5 187.5
t-193 70.5q-77 0 -136 -41t-91.5 -116.5t-32.5 -175.5q0 -131 54 -248t144 -187.5t193 -70.5q77 0 135.5 41zM495 -253v33l101 100h31l103 -100v-33l-103 -104h-31z" />
    <glyph glyph-name="uni1EE4" unicode="&#x1ee4;" horiz-adv-x="1492" 
d="M472.5 34.5q-118.5 61.5 -183 183.5t-64.5 300v644l-31 112l-128 20l8 62h499v-62l-119 -20l-32 -112v-496q0 -181 24 -301.5t105.5 -198t244.5 -77.5q209 0 300 107.5t91 321.5v646l-33 110l-132 20l7 62h389l8 -62l-134 -20l-28 -112v-687q0 -244 -129 -373t-383 -129
q-161 0 -279.5 61.5zM672 -253v33l101 100h31l103 -100v-33l-103 -104h-31z" />
    <glyph glyph-name="uni1EE5" unicode="&#x1ee5;" horiz-adv-x="1165" 
d="M273.5 66q-80.5 93 -80.5 275v420l-154 91v43l114 8l247 115l42 -39l-83 -99v-504q0 -148 46.5 -216t143.5 -68q78 0 141 43.5t105 131.5v494l-154 91v43l112 8l247 115l43 -39l-83 -99v-639q0 -88 41 -137t118 -51l-9 -68q-35 -5 -62 -5q-95 0 -156 49.5t-76 143.5
q-51 -93 -131.5 -146.5t-191.5 -53.5q-139 0 -219.5 93zM463 -253v33l101 100h31l103 -100v-33l-103 -104h-31z" />
    <glyph glyph-name="Ygrave" unicode="&#x1ef2;" horiz-adv-x="1320" 
d="M400 62l143 20l33 112v456l-370 564l-81 66l-84 22l3 54h510l10 -62l-93 -17l-28 -92l271 -412h17l262 412l-30 92l-94 17l10 62h396l5 -54l-84 -22l-101 -91l-323 -518v-477l33 -112l142 -20l-7 -62h-532zM408 1663v79l20 29h100l420 -254l-16 -33z" />
    <glyph glyph-name="ygrave" unicode="&#x1ef3;" horiz-adv-x="1098" 
d="M1079 919l-74 -20l-84 -90l-430 -1099q-39 -103 -114 -154.5t-168 -51.5q-51 0 -95 14t-88 40l68 160l57 8q12 -33 41 -60.5t81 -27.5q55 0 95 41.5t78 137.5l70 178l-338 828l-84 74l-76 22l4 54h453l11 -62l-98 -18l-29 -91l241 -602l238 606l-24 91l-122 16l10 60h373
zM285 1280v79l20 29h100l420 -254l-16 -33z" />
    <glyph glyph-name="endash" unicode="&#x2013;" horiz-adv-x="1264" 
d="M169 614h926v-88h-926v88z" />
    <glyph glyph-name="emdash" unicode="&#x2014;" horiz-adv-x="1640" 
d="M169 614h1302v-88h-1302v88z" />
    <glyph glyph-name="quoteleft" unicode="&#x2018;" horiz-adv-x="566" 
d="M399 1328q-55 -27 -85.5 -63.5t-30.5 -77.5q0 -22 5 -36l138 -113v-39l-119 -121h-35q-47 20 -83 70t-36 115q0 108 58.5 189t171.5 123z" />
    <glyph glyph-name="quoteright" unicode="&#x2019;" horiz-adv-x="564" 
d="M165 919q55 27 85.5 63.5t30.5 77.5q0 22 -5 36l-138 113v39l119 121h35q47 -20 83 -70t36 -115q0 -108 -58.5 -189t-171.5 -123z" />
    <glyph glyph-name="quotesinglbase" unicode="&#x201a;" horiz-adv-x="634" 
d="M200 -173q55 27 85.5 63.5t30.5 77.5q0 22 -5 36l-138 113v39l119 121h35q47 -20 83 -70t36 -115q0 -108 -58.5 -189t-171.5 -123z" />
    <glyph glyph-name="quotedblleft" unicode="&#x201c;" horiz-adv-x="983" 
d="M399 1329q-55 -27 -85.5 -63.5t-30.5 -77.5q0 -22 5 -36l138 -113v-39l-119 -121h-35q-47 20 -83 70t-36 115q0 108 58.5 189t171.5 123zM815 1329q-55 -27 -85.5 -63.5t-30.5 -77.5q0 -22 5 -36l138 -113v-39l-119 -121h-35q-47 20 -83 70t-36 115q0 108 58.5 189
t171.5 123z" />
    <glyph glyph-name="quotedblright" unicode="&#x201d;" horiz-adv-x="981" 
d="M165 919q55 27 85.5 63.5t30.5 77.5q0 22 -5 36l-138 113v39l119 121h35q47 -20 83 -70t36 -115q0 -108 -58.5 -189t-171.5 -123zM581 919q55 27 85.5 63.5t30.5 77.5q0 22 -5 36l-138 113v39l119 121h35q47 -20 83 -70t36 -115q0 -108 -58.5 -189t-171.5 -123z" />
    <glyph glyph-name="quotedblbase" unicode="&#x201e;" horiz-adv-x="980" 
d="M165 -173q55 27 85.5 63.5t30.5 77.5q0 22 -5 36l-138 113v39l119 121h35q47 -20 83 -70t36 -115q0 -108 -58.5 -189t-171.5 -123zM581 -173q55 27 85.5 63.5t30.5 77.5q0 22 -5 36l-138 113v39l119 121h35q47 -20 83 -70t36 -115q0 -108 -58.5 -189t-171.5 -123z" />
    <glyph glyph-name="dagger" unicode="&#x2020;" horiz-adv-x="1078" 
d="M446 -299l76 1093l-368 -64l-70 62v27l70 62l368 -54l-66 446l68 83h27l68 -83l-64 -446l368 54l70 -62v-27l-70 -62l-368 64l78 -1093l-80 -90h-27z" />
    <glyph glyph-name="daggerdbl" unicode="&#x2021;" horiz-adv-x="1139" 
d="M487 -167l66 445l-368 -54l-70 62v28l70 62l368 -64l-53 171l53 311l-368 -64l-70 62v27l70 62l368 -54l-66 446l68 83h27l68 -83l-64 -446l368 54l70 -62v-27l-70 -62l-368 64l52 -311l-52 -171l368 64l70 -62v-28l-70 -62l-368 54l64 -445l-68 -84h-27z" />
    <glyph glyph-name="bullet" unicode="&#x2022;" horiz-adv-x="764" 
d="M149 567v64l204 200h58l203 -200v-64l-203 -202h-58z" />
    <glyph glyph-name="ellipsis" unicode="&#x2026;" horiz-adv-x="1587" 
d="M647 127v36l124 127h33l125 -127v-36l-125 -127h-33zM1118 127v36l124 127h33l125 -127v-36l-125 -127h-33zM174 127v36l124 127h33l125 -127v-36l-125 -127h-33z" />
    <glyph glyph-name="perthousand" unicode="&#x2030;" horiz-adv-x="2272" 
d="M256.5 796q-68.5 45 -104 118t-35.5 154q0 82 35.5 155t104 118t161.5 45t158.5 -45t98.5 -117.5t33 -155.5q0 -82 -33 -154.5t-98.5 -117.5t-158.5 -45t-161.5 45zM369 41l774 1315l70 -41l-774 -1315zM554 886q37 76 37 182q0 99 -37 179t-136 80q-70 0 -111 -42
t-57 -101t-16 -116q0 -103 42 -180.5t142 -77.5q99 0 136 76zM1031.5 19.5q-68.5 45.5 -104.5 118.5t-36 154q0 82 36 154.5t104.5 117.5t161.5 45t158.5 -44.5t98.5 -117t33 -155.5q0 -82 -33 -155t-98.5 -118t-158.5 -45t-161.5 45.5zM1694.5 18q-68.5 45 -104 118
t-35.5 154q0 82 35.5 155t104 117.5t161.5 44.5t158.5 -44.5t98.5 -117t33 -155.5q0 -82 -33 -154.5t-98.5 -117.5t-158.5 -45t-161.5 45zM1329 109.5q37 76.5 37 182.5q0 99 -37 179t-136 80q-70 0 -111.5 -42.5t-57.5 -101t-16 -115.5q0 -103 42 -181t143 -78
q99 0 136 76.5zM1992 107.5q37 76.5 37 182.5q0 99 -37 179t-136 80q-70 0 -111 -42t-57 -101t-16 -116q0 -103 42 -181t142 -78q99 0 136 76.5z" />
    <glyph glyph-name="guilsinglleft" unicode="&#x2039;" horiz-adv-x="601" 
d="M70 483v42l387 327h24v-65l-247 -283l247 -283v-65h-24z" />
    <glyph glyph-name="guilsinglright" unicode="&#x203a;" horiz-adv-x="602" 
d="M122 156v65l247 283l-247 283v65h24l387 -327v-42l-387 -327h-24z" />
    <glyph glyph-name="fraction" unicode="&#x2044;" horiz-adv-x="343" 
d="M-251 41l774 1315l70 -41l-774 -1315z" />
    <glyph glyph-name="uni2070" unicode="&#x2070;" horiz-adv-x="818" 
d="M225 763.5q-77 55.5 -116.5 145.5t-39.5 192q0 101 39.5 190.5t116.5 145t184 55.5t183.5 -55t115.5 -145t39 -191q0 -102 -39 -192t-115.5 -145.5t-183.5 -55.5t-184 55.5zM566 872.5q45 97.5 45 228.5q0 128 -45 225.5t-157 97.5q-113 0 -157.5 -97t-44.5 -226
q0 -131 44.5 -228.5t157.5 -97.5q112 0 157 97.5z" />
    <glyph glyph-name="uni2074" unicode="&#x2074;" horiz-adv-x="722" 
d="M537 977v-128l20 -51l106 -12l-5 -52h-360l-6 52l109 12l18 51v128h-386l-25 43l298 459h167l-370 -440h316v174l84 122h34v-296h144v-62h-144z" />
    <glyph glyph-name="uni2075" unicode="&#x2075;" horiz-adv-x="764" 
d="M186 763.5q-78 48.5 -128 116.5l43 35q44 -54 108 -87.5t141 -33.5q94 0 154 49t60 133q0 79 -51.5 123t-141.5 44q-65 0 -123.5 -23t-98.5 -65h-35l-21 31l91 393h344l77 26h46l-21 -130h-403l-55 -238q42 44 107.5 71.5t150.5 27.5q72 0 131 -29t93.5 -83.5
t34.5 -128.5q0 -89 -44.5 -152.5t-116.5 -95.5t-153 -32q-111 0 -189 48.5z" />
    <glyph glyph-name="uni2076" unicode="&#x2076;" horiz-adv-x="787" 
d="M582.5 1210.5q64.5 -35.5 101 -98.5t36.5 -141q0 -76 -40.5 -135.5t-109.5 -93t-151 -33.5q-96 0 -176 48t-127 138t-47 210q0 118 45.5 206t123.5 135t175 47q68 0 122.5 -21.5t90 -52.5t52.5 -60l-93 -53l-28 18v8q0 25 -16.5 48t-49 37.5t-78.5 14.5q-73 0 -126.5 -35
t-82 -95.5t-28.5 -135.5q0 -46 7 -82q33 81 102 121.5t151 40.5t146.5 -35.5zM550 830q45 46 45 122q0 57 -24.5 107.5t-68.5 81t-100 30.5q-49 0 -88 -24t-60.5 -65t-21.5 -91q0 -57 27 -104.5t73.5 -75t101.5 -27.5q71 0 116 46z" />
    <glyph glyph-name="uni2077" unicode="&#x2077;" horiz-adv-x="597" 
d="M275 1079q104 165 237 294h-362l-63 -137h-34l26 268h47l100 -25h369v-73q-143 -160 -211.5 -321t-68.5 -351h-144q0 180 104 345z" />
    <glyph glyph-name="uni2078" unicode="&#x2078;" horiz-adv-x="773" 
d="M654.5 1063.5q61.5 -49.5 61.5 -125.5q0 -67 -42.5 -119t-120 -81t-178.5 -29q-95 0 -166 25.5t-109 72.5t-38 108q0 72 56.5 123.5t166.5 92.5q-84 39 -124.5 84t-40.5 99t33 94.5t93 62.5t138 22q73 0 133 -19.5t95.5 -57.5t35.5 -91q0 -65 -48.5 -102.5t-117.5 -63.5
q111 -46 172.5 -95.5zM286 1250q42 -30 134 -67q68 24 108.5 54.5t40.5 74.5q0 55 -48 85t-117 30q-74 0 -117 -28t-43 -77q0 -42 42 -72zM537 812.5q54 38.5 54 100.5q0 46 -33.5 80t-80.5 56.5t-129 54.5q-56 -22 -95 -43t-68 -54t-29 -77q0 -45 28.5 -80.5t80.5 -55.5
t122 -20q96 0 150 38.5z" />
    <glyph glyph-name="uni2079" unicode="&#x2079;" horiz-adv-x="787" 
d="M544 1445q80 -48 127 -138t47 -210q0 -118 -45.5 -206t-123.5 -135t-175 -47q-68 0 -122.5 21.5t-90 52.5t-52.5 60l93 53l28 -18v-8q0 -25 16.5 -48t49 -37.5t78.5 -14.5q73 0 126.5 35t82 95.5t28.5 135.5q0 46 -7 82q-33 -81 -102 -121.5t-151 -40.5t-146.5 35.5
t-101 98.5t-36.5 141q0 76 40.5 135.5t109.5 93t151 33.5q96 0 176 -48zM473 1055q39 24 60.5 65t21.5 91q0 57 -27 104.5t-73.5 75t-101.5 27.5q-71 0 -116 -46t-45 -122q0 -57 24.5 -107.5t68.5 -81t100 -30.5q49 0 88 24z" />
    <glyph glyph-name="uni2080" unicode="&#x2080;" horiz-adv-x="818" 
d="M225 -274.5q-77 55.5 -116.5 145.5t-39.5 192q0 101 39.5 190.5t116.5 145t184 55.5t183.5 -55t115.5 -145t39 -191q0 -102 -39 -192t-115.5 -145.5t-183.5 -55.5t-184 55.5zM566 -165.5q45 97.5 45 228.5q0 128 -45 225.5t-157 97.5q-113 0 -157.5 -97t-44.5 -226
q0 -131 44.5 -228.5t157.5 -97.5q112 0 157 97.5z" />
    <glyph glyph-name="uni2081" unicode="&#x2081;" horiz-adv-x="547" 
d="M65 -259l107 12l25 51v451l-20 49h-128v51q83 13 126 30t92 49h46v-630l26 -51l109 -12l-6 -52h-372z" />
    <glyph glyph-name="uni2082" unicode="&#x2082;" horiz-adv-x="756" 
d="M46 -290q18 59 56 105.5t83 80t114 76.5q72 45 114 77.5t70 77t28 101.5q0 74 -43 116.5t-116 42.5q-49 0 -89 -20t-62.5 -53.5t-22.5 -72.5q0 -25 10 -46l-31 -20l-109 66q40 104 121.5 158.5t191.5 54.5q70 0 136 -23t109 -72t43 -122q0 -74 -42.5 -130t-102.5 -93.5
t-155 -84.5q-84 -43 -128.5 -71t-63.5 -62h381l99 99h37l-48 -206h-580v21z" />
    <glyph glyph-name="uni2083" unicode="&#x2083;" horiz-adv-x="750" 
d="M617 106q73 -60 73 -168q0 -81 -41 -142t-111 -93.5t-155 -32.5q-108 0 -189.5 50.5t-131.5 114.5l43 35q47 -52 112 -87.5t140 -35.5q94 0 151 48t57 131q0 88 -56 132.5t-148 44.5q-59 0 -114 -20.5t-92 -46.5l-27 52l336 241h-389l11 130h31l77 -25h424v-64l-304 -218
q50 14 110 14q120 0 193 -60z" />
    <glyph glyph-name="uni2084" unicode="&#x2084;" horiz-adv-x="722" 
d="M537 -68v-128l20 -51l106 -12l-5 -52h-360l-6 52l109 12l18 51v128h-386l-25 43l298 459h167l-370 -440h316v174l84 122h34v-296h144v-62h-144z" />
    <glyph glyph-name="uni2085" unicode="&#x2085;" horiz-adv-x="764" 
d="M186 -281.5q-78 48.5 -128 116.5l43 35q44 -54 108 -87.5t141 -33.5q94 0 154 49t60 133q0 79 -51.5 123t-141.5 44q-65 0 -123.5 -23t-98.5 -65h-35l-21 31l91 393h344l77 26h46l-21 -130h-403l-55 -238q42 44 107.5 71.5t150.5 27.5q72 0 131 -29t93.5 -83.5
t34.5 -128.5q0 -89 -44.5 -152.5t-116.5 -95.5t-153 -32q-111 0 -189 48.5z" />
    <glyph glyph-name="uni2086" unicode="&#x2086;" horiz-adv-x="787" 
d="M582.5 171.5q64.5 -35.5 101 -98.5t36.5 -141q0 -76 -40.5 -135.5t-109.5 -93t-151 -33.5q-96 0 -176 48t-127 138t-47 210q0 118 45.5 206t123.5 135t175 47q68 0 122.5 -21.5t90 -52.5t52.5 -60l-93 -53l-28 18v8q0 25 -16.5 48t-49 37.5t-78.5 14.5q-73 0 -126.5 -35
t-82 -95.5t-28.5 -135.5q0 -46 7 -82q33 81 102 121.5t151 40.5t146.5 -35.5zM550 -209q45 46 45 122q0 57 -24.5 107.5t-68.5 81t-100 30.5q-49 0 -88 -24t-60.5 -65t-21.5 -91q0 -57 27 -104.5t73.5 -75t101.5 -27.5q71 0 116 46z" />
    <glyph glyph-name="uni2087" unicode="&#x2087;" horiz-adv-x="597" 
d="M275 34q104 165 237 294h-362l-63 -137h-34l26 268h47l100 -25h369v-73q-143 -160 -211.5 -321t-68.5 -351h-144q0 180 104 345z" />
    <glyph glyph-name="uni2088" unicode="&#x2088;" horiz-adv-x="773" 
d="M654.5 24.5q61.5 -49.5 61.5 -125.5q0 -67 -42.5 -119t-120 -81t-178.5 -29q-95 0 -166 25.5t-109 72.5t-38 108q0 72 56.5 123.5t166.5 92.5q-84 39 -124.5 84t-40.5 99t33 94.5t93 62.5t138 22q73 0 133 -19.5t95.5 -57.5t35.5 -91q0 -65 -48.5 -102.5t-117.5 -63.5
q111 -46 172.5 -95.5zM286 211q42 -30 134 -67q68 24 108.5 54.5t40.5 74.5q0 55 -48 85t-117 30q-74 0 -117 -28t-43 -77q0 -42 42 -72zM537 -226.5q54 38.5 54 100.5q0 46 -33.5 80t-80.5 56.5t-129 54.5q-56 -22 -95 -43t-68 -54t-29 -77q0 -45 28.5 -80.5t80.5 -55.5
t122 -20q96 0 150 38.5z" />
    <glyph glyph-name="uni2089" unicode="&#x2089;" horiz-adv-x="787" 
d="M544 392q80 -48 127 -138t47 -210q0 -118 -45.5 -206t-123.5 -135t-175 -47q-68 0 -122.5 21.5t-90 52.5t-52.5 60l93 53l28 -18v-8q0 -25 16.5 -48t49 -37.5t78.5 -14.5q73 0 126.5 35t82 95.5t28.5 135.5q0 46 -7 82q-33 -81 -102 -121.5t-151 -40.5t-146.5 35.5
t-101 98.5t-36.5 141q0 76 40.5 135.5t109.5 93t151 33.5q96 0 176 -48zM473 2q39 24 60.5 65t21.5 91q0 57 -27 104.5t-73.5 75t-101.5 27.5q-71 0 -116 -46t-45 -122q0 -57 24.5 -107.5t68.5 -81t100 -30.5q49 0 88 24z" />
    <glyph glyph-name="Euro" unicode="&#x20ac;" horiz-adv-x="1525" 
d="M1418 278q-75 -145 -197 -225t-283 -80q-140 0 -266.5 74.5t-213.5 207t-112 300.5h-233l23 85h201q-1 15 -1 45q0 51 4 91h-173l24 86h161q29 153 106 271.5t193 184.5t260 66q80 0 149.5 -20.5t118.5 -55.5l109 93h80l10 -465h-76q-48 166 -143 260t-234 94
q-85 0 -166 -46.5t-139.5 -143t-74.5 -238.5h549l-24 -86h-531v-17q0 -66 7 -119h493l-23 -85h-455q29 -130 93.5 -228.5t155.5 -153t198 -54.5q103 0 193.5 50.5t156.5 148.5z" />
    <glyph glyph-name="trademark" unicode="&#x2122;" horiz-adv-x="2031" 
d="M136 1354h714v-173l-35 -11l-23 74l-99 54h-141v-576l16 -53l78 -12l-6 -48h-300l-6 48l78 12l16 53v576h-134l-100 -54l-25 -74l-33 11v173zM1755 669l80 -12l-6 -48h-294l-6 48l72 12l16 53v495l-226 -472l-35 -21l-247 448v-450l11 -53l71 -12l-6 -48h-222l-6 48
l78 12l15 53v520l-15 52l-78 12l6 48h191l249 -452l213 452h213l6 -48l-80 -12l-13 -53v-519z" />
    <glyph glyph-name="onethird" unicode="&#x2153;" horiz-adv-x="1640" 
d="M65 663l107 12l25 51v451l-20 49h-128v51q83 13 126 30t92 49h46v-630l26 -51l109 -12l-6 -52h-372zM296 41l774 1315l70 -41l-774 -1315zM1507 417q73 -60 73 -168q0 -81 -41 -142t-111 -93.5t-155 -32.5q-108 0 -189.5 50.5t-131.5 114.5l43 35q47 -52 112 -87.5
t140 -35.5q94 0 151 48t57 131q0 88 -56 132.5t-148 44.5q-59 0 -114 -20.5t-92 -46.5l-27 52l336 241h-389l11 130h31l77 -25h424v-64l-304 -218q50 14 110 14q120 0 193 -60z" />
    <glyph glyph-name="twothirds" unicode="&#x2154;" horiz-adv-x="1849" 
d="M46 632q18 59 56 105.5t83 80t114 76.5q72 45 114 77.5t70 77t28 101.5q0 74 -43 116.5t-116 42.5q-49 0 -89 -20t-62.5 -53.5t-22.5 -72.5q0 -25 10 -46l-31 -20l-109 66q40 104 121.5 158.5t191.5 54.5q70 0 136 -23t109 -72t43 -122q0 -74 -42.5 -130t-102.5 -93.5
t-155 -84.5q-84 -43 -128.5 -71t-63.5 -62h381l99 99h37l-48 -206h-580v21zM505 41l774 1315l70 -41l-774 -1315zM1716 417q73 -60 73 -168q0 -81 -41 -142t-111 -93.5t-155 -32.5q-108 0 -189.5 50.5t-131.5 114.5l43 35q47 -52 112 -87.5t140 -35.5q94 0 151 48t57 131
q0 88 -56 132.5t-148 44.5q-59 0 -114 -20.5t-92 -46.5l-27 52l336 241h-389l11 130h31l77 -25h424v-64l-304 -218q50 14 110 14q120 0 193 -60z" />
    <glyph glyph-name="oneeighth" unicode="&#x215b;" horiz-adv-x="1663" 
d="M65 663l107 12l25 51v451l-20 49h-128v51q83 13 126 30t92 49h46v-630l26 -51l109 -12l-6 -52h-372zM296 41l774 1315l70 -41l-774 -1315zM1544.5 335.5q61.5 -49.5 61.5 -125.5q0 -67 -42.5 -119t-120 -81t-178.5 -29q-95 0 -166 25.5t-109 72.5t-38 108
q0 72 56.5 123.5t166.5 92.5q-84 39 -124.5 84t-40.5 99t33 94.5t93 62.5t138 22q73 0 133 -19.5t95.5 -57.5t35.5 -91q0 -65 -48.5 -102.5t-117.5 -63.5q111 -46 172.5 -95.5zM1176 522q42 -30 134 -67q68 24 108.5 54.5t40.5 74.5q0 55 -48 85t-117 30q-74 0 -117 -28
t-43 -77q0 -42 42 -72zM1427 84.5q54 38.5 54 100.5q0 46 -33.5 80t-80.5 56.5t-129 54.5q-56 -22 -95 -43t-68 -54t-29 -77q0 -45 28.5 -80.5t80.5 -55.5t122 -20q96 0 150 38.5z" />
    <glyph glyph-name="threeeighths" unicode="&#x215c;" horiz-adv-x="1866" 
d="M617 1028q73 -60 73 -168q0 -81 -41 -142t-111 -93.5t-155 -32.5q-108 0 -189.5 50.5t-131.5 114.5l43 35q47 -52 112 -87.5t140 -35.5q94 0 151 48t57 131q0 88 -56 132.5t-148 44.5q-59 0 -114 -20.5t-92 -46.5l-27 52l336 241h-389l11 130h31l77 -25h424v-64
l-304 -218q50 14 110 14q120 0 193 -60zM499 41l774 1315l70 -41l-774 -1315zM1747.5 335.5q61.5 -49.5 61.5 -125.5q0 -67 -42.5 -119t-120 -81t-178.5 -29q-95 0 -166 25.5t-109 72.5t-38 108q0 72 56.5 123.5t166.5 92.5q-84 39 -124.5 84t-40.5 99t33 94.5t93 62.5
t138 22q73 0 133 -19.5t95.5 -57.5t35.5 -91q0 -65 -48.5 -102.5t-117.5 -63.5q111 -46 172.5 -95.5zM1379 522q42 -30 134 -67q68 24 108.5 54.5t40.5 74.5q0 55 -48 85t-117 30q-74 0 -117 -28t-43 -77q0 -42 42 -72zM1630 84.5q54 38.5 54 100.5q0 46 -33.5 80
t-80.5 56.5t-129 54.5q-56 -22 -95 -43t-68 -54t-29 -77q0 -45 28.5 -80.5t80.5 -55.5t122 -20q96 0 150 38.5z" />
    <glyph glyph-name="fiveeighths" unicode="&#x215d;" horiz-adv-x="1880" 
d="M186 640.5q-78 48.5 -128 116.5l43 35q44 -54 108 -87.5t141 -33.5q94 0 154 49t60 133q0 79 -51.5 123t-141.5 44q-65 0 -123.5 -23t-98.5 -65h-35l-21 31l91 393h344l77 26h46l-21 -130h-403l-55 -238q42 44 107.5 71.5t150.5 27.5q72 0 131 -29t93.5 -83.5
t34.5 -128.5q0 -89 -44.5 -152.5t-116.5 -95.5t-153 -32q-111 0 -189 48.5zM513 41l774 1315l70 -41l-774 -1315zM1761.5 335.5q61.5 -49.5 61.5 -125.5q0 -67 -42.5 -119t-120 -81t-178.5 -29q-95 0 -166 25.5t-109 72.5t-38 108q0 72 56.5 123.5t166.5 92.5
q-84 39 -124.5 84t-40.5 99t33 94.5t93 62.5t138 22q73 0 133 -19.5t95.5 -57.5t35.5 -91q0 -65 -48.5 -102.5t-117.5 -63.5q111 -46 172.5 -95.5zM1393 522q42 -30 134 -67q68 24 108.5 54.5t40.5 74.5q0 55 -48 85t-117 30q-74 0 -117 -28t-43 -77q0 -42 42 -72z
M1644 84.5q54 38.5 54 100.5q0 46 -33.5 80t-80.5 56.5t-129 54.5q-56 -22 -95 -43t-68 -54t-29 -77q0 -45 28.5 -80.5t80.5 -55.5t122 -20q96 0 150 38.5z" />
    <glyph glyph-name="seveneighths" unicode="&#x215e;" horiz-adv-x="1713" 
d="M275 956q104 165 237 294h-362l-63 -137h-34l26 268h47l100 -25h369v-73q-143 -160 -211.5 -321t-68.5 -351h-144q0 180 104 345zM346 41l774 1315l70 -41l-774 -1315zM1594.5 335.5q61.5 -49.5 61.5 -125.5q0 -67 -42.5 -119t-120 -81t-178.5 -29q-95 0 -166 25.5
t-109 72.5t-38 108q0 72 56.5 123.5t166.5 92.5q-84 39 -124.5 84t-40.5 99t33 94.5t93 62.5t138 22q73 0 133 -19.5t95.5 -57.5t35.5 -91q0 -65 -48.5 -102.5t-117.5 -63.5q111 -46 172.5 -95.5zM1226 522q42 -30 134 -67q68 24 108.5 54.5t40.5 74.5q0 55 -48 85t-117 30
q-74 0 -117 -28t-43 -77q0 -42 42 -72zM1477 84.5q54 38.5 54 100.5q0 46 -33.5 80t-80.5 56.5t-129 54.5q-56 -22 -95 -43t-68 -54t-29 -77q0 -45 28.5 -80.5t80.5 -55.5t122 -20q96 0 150 38.5z" />
    <glyph glyph-name="arrowleft" unicode="&#x2190;" horiz-adv-x="1589" 
d="M1472 642h-1163l245 -323l-44 -42l-394 395v31l394 395l44 -43l-245 -323h1163v-90z" />
    <glyph glyph-name="arrowup" unicode="&#x2191;" horiz-adv-x="1055" 
d="M895 918l-323 245v-1163h-90v1163l-323 -245l-42 44l395 394h31l395 -394z" />
    <glyph glyph-name="arrowright" unicode="&#x2192;" horiz-adv-x="1589" 
d="M1473 702v-31l-394 -395l-44 43l245 323h-1163v90h1163l-245 323l44 42z" />
    <glyph glyph-name="arrowdown" unicode="&#x2193;" horiz-adv-x="1055" 
d="M938 394l-395 -394h-31l-395 394l42 44l323 -245v1163h90v-1163l323 245z" />
    <glyph glyph-name="arrowboth" unicode="&#x2194;" horiz-adv-x="1588" 
d="M1472 741v-31l-394 -394l-44 42l251 331h-981l250 -331l-43 -42l-395 394v31l395 396l43 -43l-250 -331h981l-251 330l44 44z" />
    <glyph glyph-name="arrowupdn" unicode="&#x2195;" horiz-adv-x="1055" 
d="M895 409l43 -43l-394 -395h-33l-394 395l43 43l323 -245v971l-323 -246l-43 44l394 394h33l394 -394l-43 -44l-322 244v-967z" />
    <glyph glyph-name="uni2196" unicode="&#x2196;" horiz-adv-x="1590" 
d="M1415 0l-1181 1179l-57 -405h-60v559l21 22h559v-61l-404 -57l1180 -1181z" />
    <glyph glyph-name="uni2197" unicode="&#x2197;" horiz-adv-x="1590" 
d="M1473 1333v-559h-60l-57 405l-1181 -1179l-58 56l1180 1181l-404 57v61h559z" />
    <glyph glyph-name="uni2198" unicode="&#x2198;" horiz-adv-x="1590" 
d="M293 119l404 -57v-61h-559l-21 22v559h60l57 -405l1181 1179l58 -56z" />
    <glyph glyph-name="uni2199" unicode="&#x2199;" horiz-adv-x="1590" 
d="M1473 582v-559l-21 -22h-559v61l404 57l-1180 1181l58 56l1181 -1179l57 405h60z" />
    <glyph glyph-name="partialdiff" unicode="&#x2202;" horiz-adv-x="1358" 
d="M914.5 1397.5q133.5 -106.5 204.5 -286.5t71 -395q0 -232 -78 -400.5t-208 -255.5t-282 -87q-133 0 -239.5 65.5t-167 180t-60.5 256.5q0 147 65 264t173.5 182.5t233.5 65.5q138 0 236.5 -83t141.5 -239q13 49 19 93.5t6 97.5q0 172 -52 300t-146 196.5t-218 68.5
q-75 0 -132 -22.5t-88.5 -62.5t-31.5 -89q0 -17 5 -42l-33 -24l-138 86q51 97 152.5 167t255.5 70q177 0 310.5 -106.5zM754 139q83 71 132 185t49 236q0 96 -31 168t-87.5 111t-130.5 39q-106 0 -188.5 -76t-128 -190.5t-45.5 -223.5q0 -91 31.5 -163.5t88.5 -114.5
t131 -42q96 0 179 71z" />
    <glyph glyph-name="emptyset" unicode="&#x2205;" horiz-adv-x="1758" 
d="M1536 941q49 -124 49 -262q0 -194 -94 -355.5t-255.5 -256t-355.5 -94.5q-134 0 -254.5 46t-215.5 130l-145 -149l-58 55l147 150q-86 96 -134 217.5t-48 256.5q0 194 95 356t257 256t356 94q131 0 249 -44t212 -125l145 148l58 -54l-146 -149q89 -96 138 -220zM305 457
q39 -106 110 -190l867 888q-82 72 -184.5 111.5t-217.5 39.5q-170 0 -310.5 -84t-222 -228t-81.5 -315q0 -116 39 -222zM1190 136q140 84 220.5 228t80.5 315q0 119 -40 227t-114 192l-867 -888q83 -75 188 -116.5t222 -41.5q170 0 310 84z" />
    <glyph glyph-name="product" unicode="&#x220f;" horiz-adv-x="1636" 
d="M122 -333l142 20l31 112v1363l-31 111l-142 21l8 62h1378l8 -62l-143 -21l-32 -111v-1360l32 -113l143 -19l-8 -63h-530l-8 63l143 19l31 113v1478h-652v-1481l33 -112l142 -20l-8 -62h-529z" />
    <glyph glyph-name="summation" unicode="&#x2211;" horiz-adv-x="1397" 
d="M945 1280h-545l438 -672v-133l-604 -788h701l193 165l41 168l45 -12v-397h-1108v54l586 763l-563 864v64h1096v-395l-44 -11l-44 165z" />
    <glyph glyph-name="minus" unicode="&#x2212;" horiz-adv-x="1388" 
d="M256 596h876v-104h-876v104z" />
    <glyph glyph-name="radical" unicode="&#x221a;" horiz-adv-x="1560" 
d="M1460 1356l-523 -1745h-226l-266 803h-335l-14 147h518l270 -823l487 1618h89z" />
    <glyph glyph-name="infinity" unicode="&#x221e;" horiz-adv-x="1639" 
d="M337 339.5q-62 34.5 -97.5 96t-35.5 140.5q0 78 35.5 139.5t97.5 96t139 34.5q57 0 105 -17t88 -45t92 -74l58 -53l59 53q52 47 92.5 75.5t87 44.5t103.5 16q77 0 139.5 -34.5t98 -96t35.5 -139.5q0 -79 -35.5 -140.5t-98 -96t-139.5 -34.5q-82 0 -144 33.5t-139 102.5
l-59 53l-58 -53q-51 -45 -91.5 -73.5t-88.5 -45.5t-105 -17q-77 0 -139 34.5zM596.5 433q56.5 34 109.5 84l63 59l-61 56q-68 63 -118 92t-110 29q-49 0 -90 -21.5t-65 -62t-24 -93.5q0 -55 24 -95t65 -61t90 -21q60 0 116.5 34zM1246.5 420q41.5 21 66 61t24.5 95
q0 54 -24.5 94t-66 61.5t-91.5 21.5q-59 0 -106.5 -28t-118.5 -93l-61 -56l63 -59q53 -50 108.5 -84t114.5 -34q50 0 91.5 21z" />
    <glyph glyph-name="integral" unicode="&#x222b;" horiz-adv-x="1011" 
d="M79 -461q206 163 206 451v860q0 144 56.5 267t153.5 195t215 72q73 0 135.5 -27.5t83.5 -77.5l-120 -146h-27q-17 54 -55 83t-95 29q-75 0 -115 -49t-53.5 -127.5t-13.5 -189.5v-877q0 -153 -60 -256t-132.5 -154.5t-153.5 -87.5z" />
    <glyph glyph-name="approxequal" unicode="&#x2248;" horiz-adv-x="1427" 
d="M323 294.5q-80 39.5 -125 93.5l55 87q102 -111 241 -111q51 0 92 14.5t100 44.5q68 34 120 51.5t122 17.5q88 0 168 -39.5t126 -92.5l-55 -88q-46 50 -106.5 80.5t-134.5 30.5q-51 0 -92 -14.5t-100 -44.5q-69 -34 -120.5 -51.5t-121.5 -17.5q-89 0 -169 39.5zM323 596.5
q-80 39.5 -125 93.5l55 87q102 -111 241 -111q51 0 92 14.5t100 44.5q68 34 120 51.5t122 17.5q88 0 168 -39.5t126 -92.5l-55 -88q-46 50 -106.5 80.5t-134.5 30.5q-51 0 -92 -14.5t-100 -44.5q-69 -34 -120.5 -51.5t-121.5 -17.5q-89 0 -169 39.5z" />
    <glyph glyph-name="notequal" unicode="&#x2260;" horiz-adv-x="1257" 
d="M769 668l-168 -242h465v-105h-537l-183 -263h-111l182 263h-226v105h299l168 242h-467v104h539l181 261l111 -1l-180 -260h224v-104h-297z" />
    <glyph glyph-name="lessequal" unicode="&#x2264;" horiz-adv-x="1251" 
d="M1063 919l-686 -292l686 -294v-119l-875 374v83l875 368v-120zM188 105h875v-105h-875v105z" />
    <glyph glyph-name="greaterequal" unicode="&#x2265;" horiz-adv-x="1251" 
d="M1063 671v-83l-875 -374v119l686 294l-686 292v120zM188 105h875v-105h-875v105z" />
    <glyph glyph-name="uni2460" unicode="&#x2460;" horiz-adv-x="1763" 
d="M527.5 67.5q-162.5 94.5 -257.5 256.5t-95 355q0 194 95 356t257 256t356 94t355.5 -94t255.5 -256t94 -356t-94 -355.5t-255.5 -256t-355.5 -94.5q-193 0 -355.5 94.5zM1199.5 126.5q142.5 85.5 224.5 231.5t82 321t-82 321t-224.5 231.5t-316.5 85.5t-317.5 -85.5
t-226 -231.5t-82.5 -321t82.5 -321t226 -231.5t317.5 -85.5t316.5 85.5zM619 319l179 16l21 58v503l-16 56l-182 -11v52q98 26 162.5 47t105.5 43h53v-690l22 -58l179 -16l-6 -49h-511z" />
    <glyph glyph-name="uni2461" unicode="&#x2461;" horiz-adv-x="1763" 
d="M527.5 67.5q-162.5 94.5 -257.5 256.5t-95 355q0 194 95 356t257 256t356 94t355.5 -94t255.5 -256t94 -356t-94 -355.5t-255.5 -256t-355.5 -94.5q-193 0 -355.5 94.5zM1199.5 126.5q142.5 85.5 224.5 231.5t82 321t-82 321t-224.5 231.5t-316.5 85.5t-317.5 -85.5
t-226 -231.5t-82.5 -321t82.5 -321t226 -231.5t317.5 -85.5t316.5 85.5zM598 293q17 67 52.5 119.5t77 90t105.5 87.5q67 52 105.5 88.5t64.5 86.5t26 114q0 72 -40.5 111.5t-106.5 39.5q-42 0 -75.5 -16t-52.5 -43.5t-19 -60.5q0 -22 11 -47l-36 -19l-114 71q39 90 117 138
t179 48q70 0 134 -22t105.5 -72t41.5 -128t-40 -138.5t-96.5 -102.5t-147.5 -98q-85 -52 -128 -85.5t-62 -72.5h342l95 108h44l-49 -220h-533v23z" />
    <glyph glyph-name="uni2462" unicode="&#x2462;" horiz-adv-x="1763" 
d="M1238.5 1291q161.5 -94 255.5 -256t94 -356t-94 -355.5t-255.5 -256t-355.5 -94.5q-193 0 -355.5 94.5t-257.5 256.5t-95 355q0 194 95 356t257 256t356 94t355.5 -94zM1199.5 126.5q142.5 85.5 224.5 231.5t82 321t-82 321t-224.5 231.5t-316.5 85.5t-317.5 -85.5
t-226 -231.5t-82.5 -321t82.5 -321t226 -231.5t317.5 -85.5t316.5 85.5zM1065 764q59 -29 92 -84.5t33 -131.5q0 -89 -40.5 -156t-109 -103t-149.5 -36q-72 0 -134.5 27.5t-107.5 67.5t-71 80l48 36q40 -54 104.5 -92t137.5 -38q55 0 99 24.5t68.5 69.5t24.5 105
q0 93 -53 142t-140 49q-57 0 -107.5 -21.5t-87.5 -49.5l-29 52l336 265h-380l13 140h36l73 -28h408v-66l-329 -248q60 25 131 25q75 0 134 -29z" />
    <glyph glyph-name="uni2463" unicode="&#x2463;" horiz-adv-x="1763" 
d="M1238.5 1291q161.5 -94 255.5 -256t94 -356t-94 -355.5t-255.5 -256t-355.5 -94.5q-193 0 -355.5 94.5t-257.5 256.5t-95 355q0 194 95 356t257 256t356 94t355.5 -94zM1199.5 126.5q142.5 85.5 224.5 231.5t82 321t-82 321t-224.5 231.5t-316.5 85.5t-317.5 -85.5
t-226 -231.5t-82.5 -321t82.5 -321t226 -231.5t317.5 -85.5t316.5 85.5zM1011 632h136v-64h-136v-175l16 -56l86 -14l-6 -53h-316l-7 53l86 14l17 56v175h-365l-27 45l287 470h174l-353 -451h284v160l84 133h40v-293z" />
    <glyph glyph-name="uni2464" unicode="&#x2464;" horiz-adv-x="1763" 
d="M527.5 67.5q-162.5 94.5 -257.5 256.5t-95 355q0 194 95 356t257 256t356 94t355.5 -94t255.5 -256t94 -356t-94 -355.5t-255.5 -256t-355.5 -94.5q-193 0 -355.5 94.5zM1199.5 126.5q142.5 85.5 224.5 231.5t82 321t-82 321t-224.5 231.5t-316.5 85.5t-317.5 -85.5
t-226 -231.5t-82.5 -321t82.5 -321t226 -231.5t317.5 -85.5t316.5 85.5zM681.5 306q-78.5 54 -120.5 122l48 35q42 -57 100.5 -93t132.5 -36q90 0 146 54.5t56 147.5q0 85 -47.5 132t-128.5 47q-59 0 -115.5 -25.5t-93.5 -69.5h-40l-25 33l90 428h326l74 27h55l-23 -138
h-392l-60 -283q33 46 100.5 86.5t157.5 40.5q71 0 128.5 -28.5t91 -86t33.5 -140.5q0 -96 -44 -165.5t-115.5 -105.5t-151.5 -36q-104 0 -182.5 54z" />
    <glyph glyph-name="uni2465" unicode="&#x2465;" horiz-adv-x="1763" 
d="M1238.5 1291q161.5 -94 255.5 -256t94 -356t-94 -355.5t-255.5 -256t-355.5 -94.5q-193 0 -355.5 94.5t-257.5 256.5t-95 355q0 194 95 356t257 256t356 94t355.5 -94zM1199.5 126.5q142.5 85.5 224.5 231.5t82 321t-82 321t-224.5 231.5t-316.5 85.5t-317.5 -85.5
t-226 -231.5t-82.5 -321t82.5 -321t226 -231.5t317.5 -85.5t316.5 85.5zM1039 798.5q66 -43.5 103.5 -115.5t37.5 -154q0 -81 -38 -144.5t-102.5 -98.5t-141.5 -35q-93 0 -171.5 51.5t-125 148.5t-46.5 227q0 124 42.5 219t119.5 148t177 53q67 0 119.5 -24t85.5 -59t49 -70
l-96 -57l-31 19q4 18 4 30q0 41 -37 65.5t-96 24.5q-67 0 -118 -31.5t-78.5 -89t-27.5 -134.5q0 -35 6 -74q34 68 90 106t130 38q79 0 145 -43.5zM993.5 343.5q30.5 17.5 49 51t18.5 79.5q0 55 -26 122t-73 114t-107 47q-59 0 -96.5 -46t-37.5 -118q0 -61 27.5 -123.5
t75.5 -103t104 -40.5q35 0 65.5 17.5z" />
    <glyph glyph-name="uni2466" unicode="&#x2466;" horiz-adv-x="1763" 
d="M527.5 67.5q-162.5 94.5 -257.5 256.5t-95 355q0 194 95 356t257 256t356 94t355.5 -94t255.5 -256t94 -356t-94 -355.5t-255.5 -256t-355.5 -94.5q-193 0 -355.5 94.5zM1199.5 126.5q142.5 85.5 224.5 231.5t82 321t-82 321t-224.5 231.5t-316.5 85.5t-317.5 -85.5
t-226 -231.5t-82.5 -321t82.5 -321t226 -231.5t317.5 -85.5t316.5 85.5zM789.5 541q61.5 133 139.5 232.5t171 197.5h-403l-59 -151h-42l28 291h55l94 -28h402v-77q-152 -189 -231.5 -363.5t-79.5 -372.5h-136q0 138 61.5 271z" />
    <glyph glyph-name="uni2467" unicode="&#x2467;" horiz-adv-x="1763" 
d="M1238.5 1291q161.5 -94 255.5 -256t94 -356t-94 -355.5t-255.5 -256t-355.5 -94.5q-193 0 -355.5 94.5t-257.5 256.5t-95 355q0 194 95 356t257 256t356 94t355.5 -94zM1199.5 126.5q142.5 85.5 224.5 231.5t82 321t-82 321t-224.5 231.5t-316.5 85.5t-317.5 -85.5
t-226 -231.5t-82.5 -321t82.5 -321t226 -231.5t317.5 -85.5t316.5 85.5zM1117.5 671.5q46.5 -34.5 68.5 -76t22 -98.5q0 -72 -40.5 -128t-116 -87t-174.5 -31q-94 0 -163.5 27.5t-106 78t-36.5 115.5q0 79 53.5 134t153.5 95q-83 40 -117.5 90t-34.5 114q0 57 32.5 101
t91.5 68t137 24q71 0 129 -20.5t92 -61t34 -97.5q0 -66 -44 -110t-106 -69q79 -34 125.5 -68.5zM798 997q-40 -31 -40 -80q0 -47 40 -80.5t135 -72.5q61 31 94.5 62.5t33.5 80.5q0 56 -45.5 88.5t-112.5 32.5q-65 0 -105 -31zM1028.5 360q49.5 40 49.5 108q0 49 -33.5 86.5
t-84 64.5t-124.5 57q-73 -30 -118.5 -72t-45.5 -114q0 -76 56 -123t158 -47q93 0 142.5 40z" />
    <glyph glyph-name="uni2468" unicode="&#x2468;" horiz-adv-x="1763" 
d="M1238.5 1291q161.5 -94 255.5 -256t94 -356t-94 -355.5t-255.5 -256t-355.5 -94.5q-193 0 -355.5 94.5t-257.5 256.5t-95 355q0 194 95 356t257 256t356 94t355.5 -94zM1199.5 126.5q142.5 85.5 224.5 231.5t82 321t-82 321t-224.5 231.5t-316.5 85.5t-317.5 -85.5
t-226 -231.5t-82.5 -321t82.5 -321t226 -231.5t317.5 -85.5t316.5 85.5zM1033.5 1046q78.5 -52 125.5 -150t47 -228q0 -123 -43 -217.5t-120 -147t-177 -52.5q-97 0 -162 47t-92 106l96 56l31 -19q-3 -16 -3 -31q0 -40 36.5 -64.5t95.5 -24.5q67 0 118 31.5t78.5 89
t27.5 133.5q0 36 -6 75q-34 -69 -90 -107t-130 -38q-79 0 -145 43.5t-103.5 116t-37.5 154.5q0 81 38 144.5t102.5 99t141.5 35.5q93 0 171.5 -52zM1002 636q38 46 38 118q0 61 -28 123t-75.5 102.5t-103.5 40.5q-35 0 -66 -17t-49.5 -50t-18.5 -79q0 -56 26 -123t73 -114
t106 -47q60 0 98 46z" />
    <glyph glyph-name="uni24C5" unicode="&#x24c5;" horiz-adv-x="1725" 
d="M1219 1291q162 -94 256 -256t94 -356q0 -193 -94 -355t-256 -256.5t-355 -94.5t-355.5 94.5t-257.5 256.5t-95 355q0 194 95 356t257 256t356 94q193 0 355 -94zM1180.5 126.5q142.5 85.5 224.5 231.5t82 321t-82 321t-224.5 231.5t-316.5 85.5t-317.5 -85.5
t-226.5 -231.5t-83 -321t83 -321t226.5 -231.5t317.5 -85.5t316.5 85.5zM1144.5 1003.5q66.5 -48.5 66.5 -145.5q0 -100 -69.5 -149t-179.5 -49h-193v-240l18 -56l77 -12l-5 -45h-299l-5 45l80 12l15 56v522l-15 55l-80 11l5 44h392q126 0 192.5 -48.5zM1049 753.5
q43 38.5 43 106.5q0 61 -41.5 100.5t-123.5 39.5h-96l-62 -25v-260h158q79 0 122 38.5z" />
    <glyph glyph-name="uni24EA" unicode="&#x24ea;" horiz-adv-x="1763" 
d="M527.5 67.5q-162.5 94.5 -257.5 256.5t-95 355q0 194 95 356t257 256t356 94t355.5 -94t255.5 -256t94 -356t-94 -355.5t-255.5 -256t-355.5 -94.5q-193 0 -355.5 94.5zM1199.5 126.5q142.5 85.5 224.5 231.5t82 321t-82 321t-224.5 231.5t-316.5 85.5t-317.5 -85.5
t-226 -231.5t-82.5 -321t82.5 -321t226 -231.5t317.5 -85.5t316.5 85.5zM704.5 316q-74.5 60 -113 156.5t-38.5 205.5q0 110 38.5 207t113 157t178.5 60q103 0 178 -60t114 -157t39 -207q0 -109 -39 -205.5t-114 -156.5t-178 -60q-104 0 -178.5 60zM996 380
q42 55 58.5 134.5t16.5 163.5q0 138 -43 245.5t-145 107.5t-145 -107t-43 -246q0 -138 43 -245.5t145 -107.5q71 0 113 55z" />
    <glyph glyph-name="lozenge" unicode="&#x25ca;" horiz-adv-x="1198" 
d="M1094 679l-458 -679h-75l-457 679l457 677h75zM983 679l-384 573l-384 -573l384 -572z" />
    <glyph glyph-name="circle" unicode="&#x25cb;" horiz-adv-x="1763" 
d="M527.5 67.5q-162.5 94.5 -257.5 256.5t-95 355q0 194 95 356t257 256t356 94t355.5 -94t255.5 -256t94 -356t-94 -355.5t-255.5 -256t-355.5 -94.5q-193 0 -355.5 94.5zM1199.5 126.5q142.5 85.5 224.5 231.5t82 321t-82 321t-224.5 231.5t-316.5 85.5t-317.5 -85.5
t-226 -231.5t-82.5 -321t82.5 -321t226 -231.5t317.5 -85.5t316.5 85.5z" />
    <glyph glyph-name="uniF8FF" unicode="&#xf8ff;" horiz-adv-x="2304" 
d="M171 1477h1962v-1946h-1962v1946zM2051 -390v1788h-1796v-1788h1796zM712 151q-94 54 -150.5 150.5t-56.5 218.5q0 113 49.5 209t137.5 152.5t199 56.5q106 0 200 -54t151 -151t57 -219q0 -113 -49.5 -209t-137.5 -152t-198 -56q-108 0 -202 54zM1077 205.5
q49 34.5 75.5 97.5t26.5 145q0 113 -44.5 209t-121.5 152t-169 56q-67 0 -117 -35.5t-77 -99t-27 -146.5q0 -113 45.5 -208t123 -150t169.5 -55q67 0 116 34.5zM1390 155l67 12l18 63v390l-83 6l-7 43l182 39l20 -31l-58 -149h11q43 80 96.5 130t110.5 50q42 0 79 -32
l-56 -103h-36q-8 15 -23.5 25.5t-32.5 10.5q-50 0 -101 -94v-285l21 -63l61 -12l-2 -42h-261z" />
    <glyph glyph-name="i.locl" horiz-adv-x="590" 
d="M84 62l107 21l31 104v574l-153 91v43l113 8l247 115l42 -39l-83 -99v-693l31 -104l107 -21l-8 -62h-427zM174 1233v34l102 103h31l102 -103v-34l-102 -100h-31z" />
    <glyph glyph-name="a.salt" horiz-adv-x="1167" 
d="M279.5 7.5q-70.5 34.5 -110 95t-39.5 136.5q0 129 105 196t276 92l304 45v82q0 85 -35.5 146.5t-98.5 93.5t-144 32q-82 0 -145 -32.5t-97.5 -88t-34.5 -122.5q0 -28 6 -52l-35 -22l-171 109q57 130 180.5 206t292.5 76q127 0 229.5 -44t161 -125t58.5 -187v-399
q0 -87 35 -135.5t115 -65.5l-10 -68q-21 -3 -43 -3q-105 0 -173 60t-78 172q-28 -60 -85.5 -113.5t-136 -86t-166.5 -32.5q-90 0 -160.5 34.5zM652 126.5q73 38.5 118 100t45 125.5v146l-288 -45q-106 -16 -159 -65.5t-53 -128.5t50 -125t135 -46q79 0 152 38.5z" />
    <glyph glyph-name="aacute.aalt" horiz-adv-x="1167" 
d="M279.5 7.5q-70.5 34.5 -110 95t-39.5 136.5q0 129 105 196t276 92l304 45v82q0 85 -35.5 146.5t-98.5 93.5t-144 32q-82 0 -145 -32.5t-97.5 -88t-34.5 -122.5q0 -28 6 -52l-35 -22l-171 109q57 130 180.5 206t292.5 76q127 0 229.5 -44t161 -125t58.5 -187v-399
q0 -87 35 -135.5t115 -65.5l-10 -68q-21 -3 -43 -3q-105 0 -173 60t-78 172q-28 -60 -85.5 -113.5t-136 -86t-166.5 -32.5q-90 0 -160.5 34.5zM652 126.5q73 38.5 118 100t45 125.5v146l-288 -45q-106 -16 -159 -65.5t-53 -128.5t50 -125t135 -46q79 0 152 38.5zM321 1134
l419 254h101l20 -29v-79l-525 -179z" />
    <glyph glyph-name="abreve.aalt" horiz-adv-x="1167" 
d="M279.5 7.5q-70.5 34.5 -110 95t-39.5 136.5q0 129 105 196t276 92l304 45v82q0 85 -35.5 146.5t-98.5 93.5t-144 32q-82 0 -145 -32.5t-97.5 -88t-34.5 -122.5q0 -28 6 -52l-35 -22l-171 109q57 130 180.5 206t292.5 76q127 0 229.5 -44t161 -125t58.5 -187v-399
q0 -87 35 -135.5t115 -65.5l-10 -68q-21 -3 -43 -3q-105 0 -173 60t-78 172q-28 -60 -85.5 -113.5t-136 -86t-166.5 -32.5q-90 0 -160.5 34.5zM652 126.5q73 38.5 118 100t45 125.5v146l-288 -45q-106 -16 -159 -65.5t-53 -128.5t50 -125t135 -46q79 0 152 38.5zM400 1197.5
q-61 55.5 -69 147.5h56q9 -46 56 -75t112 -29t111.5 29t55.5 75h57q-8 -92 -69 -147.5t-155 -55.5t-155 55.5z" />
    <glyph glyph-name="acircumflex.aalt" horiz-adv-x="1167" 
d="M279.5 7.5q-70.5 34.5 -110 95t-39.5 136.5q0 129 105 196t276 92l304 45v82q0 85 -35.5 146.5t-98.5 93.5t-144 32q-82 0 -145 -32.5t-97.5 -88t-34.5 -122.5q0 -28 6 -52l-35 -22l-171 109q57 130 180.5 206t292.5 76q127 0 229.5 -44t161 -125t58.5 -187v-399
q0 -87 35 -135.5t115 -65.5l-10 -68q-21 -3 -43 -3q-105 0 -173 60t-78 172q-28 -60 -85.5 -113.5t-136 -86t-166.5 -32.5q-90 0 -160.5 34.5zM652 126.5q73 38.5 118 100t45 125.5v146l-288 -45q-106 -16 -159 -65.5t-53 -128.5t50 -125t135 -46q79 0 152 38.5zM255 1106
l300 304l300 -304l-23 -22l-277 166l-278 -166z" />
    <glyph glyph-name="adieresis.aalt" horiz-adv-x="1167" 
d="M279.5 7.5q-70.5 34.5 -110 95t-39.5 136.5q0 129 105 196t276 92l304 45v82q0 85 -35.5 146.5t-98.5 93.5t-144 32q-82 0 -145 -32.5t-97.5 -88t-34.5 -122.5q0 -28 6 -52l-35 -22l-171 109q57 130 180.5 206t292.5 76q127 0 229.5 -44t161 -125t58.5 -187v-399
q0 -87 35 -135.5t115 -65.5l-10 -68q-21 -3 -43 -3q-105 0 -173 60t-78 172q-28 -60 -85.5 -113.5t-136 -86t-166.5 -32.5q-90 0 -160.5 34.5zM652 126.5q73 38.5 118 100t45 125.5v146l-288 -45q-106 -16 -159 -65.5t-53 -128.5t50 -125t135 -46q79 0 152 38.5zM253 1234
v33l102 104h31l102 -104v-33l-102 -100h-31zM620 1234v33l103 104h31l102 -104v-33l-102 -100h-31z" />
    <glyph glyph-name="agrave.aalt" horiz-adv-x="1167" 
d="M279.5 7.5q-70.5 34.5 -110 95t-39.5 136.5q0 129 105 196t276 92l304 45v82q0 85 -35.5 146.5t-98.5 93.5t-144 32q-82 0 -145 -32.5t-97.5 -88t-34.5 -122.5q0 -28 6 -52l-35 -22l-171 109q57 130 180.5 206t292.5 76q127 0 229.5 -44t161 -125t58.5 -187v-399
q0 -87 35 -135.5t115 -65.5l-10 -68q-21 -3 -43 -3q-105 0 -173 60t-78 172q-28 -60 -85.5 -113.5t-136 -86t-166.5 -32.5q-90 0 -160.5 34.5zM652 126.5q73 38.5 118 100t45 125.5v146l-288 -45q-106 -16 -159 -65.5t-53 -128.5t50 -125t135 -46q79 0 152 38.5zM283 1280
v79l20 29h100l420 -254l-16 -33z" />
    <glyph glyph-name="amacron.aalt" horiz-adv-x="1167" 
d="M279.5 7.5q-70.5 34.5 -110 95t-39.5 136.5q0 129 105 196t276 92l304 45v82q0 85 -35.5 146.5t-98.5 93.5t-144 32q-82 0 -145 -32.5t-97.5 -88t-34.5 -122.5q0 -28 6 -52l-35 -22l-171 109q57 130 180.5 206t292.5 76q127 0 229.5 -44t161 -125t58.5 -187v-399
q0 -87 35 -135.5t115 -65.5l-10 -68q-21 -3 -43 -3q-105 0 -173 60t-78 172q-28 -60 -85.5 -113.5t-136 -86t-166.5 -32.5q-90 0 -160.5 34.5zM652 126.5q73 38.5 118 100t45 125.5v146l-288 -45q-106 -16 -159 -65.5t-53 -128.5t50 -125t135 -46q79 0 152 38.5zM238 1265
h632v-76h-632v76z" />
    <glyph glyph-name="aogonek.aalt" horiz-adv-x="1167" 
d="M1151 -310v-60q-30 -23 -69 -34t-79 -11q-81 0 -132.5 41.5t-51.5 112.5q0 69 48.5 133t123.5 114q-69 21 -112 76.5t-51 142.5q-28 -60 -85.5 -113.5t-136 -86t-166.5 -32.5q-90 0 -160.5 34.5t-110 95t-39.5 136.5q0 129 105 196t276 92l304 45v82q0 85 -35.5 146.5
t-98.5 93.5t-144 32q-82 0 -145 -32.5t-97.5 -88t-34.5 -122.5q0 -28 6 -52l-35 -22l-171 109q57 130 180.5 206t292.5 76q127 0 229.5 -44t161 -125t58.5 -187v-399q0 -87 35 -135.5t115 -65.5l-10 -68q-21 -3 -43 -3q-23 0 -44 3q-49 -42 -80 -92t-31 -102t33.5 -87.5
t88.5 -35.5q51 0 105 31zM815 498l-288 -45q-106 -16 -159 -65.5t-53 -128.5t50 -125t135 -46q79 0 152 38.5t118 100t45 125.5v146z" />
    </font>
</defs>
</svg>
